<?xml version="1.0" encoding="utf-8"?>
<svg xmlns="http://www.w3.org/2000/svg" version="1.1" viewBox="0 0 362 117">
	<title>Plainchant notation of the first line of the Gloria from the Latin Catholic Mass.</title>
	<path d="m29.152 24.11h291.69v1.8228h-291.69z"/>
	<path d="m29.152 38.502h291.69v1.8228h-291.69z"/>
	<path d="m29.152 54.708h291.69v1.8228h-291.69z"/>
	<path d="m29.152 69.868h291.69v1.8228h-291.69z"/>
	<path d="m35.463 65.966h11.673v8.0247h-11.673z" stroke-width=".26813"/>
	<path d="m34.934 13.975h11.673v8.0247h-11.673z" stroke-width=".26813"/>
	<path d="m34.906 28.47h11.673v8.0247h-11.673z" stroke-width=".26813"/>
	<path d="m34.884 17.203h1.2257v16.718h-1.2257z" stroke-width=".16819"/>
	<path d="m262.18 44.286h1.226l-1.463 16.717h-1.225z" stroke-width=".16819"/>
	<path d="m46.002 69.167h1.2257v16.718h-1.2257z" stroke-width=".16819"/>
	<path d="m123.16 58.892h10.862l-0.849 8.81h-10.862z" stroke-width=".24132"/>
	<path d="m146.29 51.053h10.863l-0.849 8.81h-10.862z" stroke-width=".24132"/>
	<path d="m178.25 43.171h10.863l-0.849 8.81h-10.862z" stroke-width=".24132"/>
	<path d="m79.907 50.638-0.84745 9.5255h8.337l0.84745-9.5255z" stroke-width=".22697"/>
	<path d="m100.58 50.467-0.84743 9.5255h8.3366l0.84782-9.5255z" stroke-width=".22697"/>
	<path d="m65.736 51.086h1.2257l-1.4626 16.717h-1.2257z" stroke-width=".16819"/>
	<path d="m56.314 51.096h10.611l-0.8703 9.145h-10.611z" stroke-width=".24552"/>
	<path d="m216.05 59.1h12.893l-0.729 8.327h-12.893z" stroke-width=".26458"/>
	<path d="m303.49 59.134h12.893l-0.729 8.327h-12.893z" stroke-width=".26458"/>
	<path d="m253.07 44.308h9.5769l-0.54004 7.3041h-9.5769z" stroke-width=".21357"/>
	<path d="m285.44 62.813-4.175 5.922-3.929-5.574 4.174-5.923z" stroke-width=".20373"/>
	<path d="m275.09 55.382-4.175 5.922-3.929-5.574 4.174-5.923z" stroke-width=".20373"/>
	<path d="m35.449 77.86h11.673v8.0247h-11.673z" stroke-width=".26813"/>
	<path d="m38.427 96.957-0.5198 2.2159h-0.1955c0.0309-0.2595 0.0463-0.4515 0.0463-0.5761 0-0.339-0.1492-0.6383-0.4477-0.8977-0.295-0.263-0.7033-0.3944-1.2247-0.3944-1.067 0-1.9384 0.5051-2.6142 1.5153-0.5386 0.7991-0.8079 1.6937-0.8079 2.6827 0 0.658 0.1664 1.225 0.4991 1.702 0.3328 0.478 0.8457 0.716 1.5387 0.716 0.1715 0 0.3328-0.015 0.4837-0.046 0.1544-0.031 0.386-0.101 0.6947-0.208l0.5095-1.811c0.072-0.249 0.108-0.448 0.108-0.597 0-0.124-0.0446-0.219-0.1338-0.285-0.1441-0.1-0.3773-0.151-0.6998-0.151h-0.1441l0.0566-0.202h2.9023l-0.0515 0.202c-0.2641 4e-3 -0.4563 0.035-0.5763 0.094-0.1201 0.059-0.223 0.159-0.3088 0.301-0.0583 0.093-0.1526 0.365-0.283 0.815l-0.5146 1.779c-0.47 0.205-0.8491 0.34-1.1373 0.405-0.2881 0.069-0.5918 0.104-0.9108 0.104-0.7342 0-1.3294-0.138-1.7857-0.415-0.4562-0.28-0.7942-0.649-1.0137-1.105-0.2161-0.461-0.3242-0.917-0.3242-1.37 0-0.609 0.1269-1.187 0.3808-1.7337 0.2539-0.5501 0.5695-1.0137 0.9468-1.3908 0.3809-0.3805 0.7942-0.6798 1.2402-0.8977 0.6141-0.301 1.2591-0.4515 1.9349-0.4515 0.4975 0 0.9469 0.083 1.3483 0.2491 0.1612 0.0657 0.2796 0.0986 0.355 0.0986 0.0858 0 0.1578-0.019 0.2162-0.0571 0.0617-0.0415 0.1406-0.1384 0.2367-0.2906zm3.1596-0.1816-1.7599 6.1753c-0.0858 0.308-0.1287 0.496-0.1287 0.566 0 0.052 0.0155 0.095 0.0463 0.129 0.0344 0.035 0.0755 0.052 0.1236 0.052 0.0651 0 0.1355-0.029 0.2109-0.088 0.1784-0.142 0.3654-0.361 0.5609-0.659l0.1544 0.161c-0.3259 0.463-0.6261 0.787-0.9005 0.97-0.2024 0.132-0.3945 0.197-0.5764 0.197-0.1303 0-0.2401-0.044-0.3293-0.134-0.0858-0.09-0.1287-0.194-0.1287-0.312 0-0.124 0.0549-0.38 0.1647-0.768l1.3946-4.8675c0.1132-0.3978 0.1698-0.6261 0.1698-0.685 0-0.083-0.0326-0.1504-0.0978-0.2023-0.0652-0.0554-0.1664-0.0831-0.3036-0.0831-0.0789 0-0.199 0.0121-0.3602 0.0364v-0.1921zm4.6674 4.3073c0 0.519-0.1372 1.033-0.4117 1.541-0.271 0.509-0.6501 0.912-1.1372 1.209-0.4872 0.298-0.9606 0.447-1.4203 0.447-0.47 0-0.8543-0.151-1.1527-0.452-0.2951-0.304-0.4426-0.697-0.4426-1.178 0-0.509 0.1441-1.019 0.4323-1.531 0.2916-0.512 0.6792-0.917 1.163-1.2141 0.4871-0.2976 0.9571-0.4463 1.41-0.4463 0.4528 0 0.825 0.1505 1.1166 0.4515 0.2951 0.3009 0.4426 0.6919 0.4426 1.1729zm-0.8543-0.358c0-0.322-0.0789-0.568-0.2367-0.7371-0.1543-0.173-0.355-0.2595-0.602-0.2595-0.5043 0-0.9692 0.3646-1.3946 1.0946-0.422 0.727-0.6329 1.45-0.6329 2.17 0 0.328 0.0823 0.582 0.247 0.762 0.1646 0.177 0.3722 0.265 0.6226 0.265 0.4837 0 0.9366-0.361 1.3586-1.085 0.4254-0.726 0.638-1.463 0.638-2.21zm13.354 1.084-9.5663-4e-3v-0.384l9.5663 4e-3zm7.4102-0.726c0 0.519-0.1372 1.033-0.4116 1.541-0.2711 0.509-0.6502 0.912-1.1373 1.209-0.4872 0.298-0.9606 0.447-1.4203 0.447-0.47 0-0.8542-0.151-1.1527-0.452-0.295-0.304-0.4425-0.697-0.4425-1.178 0-0.509 0.144-1.019 0.4322-1.531 0.2916-0.512 0.6793-0.917 1.163-1.2141 0.4872-0.2976 0.9572-0.4463 1.41-0.4463 0.4529 0 0.8251 0.1505 1.1167 0.4515 0.295 0.3009 0.4425 0.6919 0.4425 1.1729zm-0.8542-0.358c0-0.322-0.0789-0.568-0.2367-0.7371-0.1544-0.173-0.3551-0.2595-0.6021-0.2595-0.5043 0-0.9691 0.3646-1.3945 1.0946-0.422 0.727-0.633 1.45-0.633 2.17 0 0.328 0.0823 0.582 0.247 0.762 0.1647 0.177 0.3722 0.265 0.6227 0.265 0.4837 0 0.9365-0.361 1.3585-1.085 0.4254-0.726 0.6381-1.463 0.6381-2.21zm13.354 1.084-9.5664-4e-3v-0.384l9.5664 4e-3zm3.0876-2.0598 1.7753-0.2906-0.741 2.5224c0.6004-1.035 1.1458-1.758 1.6364-2.1696 0.2779-0.2352 0.5043-0.3528 0.6793-0.3528 0.1132 0 0.2024 0.0346 0.2676 0.1038 0.0652 0.0657 0.0978 0.1626 0.0978 0.2906 0 0.228-0.0584 0.446-0.175 0.654-0.0823 0.156-0.2007 0.233-0.3551 0.233-0.0789 0-0.1475-0.026-0.2058-0.077-0.0549-0.052-0.0892-0.132-0.1029-0.239-0.0069-0.066-0.0223-0.109-0.0463-0.13-0.0275-0.028-0.0601-0.041-0.0978-0.041-0.0583 0-0.1132 0.013-0.1647 0.041-0.0892 0.049-0.2247 0.183-0.4065 0.405-0.2848 0.339-0.5935 0.778-0.9263 1.318-0.1441 0.228-0.2676 0.486-0.3705 0.773-0.1441 0.395-0.2264 0.632-0.247 0.711l-0.1647 0.654h-0.7873l0.952-3.223c0.1098-0.373 0.1647-0.64 0.1647-0.799 0-0.062-0.0258-0.114-0.0772-0.1555-0.0686-0.0553-0.1595-0.083-0.2727-0.083-0.0721 0-0.2042 0.0156-0.3963 0.0467zm5.9075-2.3508c0.1441 0 0.2659 0.0501 0.3654 0.1505 0.0995 0.1003 0.1492 0.2231 0.1492 0.3684 0 0.1419-0.0514 0.2647-0.1543 0.3685-0.0995 0.1003-0.2196 0.1505-0.3603 0.1505-0.1406 0-0.2624-0.0502-0.3653-0.1505-0.0995-0.1038-0.1492-0.2266-0.1492-0.3685 0-0.1453 0.0497-0.2681 0.1492-0.3684 0.0995-0.1004 0.2213-0.1505 0.3653-0.1505zm0.0669 2.0602-1.0189 3.6374c-0.0686 0.246-0.1029 0.393-0.1029 0.441 0 0.056 0.0154 0.101 0.0463 0.135 0.0343 0.035 0.0738 0.052 0.1184 0.052 0.0514 0 0.1132-0.027 0.1852-0.083 0.1956-0.155 0.3928-0.377 0.5918-0.664l0.1801 0.119c-0.2333 0.36-0.5077 0.663-0.8233 0.908-0.2333 0.184-0.4563 0.276-0.669 0.276-0.1407 0-0.2556-0.042-0.3448-0.125-0.0892-0.086-0.1338-0.194-0.1338-0.322s0.0429-0.341 0.1287-0.638l0.6689-2.325c0.1098-0.38 0.1647-0.619 0.1647-0.716 0-0.076-0.0274-0.138-0.0823-0.1868-0.0515-0.0485-0.1235-0.0727-0.2162-0.0727-0.0754 0-0.2315 0.019-0.4683 0.0571v-0.2024zm12.607 2.3504-9.566-4e-3v-0.384l9.566 4e-3zm7.483-2.3504-1.004 3.5184-0.113 0.472c-0.01 0.045-0.016 0.083-0.016 0.114 0 0.056 0.018 0.104 0.052 0.146 0.027 0.031 0.062 0.046 0.103 0.046 0.044 0 0.103-0.027 0.175-0.083 0.134-0.1 0.312-0.308 0.535-0.622l0.175 0.124c-0.237 0.36-0.48 0.635-0.731 0.825-0.25 0.187-0.482 0.28-0.694 0.28-0.148 0-0.259-0.038-0.335-0.114-0.072-0.072-0.108-0.18-0.108-0.321 0-0.17 0.038-0.393 0.113-0.67l0.108-0.389c-0.449 0.592-0.863 1.005-1.24 1.24-0.271 0.17-0.537 0.254-0.798 0.254-0.25 0-0.466-0.103-0.648-0.311-0.182-0.211-0.273-0.5-0.273-0.866 0-0.551 0.163-1.13 0.489-1.739 0.33-0.612 0.746-1.102 1.251-1.4685 0.394-0.2906 0.766-0.4359 1.116-0.4359 0.21 0 0.383 0.0553 0.52 0.166 0.141 0.1107 0.247 0.2941 0.319 0.5504l0.185-0.5919zm-1.832 0.2698c-0.22 0-0.453 0.1038-0.7 0.3116-0.35 0.294-0.662 0.73-0.937 1.308-0.271 0.577-0.406 1.1-0.406 1.567 0 0.235 0.058 0.422 0.175 0.56 0.116 0.135 0.25 0.203 0.401 0.203 0.374 0 0.78-0.279 1.22-0.836 0.586-0.74 0.88-1.5 0.88-2.278 0-0.294-0.057-0.507-0.17-0.6384s-0.268-0.1972-0.463-0.1972zm17.686-2.33c0.144 0 0.266 0.0501 0.366 0.1505 0.099 0.1003 0.149 0.2231 0.149 0.3684 0 0.1419-0.052 0.2647-0.154 0.3685-0.1 0.1003-0.22 0.1505-0.361 0.1505-0.14 0-0.262-0.0502-0.365-0.1505-0.1-0.1038-0.149-0.2266-0.149-0.3685 0-0.1453 0.049-0.2681 0.149-0.3684 0.099-0.1004 0.221-0.1505 0.365-0.1505zm0.067 2.0602-1.019 3.6374c-0.068 0.246-0.103 0.393-0.103 0.441 0 0.056 0.016 0.101 0.047 0.135 0.034 0.035 0.073 0.052 0.118 0.052 0.051 0 0.113-0.027 0.185-0.083 0.196-0.155 0.393-0.377 0.592-0.664l0.18 0.119c-0.233 0.36-0.508 0.663-0.823 0.908-0.233 0.184-0.456 0.276-0.669 0.276-0.141 0-0.256-0.042-0.345-0.125-0.089-0.086-0.134-0.194-0.134-0.322s0.043-0.341 0.129-0.638l0.669-2.325c0.11-0.38 0.165-0.619 0.165-0.716 0-0.076-0.028-0.138-0.083-0.1868-0.051-0.0485-0.123-0.0727-0.216-0.0727-0.075 0-0.231 0.019-0.468 0.0571v-0.2024zm2.83 0-0.684 2.3614c0.642-0.965 1.132-1.6 1.472-1.9048 0.343-0.3044 0.672-0.4566 0.988-0.4566 0.171 0 0.312 0.0571 0.422 0.1712 0.113 0.1142 0.17 0.2629 0.17 0.4462 0 0.208-0.05 0.484-0.15 0.83l-0.627 2.185c-0.072 0.253-0.108 0.407-0.108 0.462 0 0.048 0.013 0.09 0.041 0.125 0.027 0.031 0.056 0.046 0.087 0.046 0.041 0 0.091-0.022 0.149-0.067 0.182-0.145 0.381-0.367 0.597-0.664l0.16 0.098c-0.319 0.46-0.621 0.789-0.906 0.986-0.199 0.135-0.377 0.203-0.535 0.203-0.127 0-0.228-0.04-0.304-0.12-0.075-0.076-0.113-0.18-0.113-0.311 0-0.166 0.058-0.452 0.175-0.856l0.597-2.087c0.075-0.259 0.113-0.461 0.113-0.607 0-0.069-0.022-0.124-0.067-0.166-0.044-0.045-0.099-0.067-0.164-0.067-0.096 0-0.211 0.041-0.345 0.124-0.254 0.156-0.518 0.414-0.793 0.774-0.274 0.356-0.564 0.813-0.869 1.37-0.162 0.294-0.295 0.615-0.402 0.965l-0.257 0.856h-0.772l0.937-3.249c0.109-0.39 0.164-0.626 0.164-0.705 0-0.076-0.031-0.142-0.092-0.197-0.059-0.0593-0.132-0.0887-0.222-0.0887-0.041 0-0.113 0.0069-0.216 0.0208l-0.195 0.0311-0.031-0.1869zm17.373 2.7404c-0.024 0.173-0.036 0.316-0.036 0.43 0 0.308 0.108 0.571 0.324 0.789 0.217 0.215 0.479 0.322 0.788 0.322 0.247 0 0.483-0.05 0.71-0.151 0.23-0.103 0.569-0.33 1.019-0.679l0.108 0.15c-0.813 0.813-1.589 1.22-2.326 1.22-0.501 0-0.878-0.16-1.132-0.478s-0.381-0.669-0.381-1.053c0-0.516 0.158-1.043 0.473-1.583 0.316-0.54 0.712-0.958 1.189-1.2559 0.477-0.301 0.968-0.4515 1.472-0.4515 0.364 0 0.633 0.0744 0.808 0.2231 0.175 0.1488 0.262 0.3253 0.262 0.5293 0 0.287-0.113 0.562-0.339 0.825-0.299 0.343-0.738 0.619-1.318 0.83-0.384 0.142-0.924 0.253-1.621 0.333zm0.036-0.255c0.508-0.058 0.921-0.159 1.24-0.301 0.422-0.19 0.738-0.417 0.947-0.68 0.213-0.266 0.319-0.518 0.319-0.757 0-0.145-0.046-0.2631-0.139-0.353-0.089-0.09-0.217-0.135-0.386-0.135-0.349 0-0.722 0.1886-1.116 0.566-0.391 0.373-0.679 0.927-0.865 1.66zm5.213-2.4854c0.168 0.1799 0.295 0.3598 0.381 0.5397 0.062 0.1247 0.163 0.4517 0.304 0.9807l0.452-0.685c0.12-0.166 0.266-0.3234 0.438-0.4722 0.171-0.1522 0.322-0.256 0.453-0.3113 0.082-0.0347 0.173-0.052 0.272-0.052 0.148 0 0.265 0.0398 0.35 0.1194 0.09 0.0796 0.134 0.1764 0.134 0.2906 0 0.1315-0.026 0.2215-0.077 0.2695-0.096 0.087-0.206 0.13-0.329 0.13-0.072 0-0.15-0.015-0.232-0.047-0.161-0.055-0.269-0.083-0.324-0.083-0.082 0-0.18 0.049-0.293 0.146-0.213 0.18-0.467 0.527-0.762 1.043l0.422 1.785c0.065 0.273 0.12 0.437 0.165 0.493 0.044 0.052 0.089 0.078 0.133 0.078 0.072 0 0.156-0.04 0.253-0.12 0.188-0.159 0.349-0.366 0.483-0.622l0.18 0.093c-0.216 0.408-0.49 0.747-0.823 1.017-0.189 0.152-0.348 0.228-0.479 0.228-0.192 0-0.344-0.109-0.458-0.326-0.072-0.135-0.221-0.717-0.447-1.744-0.535 0.937-0.964 1.541-1.287 1.811-0.209 0.173-0.411 0.259-0.607 0.259-0.137 0-0.262-0.05-0.376-0.15-0.082-0.076-0.123-0.178-0.123-0.306 0-0.114 0.038-0.21 0.113-0.286 0.076-0.076 0.168-0.114 0.278-0.114s0.226 0.056 0.35 0.166c0.089 0.08 0.158 0.12 0.206 0.12 0.041 0 0.094-0.028 0.159-0.083 0.161-0.132 0.381-0.416 0.659-0.851 0.278-0.436 0.46-0.751 0.545-0.945-0.212-0.841-0.327-1.285-0.344-1.334-0.079-0.225-0.182-0.384-0.309-0.477-0.127-0.0935-0.314-0.1402-0.561-0.1402-0.079 0-0.17 0.0035-0.273 0.0104v-0.1868zm17.589 2.3504-9.566-4e-3v-0.384l9.566 4e-3zm14.512 1.215c-0.357 0.432-0.717 0.75-1.081 0.955-0.364 0.2-0.748 0.301-1.153 0.301-0.487 0-0.868-0.139-1.142-0.416-0.271-0.276-0.407-0.648-0.407-1.115 0-0.53 0.146-1.05 0.438-1.562 0.295-0.512 0.689-0.928 1.183-1.2458 0.498-0.3218 0.985-0.4826 1.462-0.4826 0.374 0 0.653 0.0795 0.839 0.2387 0.185 0.1557 0.278 0.3477 0.278 0.5757 0 0.215-0.066 0.398-0.196 0.55-0.096 0.118-0.214 0.177-0.355 0.177-0.106 0-0.196-0.035-0.268-0.104-0.068-0.069-0.103-0.156-0.103-0.259 0-0.066 0.012-0.127 0.036-0.182 0.028-0.055 0.081-0.121 0.16-0.197 0.082-0.08 0.132-0.137 0.149-0.172 0.017-0.034 0.026-0.07 0.026-0.1085 0-0.0726-0.033-0.1332-0.098-0.1816-0.099-0.0692-0.24-0.1038-0.422-0.1038-0.336 0-0.669 0.1194-0.998 0.3579-0.329 0.239-0.611 0.578-0.844 1.017-0.281 0.533-0.422 1.066-0.422 1.599 0 0.352 0.099 0.633 0.298 0.84 0.199 0.204 0.47 0.306 0.814 0.306 0.264 0 0.524-0.065 0.782-0.197 0.26-0.135 0.552-0.377 0.875-0.726zm1.863-0.825c-0.024 0.173-0.036 0.316-0.036 0.43 0 0.308 0.108 0.571 0.324 0.789 0.216 0.215 0.478 0.322 0.787 0.322 0.247 0 0.484-0.05 0.71-0.151 0.23-0.103 0.57-0.33 1.019-0.679l0.108 0.15c-0.813 0.813-1.588 1.22-2.326 1.22-0.501 0-0.878-0.16-1.132-0.478s-0.381-0.669-0.381-1.053c0-0.516 0.158-1.043 0.474-1.583 0.315-0.54 0.712-0.958 1.188-1.2559 0.477-0.301 0.968-0.4515 1.472-0.4515 0.364 0 0.633 0.0744 0.808 0.2231 0.175 0.1488 0.263 0.3253 0.263 0.5293 0 0.287-0.114 0.562-0.34 0.825-0.299 0.343-0.738 0.619-1.317 0.83-0.385 0.142-0.925 0.253-1.621 0.333zm0.036-0.255c0.507-0.058 0.921-0.159 1.24-0.301 0.422-0.19 0.737-0.417 0.947-0.68 0.212-0.266 0.319-0.518 0.319-0.757 0-0.145-0.047-0.2631-0.139-0.353-0.089-0.09-0.218-0.135-0.386-0.135-0.35 0-0.722 0.1886-1.117 0.566-0.391 0.373-0.679 0.927-0.864 1.66zm6.52-5.1683-1.76 6.1753c-0.086 0.308-0.129 0.496-0.129 0.566 0 0.052 0.015 0.095 0.046 0.129 0.035 0.035 0.076 0.052 0.124 0.052 0.065 0 0.135-0.029 0.211-0.088 0.178-0.142 0.365-0.361 0.561-0.659l0.154 0.161c-0.326 0.463-0.626 0.787-0.9 0.97-0.203 0.132-0.395 0.197-0.577 0.197-0.13 0-0.24-0.044-0.329-0.134-0.086-0.09-0.129-0.194-0.129-0.312 0-0.124 0.055-0.38 0.165-0.768l1.394-4.8675c0.114-0.3978 0.17-0.6261 0.17-0.685 0-0.083-0.032-0.1504-0.098-0.2023-0.065-0.0554-0.166-0.0831-0.303-0.0831-0.079 0-0.199 0.0121-0.36 0.0364v-0.1921zm19.801 5.0333-9.566-4e-3v-0.384l9.566 4e-3zm14.265-2.3504-0.314 1.5934h-0.19c-0.018-0.464-0.115-0.801-0.294-1.012-0.178-0.2113-0.399-0.3168-0.664-0.3168-0.212 0-0.382 0.0588-0.509 0.1765-0.124 0.1173-0.185 0.2593-0.185 0.4253 0 0.114 0.024 0.223 0.072 0.327 0.051 0.104 0.161 0.249 0.329 0.436 0.446 0.491 0.734 0.861 0.865 1.111 0.13 0.249 0.195 0.484 0.195 0.705 0 0.36-0.149 0.68-0.448 0.96-0.295 0.277-0.669 0.416-1.121 0.416-0.247 0-0.532-0.059-0.855-0.177-0.113-0.041-0.2-0.062-0.262-0.062-0.154 0-0.271 0.079-0.35 0.238h-0.19l0.314-1.681h0.19c0.021 0.526 0.129 0.898 0.324 1.116 0.196 0.218 0.463 0.327 0.803 0.327 0.261 0 0.466-0.073 0.617-0.218 0.155-0.149 0.232-0.331 0.232-0.545 0-0.138-0.027-0.266-0.082-0.384-0.096-0.208-0.299-0.495-0.608-0.862-0.305-0.366-0.502-0.641-0.591-0.825-0.086-0.183-0.129-0.366-0.129-0.55 0-0.335 0.12-0.619 0.36-0.8508 0.244-0.2318 0.556-0.3477 0.937-0.3477 0.11 0 0.209 0.0087 0.298 0.026 0.048 0.0104 0.16 0.0502 0.335 0.1194 0.178 0.0657 0.296 0.0986 0.355 0.0986 0.147 0 0.271-0.0813 0.37-0.2439zm2.635-2.0602c0.144 0 0.265 0.0501 0.365 0.1505 0.099 0.1003 0.149 0.2231 0.149 0.3684 0 0.1419-0.051 0.2647-0.154 0.3685-0.1 0.1003-0.22 0.1505-0.36 0.1505-0.141 0-0.263-0.0502-0.366-0.1505-0.099-0.1038-0.149-0.2266-0.149-0.3685 0-0.1453 0.05-0.2681 0.149-0.3684 0.1-0.1004 0.221-0.1505 0.366-0.1505zm0.066 2.0602-1.018 3.6374c-0.069 0.246-0.103 0.393-0.103 0.441 0 0.056 0.015 0.101 0.046 0.135 0.034 0.035 0.074 0.052 0.118 0.052 0.052 0 0.113-0.027 0.186-0.083 0.195-0.155 0.392-0.377 0.591-0.664l0.18 0.119c-0.233 0.36-0.507 0.663-0.823 0.908-0.233 0.184-0.456 0.276-0.669 0.276-0.141 0-0.255-0.042-0.345-0.125-0.089-0.086-0.133-0.194-0.133-0.322s0.042-0.341 0.128-0.638l0.669-2.325c0.11-0.38 0.165-0.619 0.165-0.716 0-0.076-0.028-0.138-0.083-0.1868-0.051-0.0485-0.123-0.0727-0.216-0.0727-0.075 0-0.231 0.019-0.468 0.0571v-0.2024zm4.328 0-0.314 1.5934h-0.19c-0.017-0.464-0.115-0.801-0.293-1.012-0.179-0.2113-0.4-0.3168-0.664-0.3168-0.213 0-0.383 0.0588-0.51 0.1765-0.123 0.1173-0.185 0.2593-0.185 0.4253 0 0.114 0.024 0.223 0.072 0.327 0.052 0.104 0.161 0.249 0.329 0.436 0.446 0.491 0.735 0.861 0.865 1.111 0.13 0.249 0.196 0.484 0.196 0.705 0 0.36-0.15 0.68-0.448 0.96-0.295 0.277-0.669 0.416-1.122 0.416-0.247 0-0.532-0.059-0.854-0.177-0.113-0.041-0.201-0.062-0.263-0.062-0.154 0-0.271 0.079-0.35 0.238h-0.19l0.314-1.681h0.19c0.021 0.526 0.129 0.898 0.325 1.116 0.195 0.218 0.463 0.327 0.802 0.327 0.261 0 0.467-0.073 0.618-0.218 0.154-0.149 0.231-0.331 0.231-0.545 0-0.138-0.027-0.266-0.082-0.384-0.096-0.208-0.298-0.495-0.607-0.862-0.306-0.366-0.503-0.641-0.592-0.825-0.086-0.183-0.129-0.366-0.129-0.55 0-0.335 0.12-0.619 0.361-0.8508 0.243-0.2318 0.555-0.3477 0.936-0.3477 0.11 0 0.209 0.0087 0.299 0.026 0.048 0.0104 0.159 0.0502 0.334 0.1194 0.179 0.0657 0.297 0.0986 0.355 0.0986 0.148 0 0.271-0.0813 0.371-0.2439zm33.439-2.1484 0.061-0.192h2.229c0.943 0 1.641 0.1089 2.094 0.3269 0.456 0.2179 0.82 0.5622 1.091 1.0327 0.271 0.467 0.407 0.9687 0.407 1.5049 0 0.4603-0.079 0.9083-0.237 1.3443-0.155 0.432-0.331 0.78-0.53 1.043-0.196 0.259-0.498 0.546-0.906 0.861s-0.851 0.549-1.328 0.701c-0.476 0.149-1.072 0.223-1.785 0.223h-2.954l0.067-0.192c0.271-7e-3 0.453-0.031 0.545-0.073 0.138-0.058 0.239-0.138 0.304-0.238 0.099-0.146 0.211-0.438 0.334-0.877l1.236-4.2557c0.096-0.3356 0.144-0.5985 0.144-0.7888 0-0.1349-0.045-0.2387-0.134-0.3114-0.089-0.0726-0.264-0.109-0.525-0.109zm1.827 0.1972-1.513 5.2676c-0.114 0.394-0.17 0.638-0.17 0.731 0 0.056 0.017 0.109 0.051 0.161 0.038 0.052 0.088 0.087 0.15 0.104 0.089 0.031 0.233 0.047 0.432 0.047 0.538 0 1.038-0.056 1.497-0.166 0.463-0.115 0.842-0.282 1.138-0.504 0.418-0.322 0.753-0.764 1.003-1.328s0.376-1.206 0.376-1.9255c0-0.813-0.192-1.4167-0.577-1.8111-0.384-0.3979-0.945-0.5968-1.682-0.5968-0.182 0-0.417 0.0069-0.705 0.0207zm5.495 4.6916c-0.024 0.173-0.036 0.316-0.036 0.43 0 0.308 0.108 0.571 0.325 0.789 0.216 0.215 0.478 0.322 0.787 0.322 0.247 0 0.484-0.05 0.71-0.151 0.23-0.103 0.57-0.33 1.019-0.679l0.108 0.15c-0.813 0.813-1.588 1.22-2.326 1.22-0.501 0-0.878-0.16-1.132-0.478s-0.381-0.669-0.381-1.053c0-0.516 0.158-1.043 0.474-1.583 0.315-0.54 0.711-0.958 1.188-1.2559 0.477-0.301 0.968-0.4515 1.472-0.4515 0.364 0 0.633 0.0744 0.808 0.2231 0.175 0.1488 0.262 0.3253 0.262 0.5293 0 0.287-0.113 0.562-0.339 0.825-0.299 0.343-0.738 0.619-1.318 0.83-0.384 0.142-0.924 0.253-1.621 0.333zm0.036-0.255c0.508-0.058 0.922-0.159 1.241-0.301 0.422-0.19 0.737-0.417 0.946-0.68 0.213-0.266 0.32-0.518 0.32-0.757 0-0.145-0.047-0.2631-0.139-0.353-0.09-0.09-0.218-0.135-0.386-0.135-0.35 0-0.722 0.1886-1.117 0.566-0.391 0.373-0.679 0.927-0.865 1.66zm23.394-0.135-9.566-4e-3v-0.384l9.566 4e-3zm15.314-0.726c0 0.519-0.137 1.033-0.411 1.541-0.271 0.509-0.65 0.912-1.138 1.209-0.487 0.298-0.96 0.447-1.42 0.447-0.47 0-0.854-0.151-1.153-0.452-0.295-0.304-0.442-0.697-0.442-1.178 0-0.509 0.144-1.019 0.432-1.531 0.292-0.512 0.679-0.917 1.163-1.2141 0.487-0.2976 0.957-0.4463 1.41-0.4463s0.825 0.1505 1.117 0.4515c0.295 0.3009 0.442 0.6919 0.442 1.1729zm-0.854-0.358c0-0.322-0.079-0.568-0.237-0.7371-0.154-0.173-0.355-0.2595-0.602-0.2595-0.504 0-0.969 0.3646-1.394 1.0946-0.422 0.727-0.633 1.45-0.633 2.17 0 0.328 0.082 0.582 0.247 0.762 0.165 0.177 0.372 0.265 0.623 0.265 0.483 0 0.936-0.361 1.358-1.085 0.425-0.726 0.638-1.463 0.638-2.21zm2.125 2.501c0.148 0 0.271 0.052 0.371 0.156 0.103 0.1 0.154 0.223 0.154 0.368s-0.051 0.27-0.154 0.374c-0.103 0.1-0.226 0.15-0.371 0.15-0.144 0-0.267-0.05-0.37-0.15-0.1-0.104-0.149-0.229-0.149-0.374s0.049-0.268 0.149-0.368c0.103-0.104 0.226-0.156 0.37-0.156z"/>
</svg>
