<?xml version="1.0" encoding="utf-8"?>
<svg xmlns="http://www.w3.org/2000/svg" version="1.2" viewBox="0 0 1276 808.62522">
	<title>Eleven bars of musical notation beginning with an anacrusis of one quaver, on the bass clef in common time and in the key of D major, with lyrics from the ballad Little Harry Hughes.</title>
	<path d="M0 45.474H1276M0 57.874H1276M0 70.274H1276M0 82.674H1276M0 95.074H1276M0 359.4H1276M0 371.8H1276M0 384.2H1276M0 396.6H1276M0 409H1276M0 673.325H1276M0 685.725H1276M0 698.125H1276M0 710.525H1276M0 722.925H1276" fill="none" stroke="#000" stroke-linejoin="bevel" stroke-width="1.365"/>
	<path d="M438.186 335.84c59.11-33.594 326.68-20.574 382.245 18.6-55.755-35.211-323.33-48.231-382.245-18.6M755.846 655.965c69.135-35.055 380.725-16.22 445.135 26.91-64.645-39.17-376.24-58.005-445.135-26.91M664.976 682.875c4.025-23.145 31.29-42.8 54.52-39.31-20.91-.27-48.17 19.38-54.52 39.31M192.082 655.965c77.468-45.47 446.66-59.795 527.415-20.46-80.6-35.37-449.793-21.045-527.414 20.46M92.725 725.78c6.665 7.105 19.994 7.105 26.659 0-6.665 11.07-19.994 11.07-26.658 0M148.547 34.315c43.568-33.149 250.045-37.489 294.965-6.2-44.84-27.322-251.313-22.982-294.964 6.2M565.376 40.515c52.3-34.477 295.375-33.002 347.25 2.108-51.9-31.142-294.975-32.617-347.25-2.108M1005.201 34.315c37.63-33.475 223.46-46.754 265.47-18.97-41.725-23.826-227.555-10.547-265.47 18.971M92.725 341.67c37.176-28.412 206.945-23.813 242.528 6.57-35.69-26.417-205.459-31.016-242.527-6.57M907.116 399.45c53.24 33.81 307.73 44.225 363.555 14.88-55.99 33.31-310.475 22.895-363.555-14.88" fill-rule="evenodd" stroke="#000" stroke-linecap="round" stroke-linejoin="round" stroke-width="0.62"/>
	<path d="M1059.975 44.792v50.964M792.43 672.645V723.61M639.68 672.645V723.61M257.837 672.645V723.61M222.31 44.792v50.964M1274.885 358.72v50.96M1015.75 358.72v50.96M622.525 44.792v50.964M563.985 358.72v50.96M287.101 358.72v50.96M1175.685 672.645V723.61M1263.475 672.645V723.61" fill="none" stroke="#000" stroke-linejoin="bevel" stroke-width="2.23"/>
	<path d="M 1272.59,672.645 V 723.61" fill="none" stroke="#000" stroke-linejoin="bevel" stroke-width="6.82"/>
	<path d="m 1274.885,44.792497 v 50.964" fill="none" stroke="#000" stroke-linejoin="bevel" stroke-width="2.23"/>
	<path d="m 422.6946,337.92338 c -0.099,-0.0992 -0.248,-0.1488 -0.4464,-0.1488 l -0.099,0.0496 c 0,0 -0.05,0 -0.05,0 l -6.2496,1.736 v -8.68001 h -1.3888 v 24.55203 c 0,0.5456 0.4464,0.6448 0.8928,0.6448 l 6.2496,-1.736 v 8.68001 h 1.3392 c 0,-8.23361 0,-16.07042 0,-24.55203 0,-0.1984 -0.099,-0.4464 -0.248,-0.5456 m -6.8448,13.88801 v -8.1344 l 5.7536,-1.63681 v 8.18401 l -5.7536,1.5872" stroke-width=".496"/>
	<path d="M707.345 660.925h24.3M335.227 33.074h24.3M426.036 347h24.3M1173.545 33.074h24.3" fill="none" stroke="#000" stroke-linejoin="bevel" stroke-width="1.985"/>
	<path d="M914.555 382.215V350.1M972.34 382.215V350.1M997.76 47.557v41.267M1082.12 47.557v41.317M712.06 656.81v41.315M657.535 700.21v35.115M1178.255 28.957v41.317M339.939 35.157v41.317M590.72 700.21v31.975M542.25 694.01v35.155M243.805 53.757v41.317M905.19 59.957V101.275M469.556 681.61v41.315M421.091 694.01V726M843.475 59.957V101.225M810.285 675.41v44.44M372.624 681.61v42.34M111.945 355.285V396.6M324.159 669.21V721.9M275.694 675.41v44.44M141.109 47.557v41.267M436.071 41.357v41.317M226.409 367.685V408.95M858.755 669.21V721.9M184.644 669.21v41.315M126.822 708.54V667.125M907.22 681.61v42.34M327.815 361.485V402.8M557.94 53.757v41.268M1229.07 400.815V340.8M430.751 349.083V390.4M750.9 66.157V104.375M955.685 694.01V726M1193.54 700.21v35.115M1168.875 382.215V340.8M1108.675 369.815V340.8M1048.48 376.015V340.8M517.74 355.285V396.55M1004.15 681.61v41.315M748.41 669.21v41.315M658.325 53.757v41.317M581.84 361.485V405.92M1076.845 694.01v35.155M827.87 382.215V347M1125.31 700.21v31.975M639.63 367.685v40.29M755.205 380.085V412.08M697.42 373.885v36.14" fill="none" stroke="#000" stroke-linejoin="bevel" stroke-width="1.24"/>
	<path d="M696.801 373.883c0 2.133 1.538 4.514 5.555 4.514 5.158 0 10.565-4.216 10.565-8.581 0-2.926-2.48-4.563-5.555-4.563-4.811 0-10.565 4.067-10.565 8.63M997.141 47.558c0 2.133 1.538 4.514 5.555 4.514 5.158 0 10.565-4.216 10.565-8.581 0-2.926-2.48-4.563-5.555-4.563-4.811 0-10.565 4.067-10.565 8.63M639.011 367.683c0 2.133 1.538 4.514 5.555 4.514 5.158 0 10.565-4.216 10.565-8.581 0-2.926-2.48-4.563-5.555-4.563-4.811 0-10.565 4.067-10.565 8.63M754.586 380.083c0 2.133 1.538 4.514 5.555 4.514 5.158 0 10.565-4.216 10.565-8.581 0-2.926-2.48-4.563-5.555-4.563-4.811 0-10.565 4.067-10.565 8.63M711.441 656.808c0 2.133 1.538 4.514 5.555 4.514 5.158 0 10.565-4.216 10.565-8.581 0-2.926-2.48-4.563-5.555-4.563-4.811 0-10.565 4.067-10.565 8.63M812.376 386.283c0 2.133 1.538 4.514 5.555 4.514 5.158 0 10.565-4.216 10.565-8.581 0-2.926-2.48-4.563-5.555-4.563-4.811 0-10.565 4.067-10.565 8.63M1076.226 694.008c0 2.133 1.538 4.514 5.555 4.514 5.158 0 10.565-4.216 10.565-8.581 0-2.926-2.48-4.563-5.555-4.563-4.811 0-10.565 4.067-10.565 8.63M581.221 361.483c0 2.133 1.538 4.514 5.555 4.514 5.158 0 10.565-4.216 10.565-8.581 0-2.926-2.48-4.563-5.555-4.563-4.811 0-10.565 4.067-10.565 8.63M899.056 386.283c0 2.133 1.538 4.514 5.555 4.514 5.158 0 10.565-4.216 10.565-8.581 0-2.926-2.48-4.563-5.555-4.563-4.811 0-10.565 4.067-10.565 8.63M747.791 669.208c0 2.133 1.538 4.514 5.555 4.514 5.158 0 10.565-4.216 10.565-8.581 0-2.926-2.48-4.563-5.555-4.563-4.811 0-10.565 4.067-10.565 8.63M1003.531 681.608c0 2.133 1.538 4.514 5.555 4.514 5.158 0 10.565-4.216 10.565-8.581 0-2.926-2.48-4.563-5.555-4.563-4.811 0-10.565 4.067-10.565 8.63M657.706 53.758c0 2.133 1.538 4.514 5.555 4.514 5.158 0 10.565-4.216 10.565-8.581 0-2.926-2.48-4.563-5.555-4.563-4.811 0-10.565 4.067-10.565 8.63M956.846 386.283c0 2.133 1.538 4.514 5.555 4.514 5.158 0 10.565-4.216 10.565-8.581 0-2.926-2.48-4.563-5.555-4.563-4.811 0-10.565 4.067-10.565 8.63M517.121 355.283c0 2.133 1.538 4.514 5.555 4.514 5.158 0 10.565-4.216 10.565-8.581 0-2.926-2.48-4.563-5.555-4.563-4.811 0-10.565 4.067-10.565 8.63M557.321 53.758c0 2.133 1.538 4.514 5.555 4.514 5.158 0 10.565-4.216 10.565-8.581 0-2.926-2.48-4.563-5.555-4.563-4.811 0-10.565 4.067-10.565 8.63M1081.501 47.558c0 2.133 1.538 4.514 5.555 4.514 5.158 0 10.565-4.216 10.565-8.581 0-2.926-2.48-4.563-5.555-4.563-4.811 0-10.565 4.067-10.565 8.63M1032.986 380.083c0 2.133 1.538 4.514 5.555 4.514 5.158 0 10.565-4.216 10.565-8.581 0-2.926-2.48-4.563-5.555-4.563-4.811 0-10.565 4.067-10.565 8.63M667.481 691.578c-4.811 0-10.565 4.018-10.565 8.63 0 2.133 1.538 4.514 5.555 4.514 5.158 0 10.565-4.216 10.565-8.581 0-2.926-2.48-4.563-5.555-4.563m-6.845 10.813c-1.637 0-1.984-1.339-1.984-1.786 0-2.43 8.333-6.696 10.664-6.696 1.19 0 1.984.694 1.984 1.786 0 2.48-8.382 6.696-10.664 6.696M955.066 694.008c0 2.133 1.538 4.514 5.555 4.514 5.158 0 10.565-4.216 10.565-8.581 0-2.926-2.48-4.563-5.555-4.563-4.811 0-10.565 4.067-10.565 8.63M1124.691 700.208c0 2.133 1.538 4.514 5.555 4.514 5.158 0 10.565-4.216 10.565-8.581 0-2.926-2.48-4.563-5.555-4.563-4.811 0-10.565 4.067-10.565 8.63M1093.181 373.883c0 2.133 1.538 4.514 5.555 4.514 5.158 0 10.565-4.216 10.565-8.581 0-2.926-2.48-4.563-5.555-4.563-4.811 0-10.565 4.067-10.565 8.63M140.489 47.558c0 2.133 1.538 4.514 5.555 4.514 5.158 0 10.565-4.216 10.565-8.581 0-2.926-2.48-4.563-5.555-4.563-4.811 0-10.565 4.067-10.565 8.63M1153.376 386.283c0 2.133 1.538 4.514 5.555 4.514 5.158 0 10.565-4.216 10.565-8.581 0-2.926-2.48-4.563-5.555-4.563-4.811 0-10.565 4.067-10.565 8.63M430.131 349.083c0 2.133 1.538 4.514 5.555 4.514 5.158 0 10.565-4.216 10.565-8.581 0-2.926-2.48-4.563-5.555-4.563-4.811 0-10.565 4.067-10.565 8.63M1203.486 691.578c-4.811 0-10.565 4.018-10.565 8.63 0 2.133 1.538 4.514 5.555 4.514 5.158 0 10.565-4.216 10.565-8.581 0-2.926-2.48-4.563-5.555-4.563m-6.845 10.813c-1.637 0-1.984-1.339-1.984-1.786 0-2.43 8.333-6.696 10.664-6.696 1.19 0 1.984.694 1.984 1.786 0 2.48-8.382 6.696-10.664 6.696M1213.576 404.883c0 2.133 1.538 4.514 5.555 4.514 5.158 0 10.565-4.216 10.565-8.581 0-2.926-2.48-4.563-5.555-4.563-4.811 0-10.565 4.067-10.565 8.63M337.759 352.853c-4.811 0-10.565 4.018-10.565 8.63 0 2.133 1.538 4.514 5.555 4.514 5.158 0 10.565-4.216 10.565-8.581 0-2.926-2.48-4.563-5.555-4.563m-6.845 10.813c-1.637 0-1.984-1.339-1.984-1.786 0-2.43 8.333-6.696 10.664-6.696 1.19 0 1.984.694 1.984 1.786 0 2.48-8.382 6.696-10.664 6.696M339.319 35.158c0 2.133 1.538 4.514 5.555 4.514 5.158 0 10.565-4.216 10.565-8.581 0-2.926-2.48-4.563-5.555-4.563-4.811 0-10.565 4.067-10.565 8.63M906.601 681.608c0 2.133 1.538 4.514 5.555 4.514 5.158 0 10.565-4.216 10.565-8.581 0-2.926-2.48-4.563-5.555-4.563-4.811 0-10.565 4.067-10.565 8.63M750.281 66.158c0 2.133 1.538 4.514 5.555 4.514 5.158 0 10.565-4.216 10.565-8.581 0-2.926-2.48-4.563-5.555-4.563-4.811 0-10.565 4.067-10.565 8.63M435.451 41.358c0 2.133 1.538 4.514 5.555 4.514 5.158 0 10.565-4.216 10.565-8.581 0-2.926-2.48-4.563-5.555-4.563-4.811 0-10.565 4.067-10.565 8.63M590.101 700.208c0 2.133 1.538 4.514 5.555 4.514 5.158 0 10.565-4.216 10.565-8.581 0-2.926-2.48-4.563-5.555-4.563-4.811 0-10.565 4.067-10.565 8.63M1177.636 28.958c0 2.133 1.538 4.514 5.555 4.514 5.158 0 10.565-4.216 10.565-8.581 0-2.926-2.48-4.563-5.555-4.563-4.811 0-10.565 4.067-10.565 8.63M243.185 53.758c0 2.133 1.538 4.514 5.555 4.514 5.158 0 10.565-4.216 10.565-8.581 0-2.926-2.48-4.563-5.555-4.563-4.811 0-10.565 4.067-10.565 8.63M111.325 712.608c0 2.133 1.538 4.514 5.555 4.514 5.158 0 10.565-4.216 10.565-8.581 0-2.926-2.48-4.563-5.555-4.563-4.811 0-10.565 4.067-10.565 8.63M858.136 669.208c0 2.133 1.538 4.514 5.555 4.514 5.158 0 10.565-4.216 10.565-8.581 0-2.926-2.48-4.563-5.555-4.563-4.811 0-10.565 4.067-10.565 8.63M541.631 694.008c0 2.133 1.538 4.514 5.555 4.514 5.158 0 10.565-4.216 10.565-8.581 0-2.926-2.48-4.563-5.555-4.563-4.811 0-10.565 4.067-10.565 8.63M184.024 669.208c0 2.133 1.538 4.514 5.555 4.514 5.158 0 10.565-4.216 10.565-8.581 0-2.926-2.48-4.563-5.555-4.563-4.811 0-10.565 4.067-10.565 8.63M225.789 367.683c0 2.133 1.538 4.514 5.555 4.514 5.158 0 10.565-4.216 10.565-8.581 0-2.926-2.48-4.563-5.555-4.563-4.811 0-10.565 4.067-10.565 8.63M904.571 59.958c0 2.133 1.538 4.514 5.555 4.514 5.158 0 10.565-4.216 10.565-8.581 0-2.926-2.48-4.563-5.555-4.563-4.811 0-10.565 4.067-10.565 8.63M468.936 681.608c0 2.133 1.538 4.514 5.555 4.514 5.158 0 10.565-4.216 10.565-8.581 0-2.926-2.48-4.563-5.555-4.563-4.811 0-10.565 4.067-10.565 8.63M420.471 694.008c0 2.133 1.538 4.514 5.555 4.514 5.158 0 10.565-4.216 10.565-8.581 0-2.926-2.48-4.563-5.555-4.563-4.811 0-10.565 4.067-10.565 8.63M275.074 675.408c0 2.133 1.538 4.514 5.555 4.514 5.158 0 10.565-4.216 10.565-8.581 0-2.926-2.48-4.563-5.555-4.563-4.811 0-10.565 4.067-10.565 8.63M842.856 59.958c0 2.133 1.538 4.514 5.555 4.514 5.158 0 10.565-4.216 10.565-8.581 0-2.926-2.48-4.563-5.555-4.563-4.811 0-10.565 4.067-10.565 8.63M809.666 675.408c0 2.133 1.538 4.514 5.555 4.514 5.158 0 10.565-4.216 10.565-8.581 0-2.926-2.48-4.563-5.555-4.563-4.811 0-10.565 4.067-10.565 8.63M111.325 355.283c0 2.133 1.538 4.514 5.555 4.514 5.158 0 10.565-4.216 10.565-8.581 0-2.926-2.48-4.563-5.555-4.563-4.811 0-10.565 4.067-10.565 8.63M323.539 669.208c0 2.133 1.538 4.514 5.555 4.514 5.158 0 10.565-4.216 10.565-8.581 0-2.926-2.48-4.563-5.555-4.563-4.811 0-10.565 4.067-10.565 8.63M372.004 681.608c0 2.133 1.538 4.514 5.555 4.514 5.158 0 10.565-4.216 10.565-8.581 0-2.926-2.48-4.563-5.555-4.563-4.811 0-10.565 4.067-10.565 8.63" stroke-width=".496"/>
	<path d="M21.898 359.351c-3.77 0-6.795 2.182-6.845 2.182-2.926 2.133-4.811 5.406-4.811 9.027 0 3.621 2.083 6.299 5.754 6.299 3.174 0 5.654-2.133 5.654-5.406 0-2.827-2.48-5.158-5.258-5.158-.595 0-1.141.099-1.587.248-.496.198-1.339.694-1.736 1.042.347-2.182 1.835-4.365 3.77-5.406 1.24-.694 2.827-.992 4.563-.992 5.059 0 7.539 4.067 7.539 12.4 0 6.448-4.117 15.723-8.978 20.088-5.158 4.712-10.019 6.944-10.069 6.944 0 0-.595.347-.595.942 0 .099.05.149.05.248.149.496.595.595.942.595l.149-.05c.099 0 5.754-2.331 10.267-5.853 6.944-5.01 14.781-13.838 14.781-22.965 0-8.63-4.662-14.186-13.59-14.186m15.574 6.299c0 1.389 1.091 2.48 2.381 2.48 1.29 0 2.381-1.091 2.381-2.48 0-1.389-1.091-2.53-2.381-2.53-1.29 0-2.381 1.141-2.381 2.53m0 12.251c0 1.389 1.091 2.53 2.381 2.53 1.29 0 2.381-1.141 2.381-2.53 0-1.389-1.091-2.53-2.381-2.53-1.29 0-2.381 1.141-2.381 2.53M21.898 673.276c-3.77 0-6.795 2.182-6.845 2.182-2.926 2.133-4.811 5.406-4.811 9.027 0 3.621 2.083 6.299 5.754 6.299 3.174 0 5.654-2.133 5.654-5.406 0-2.827-2.48-5.158-5.258-5.158-.595 0-1.141.099-1.587.248-.496.198-1.339.694-1.736 1.042.347-2.182 1.835-4.365 3.77-5.406 1.24-.694 2.827-.992 4.563-.992 5.059 0 7.539 4.067 7.539 12.4 0 6.448-4.117 15.723-8.978 20.088-5.158 4.712-10.019 6.944-10.069 6.944 0 0-.595.347-.595.942 0 .099.05.149.05.248.149.496.595.595.942.595l.149-.05c.099 0 5.754-2.331 10.267-5.853 6.944-5.01 14.781-13.838 14.781-22.965 0-8.63-4.662-14.186-13.59-14.186m15.574 6.299c0 1.389 1.091 2.48 2.381 2.48 1.29 0 2.381-1.091 2.381-2.48 0-1.389-1.091-2.53-2.381-2.53-1.29 0-2.381 1.141-2.381 2.53m0 12.251c0 1.389 1.091 2.53 2.381 2.53 1.29 0 2.381-1.141 2.381-2.53 0-1.389-1.091-2.53-2.381-2.53-1.29 0-2.381 1.141-2.381 2.53M21.898 45.425c-3.77 0-6.795 2.182-6.845 2.182-2.926 2.133-4.811 5.406-4.811 9.027 0 3.621 2.083 6.299 5.754 6.299 3.174 0 5.654-2.133 5.654-5.406 0-2.827-2.48-5.158-5.258-5.158-.595 0-1.141.099-1.587.248-.496.198-1.339.694-1.736 1.042.347-2.182 1.835-4.365 3.77-5.406 1.24-.694 2.827-.992 4.563-.992 5.059 0 7.539 4.067 7.539 12.4 0 6.448-4.117 15.723-8.978 20.088-5.158 4.712-10.019 6.944-10.069 6.944 0 0-.595.347-.595.942 0 .099.05.149.05.248.149.496.595.595.942.595l.149-.05c.099 0 5.754-2.331 10.267-5.853 6.944-5.01 14.781-13.838 14.781-22.965 0-8.63-4.662-14.186-13.59-14.186m15.574 6.299c0 1.389 1.091 2.48 2.381 2.48 1.29 0 2.381-1.091 2.381-2.48 0-1.389-1.091-2.53-2.381-2.53-1.29 0-2.381 1.141-2.381 2.53m0 12.251c0 1.389 1.091 2.53 2.381 2.53 1.29 0 2.381-1.141 2.381-2.53 0-1.389-1.091-2.53-2.381-2.53-1.29 0-2.381 1.141-2.381 2.53" stroke-width=".496"/>
	<path d="M66.191 366.592c.298-.05.546-.397.546-.694v-2.926c0-.496-.347-.694-.794-.694l-1.637.347v-7.39h-1.389v7.688l-4.414.893v-6.994H57.114v7.291l-1.934.397c-.298.05-.546.397-.546.694v2.877c0 .546.397.694.843.694l1.637-.347v8.184l-1.934.397c-.298.05-.546.397-.546.694v2.877c0 .546.397.694.843.694l1.637-.347v7.39h1.389V380.629l4.414-.893v6.994h1.389v-7.291l1.885-.347c.298-.05.546-.397.546-.694v-2.926c0-.496-.347-.694-.794-.694l-1.637.347v-8.184l1.885-.347m-7.688 1.538 4.414-.893v8.184l-4.414.942v-8.234M79.776 385.192c.298-.05.546-.397.546-.694v-2.926c0-.496-.347-.694-.794-.694l-1.637.347v-7.39h-1.389v7.688l-4.414.893v-6.994H70.7v7.291l-1.934.397c-.298.05-.546.397-.546.694v2.877c0 .546.397.694.843.694l1.637-.347v8.184l-1.934.397c-.298.05-.546.397-.546.694v2.877c0 .546.397.694.843.694l1.637-.347v7.39h1.389V399.229l4.414-.893v6.994h1.389v-7.291l1.885-.347c.298-.05.546-.397.546-.694v-2.926c0-.496-.347-.694-.794-.694l-1.637.347v-8.184l1.885-.347m-7.688 1.538 4.414-.893v8.184l-4.414.942v-8.234M66.191 52.667c.298-.05.546-.397.546-.694v-2.926c0-.496-.347-.694-.794-.694l-1.637.347v-7.39h-1.389v7.688l-4.414.893v-6.994H57.114v7.291l-1.934.397c-.298.05-.546.397-.546.694v2.877c0 .546.397.694.843.694l1.637-.347v8.184l-1.934.397c-.298.05-.546.397-.546.694v2.877c0 .546.397.694.843.694l1.637-.347v7.39h1.389v-7.688l4.414-.893v6.994h1.389v-7.291l1.885-.347c.298-.05.546-.397.546-.694v-2.926c0-.496-.347-.694-.794-.694l-1.637.347v-8.184l1.885-.347m-7.688 1.538 4.414-.893v8.184l-4.414.942v-8.234M79.776 71.267c.298-.05.546-.397.546-.694v-2.926c0-.496-.347-.694-.794-.694l-1.637.347v-7.39h-1.389v7.688l-4.414.893v-6.994H70.7v7.291l-1.934.397c-.298.05-.546.397-.546.694v2.877c0 .546.397.694.843.694l1.637-.347v8.184l-1.934.397c-.298.05-.546.397-.546.694v2.877c0 .546.397.694.843.694l1.637-.347v7.39h1.389v-7.688l4.414-.893v6.994h1.389v-7.291l1.885-.347c.298-.05.546-.397.546-.694v-2.926c0-.496-.347-.694-.794-.694l-1.637.347v-8.184l1.885-.347m-7.688 1.538 4.414-.893v8.184l-4.414.942v-8.234M66.191 680.517c.298-.05.546-.397.546-.694v-2.926c0-.496-.347-.694-.794-.694l-1.637.347v-7.39h-1.389v7.688l-4.414.893V670.746H57.114v7.291l-1.934.397c-.298.05-.546.397-.546.694v2.877c0 .546.397.694.843.694l1.637-.347v8.184l-1.934.397c-.298.05-.546.397-.546.694v2.877c0 .546.397.694.843.694l1.637-.347v7.39h1.389v-7.688l4.414-.893v6.994h1.389v-7.291l1.885-.347c.298-.049.546-.397.546-.694v-2.926c0-.496-.347-.694-.794-.694l-1.637.347v-8.184l1.885-.347m-7.688 1.538 4.414-.893v8.184l-4.414.942v-8.234M79.776 699.117c.298-.049.546-.397.546-.694v-2.926c0-.496-.347-.694-.794-.694l-1.637.347v-7.39h-1.389v7.688l-4.414.893V689.346H70.7v7.291l-1.934.397c-.298.049-.546.397-.546.694v2.877c0 .546.397.694.843.694l1.637-.347v8.184l-1.934.397c-.298.049-.546.397-.546.694v2.877c0 .546.397.694.843.694l1.637-.347v7.39h1.389v-7.688l4.414-.893v6.994h1.389v-7.291l1.885-.347c.298-.05.546-.397.546-.694v-2.926c0-.496-.347-.694-.794-.694l-1.637.347v-8.184l1.885-.347m-7.688 1.538 4.414-.893v8.184l-4.414.942v-8.234" stroke-width=".496"/>
	<path d="m 108.84502,61.396277 c -1.24,0.7936 -2.1328,2.232 -2.1328,3.8192 0,0.1984 0,0.39681 0.0496,0.59521 0.248,2.0336 1.8848,3.6208 3.9184,3.8688 0.1488,0 0.3968,0 0.5456,0 2.48,0 4.46401,-1.984 4.46401,-4.46401 0,-0.3472 0,-0.6944 -0.0992,-1.0416 -0.4464,-2.1328 -2.38081,-6.696 -10.81282,-6.696 -10.81281,0 -12.05281,8.97761 -12.05281,12.20161 0,5.90241 0.744,13.29281 13.14402,13.29281 4.9104,0 8.7296,-2.8768 8.928,-8.18401 0,-0.248 -0.1488,-0.3968 -0.3968,-0.3968 h -0.6448 c -0.1984,0 -0.3968,0.1984 -0.3968,0.3968 -0.1984,4.11681 -3.1248,6.59681 -7.4896,6.59681 -4.31521,0 -6.39841,-2.3312 -6.39841,-6.69601 v -9.47361 c 0,-2.7776 1.0912,-5.952 5.5056,-5.952 2.33121,0 3.37281,0.8432 3.91841,1.6864 0.0496,0.0992 0.0496,0.1488 0.0496,0.248 0,0.0496 0,0.1488 -0.0992,0.1984" stroke-width=".496"/>
	<path d="m 1225.786,697.6292 c 0,0.6944 0,0.6944 0.6944,0.6944 h 14.7312 c 0.6944,0 0.6944,0 0.6944,-0.6944 v -5.3568 c 0,-0.6944 0,-0.6944 -0.6944,-0.6944 h -14.7312 c -0.6944,0 -0.6944,0 -0.6944,0.6944 v 5.3568" stroke-width=".496"/>
	<path d="m275.074 716.725 146.638 6.2v6.205l-146.637-6.2v-6.205M809.666 716.725l146.64 6.2v6.205l-146.64-6.2v-6.205M541.631 726.02l49.71 3.1v6.21l-49.71-3.1v-6.21M1047.861 337.7h181.83v6.2h-181.83v-6.2M913.936 347h59.025v6.2h-59.025v-6.2M581.221 402.8l174.605 6.2v6.2l-174.605-6.2v-6.2M1076.226 726.02l49.705 3.1v6.21l-49.705-3.1v-6.21" fill-rule="evenodd" stroke-width=".5"/>
	<path d="M140.489 88.825c0 .347.298.645.645.645.248 0 .546-.198.595-.397 0-.05.446-1.786.496-1.934.05-.198.496-2.083 2.282-5.01 1.934-3.224 4.91-5.555 7.39-9.027 2.48-3.472 3.918-6.746 3.918-11.11 0-4.514-.992-8.283-3.67-13.094-.149-.347-.446-.546-.744-.546-.099 0-.198 0-.248.05-.248.099-.347.298-.347.595 0 .149.05.347.149.595 1.984 4.613 2.778 7.242 2.778 10.813 0 4.117-1.438 6.25-2.331 7.787-3.224 5.506-8.432 8.184-10.515 8.878-.347.099-.397.397-.397.546v11.21M225.789 408.951c0 .347.298.645.645.645.248 0 .546-.198.595-.397 0-.05.446-1.786.496-1.934.05-.198.496-2.083 2.282-5.01 1.934-3.224 4.91-5.555 7.39-9.027 2.48-3.472 3.918-6.746 3.918-11.11 0-4.514-.992-8.283-3.67-13.094-.149-.347-.446-.546-.744-.546-.099 0-.198 0-.248.05-.248.099-.347.298-.347.595 0 .149.05.347.149.595 1.984 4.613 2.778 7.242 2.778 10.813 0 4.117-1.438 6.25-2.331 7.787-3.224 5.506-8.432 8.184-10.515 8.878-.347.099-.397.397-.397.546v11.21M842.856 101.225c0 .347.298.645.645.645.248 0 .546-.198.595-.397 0-.05.446-1.786.496-1.934.049-.198.496-2.083 2.282-5.01 1.934-3.224 4.91-5.555 7.39-9.027 2.48-3.472 3.918-6.746 3.918-11.11 0-4.514-.992-8.283-3.67-13.094-.149-.347-.446-.546-.744-.546-.099 0-.198 0-.248.05-.248.099-.347.298-.347.595 0 .149.049.347.149.595 1.984 4.613 2.778 7.242 2.778 10.813 0 4.117-1.438 6.25-2.331 7.787-3.224 5.506-8.432 8.184-10.515 8.878-.347.099-.397.397-.397.546v11.21M557.321 95.025c0 .347.298.645.645.645.248 0 .546-.198.595-.397 0-.05.446-1.786.496-1.934.05-.198.496-2.083 2.282-5.01 1.934-3.224 4.91-5.555 7.39-9.027 2.48-3.472 3.918-6.746 3.918-11.11 0-4.514-.992-8.283-3.67-13.094-.149-.347-.446-.546-.744-.546-.099 0-.198 0-.248.05-.248.099-.347.298-.347.595 0 .149.05.347.149.595 1.984 4.613 2.778 7.242 2.778 10.813 0 4.117-1.438 6.25-2.331 7.787-3.224 5.506-8.432 8.184-10.515 8.878-.347.099-.397.397-.397.546v11.21M997.141 88.825c0 .347.298.645.645.645.248 0 .546-.198.595-.397 0-.05.446-1.786.496-1.934.05-.198.496-2.083 2.282-5.01 1.934-3.224 4.91-5.555 7.39-9.027 2.48-3.472 3.918-6.746 3.918-11.11 0-4.514-.992-8.283-3.67-13.094-.149-.347-.446-.546-.744-.546-.099 0-.198 0-.248.05-.248.099-.347.298-.347.595 0 .149.05.347.149.595 1.984 4.613 2.778 7.242 2.778 10.813 0 4.117-1.438 6.25-2.331 7.787-3.224 5.506-8.432 8.184-10.515 8.878-.347.099-.397.397-.397.546v11.21M517.121 396.551c0 .347.298.645.645.645.248 0 .546-.198.595-.397 0-.05.446-1.786.496-1.934.05-.198.496-2.083 2.282-5.01 1.934-3.224 4.91-5.555 7.39-9.027 2.48-3.472 3.918-6.746 3.918-11.11 0-4.514-.992-8.283-3.67-13.094-.149-.347-.446-.546-.744-.546-.099 0-.198 0-.248.05-.248.099-.347.298-.347.595 0 .149.05.347.149.595 1.984 4.613 2.778 7.242 2.778 10.813 0 4.117-1.438 6.25-2.331 7.787-3.224 5.506-8.432 8.184-10.515 8.878-.347.099-.397.397-.397.546v11.21" stroke-width=".496"/>
	<path d="M233.742 157.071c-4.243 0-7.521 3.761-7.521 8.591 0 4.727 3.312 8.522 7.452 8.522 4.14 0 7.452-3.795 7.452-8.556 0-4.726-3.312-8.556-7.383-8.556m0 1.484c2.415 0 3.761 2.519 3.761 7.073 0 4.589-1.345 7.073-3.829 7.073-2.484 0-3.829-2.484-3.829-7.038 0-4.692 1.311-7.107 3.899-7.107m22.77 15.353 6.279-.241v-1.483h-.862c-2.001-.069-2.173-.276-2.173-2.518v-12.075l-6.486.38v1.484h1.76c1.311.035 1.484.242 1.484 1.725v4.244c0 3.002-.724 6.659-4.519 6.659-1.069 0-1.966-.379-2.415-1.069-.448-.655-.517-1-.517-2.898v-10.522l-6.037.38v1.484h1.311c1.311.035 1.484.242 1.484 1.725v7.452c0 1.76.138 2.553.656 3.347.932 1.415 2.588 2.208 4.658 2.208 2.277 0 3.864-.931 5.382-3.139v2.864m13.557-16.318v-6.831h-1.414c-.345 4.485-1.863 6.762-4.657 6.969v1.346h2.829v8.798c0 2.415.069 3.278.414 4.071.552 1.449 1.932 2.243 3.933 2.243 3.105 0 5.106-2.346 5.106-6.003 0-.207 0-.448-.034-.793h-1.449c-.103 3.105-1 4.692-2.691 4.692-.793 0-1.483-.414-1.725-1-.207-.483-.31-1.345-.31-2.587v-9.418h5.072v-1.483h-5.071M736.481 776.125h-1.45l-7.935 20.115c-.93 2.69-1.825 3.515-3.795 3.655h-.135v1.62h9.14v-1.62h-.69c-1.86 0-2.795-.655-2.795-1.965 0-.45.105-.865.31-1.45l1.14-3.035h9.145l1.86 4.62c.21.555.275.76.275.935 0 .55-.86.895-2.135.895h-1.45v1.62h10.695v-1.62h-.485c-1.795-.035-2.105-.24-2.895-2.21l-8.8-21.56m-1.69 5.655 3.9 9.8h-7.73l3.83-9.8m20.455 3.66-5.97.38v1.48h1.245c1.31.035 1.485.245 1.485 1.725v9.87c-.035.515-.07.725-.21.895-.24.31-.895.45-2.38.485h-.14v1.24h8.73v-1.24h-.135c-2.315-.07-2.625-.24-2.625-1.485v-5.105c0-1.69.24-3.245.62-4.035.725-1.555 2.28-2.625 3.76-2.625.9 0 1.935.485 2.45 1.21.52.76.76 1.795.76 3.45v7.21c-.035.515-.07.725-.205.895-.245.31-.935.45-2.415.485h-.14v1.24h8.73v-1.24h-.14c-2.275-.07-2.585-.24-2.585-1.485v-6.935c0-2.485-.105-3.105-.725-4.275-.865-1.66-2.59-2.66-4.66-2.66-2.24 0-3.93 1.035-5.45 3.315v-2.795m27.29 16.32 6-.245v-1.48h-.62c-1.965-.105-2.14-.315-2.14-2.52v-21.425l-6.76.38v1.485h2.035c1.31.03 1.485.24 1.485 1.725v7.795c-1.28-1.76-2.76-2.555-4.76-2.555-3.9 0-6.87 3.76-6.87 8.73 0 4.9 2.865 8.385 6.87 8.385 2.17 0 3.655-.935 4.76-3.005v2.73m-4.07-14.975c1.41 0 2.76 1.035 3.38 2.62.445 1.035.655 2.45.655 4.14 0 4.04-1.59 6.625-4.07 6.625-2.45 0-3.9-2.275-3.9-6.105 0-2.07.205-3.625.655-4.76.585-1.555 1.865-2.52 3.28-2.52M551.426 790.405c0-2.17-.38-3.275-1.38-4.105-1.14-.93-2.83-1.38-5.035-1.38-3.9 0-6.73 1.83-6.73 4.35 0 1.275.795 2.105 2 2.105 1.105 0 1.865-.725 1.865-1.76 0-.45-.175-.935-.52-1.415-.205-.24-.24-.31-.24-.485 0-.69 1.38-1.31 3.035-1.31 1.105 0 2.315.345 2.865.865.655.55.895 1.38.895 2.93v1.345c-3.585.62-4.725.9-6.415 1.555-3 1.1-4.415 2.69-4.415 4.895 0 2.485 1.93 4.04 5 4.04 2.38 0 4.52-.965 6.005-2.725.55 1.76 1.415 2.45 3.035 2.45 1.555 0 3.175-1.005 3.175-2.005 0-.24-.14-.41-.345-.41-.14 0-.275.03-.52.135-.48.21-.69.24-.965.24-.965 0-1.31-.62-1.31-2.38v-6.935m-3.245 4.21c0 2.07-.1 2.555-.69 3.45-.86 1.28-2.415 2.14-3.93 2.14-1.59 0-2.725-1.14-2.725-2.69 0-1.45.725-2.485 2.24-3.21 1.07-.48 2.415-.825 5.105-1.275v1.585m13.625 4.35c-1.9-.035-2-.07-2.415-.31-.245-.14-.415-.52-.415-.9 0-1.035.93-1.485 3.245-1.55 3.24-.07 3.76-.14 4.93-.655 2.07-.935 3.21-2.73 3.21-5.005 0-1.38-.31-2.24-1.24-3.38.585-.62.895-.83 1.17-.83.175 0 .275.105.345.485.14.825.69 1.275 1.555 1.275.895 0 1.55-.725 1.55-1.655 0-1.175-.93-2-2.275-2-1.105 0-1.725.345-3.315 1.795-1.445-.97-2.55-1.315-4.275-1.315-4.105 0-6.8 2.28-6.8 5.73 0 2.035 1.105 3.76 2.9 4.62-2.31.52-3.275 1.555-3.275 3.45 0 1.52.69 2.415 2.31 2.97-2.14.79-3.175 1.86-3.175 3.275 0 1.035.69 2 1.795 2.59 1.345.69 3 .965 5.485.965 5.76 0 8.625-1.83 8.625-5.45 0-1.725-.795-3.105-2.035-3.625-.93-.345-2.035-.48-4.38-.48h-3.52m2.035-12.56c2.14 0 3.345 1.485 3.345 4.175 0 2.69-1.31 4.31-3.485 4.31-2.14 0-3.485-1.62-3.485-4.205 0-2.725 1.315-4.28 3.625-4.28m-.31 15.525c2.86 0 3.07 0 3.55.07 1.415.135 2.245.895 2.245 2 0 1.965-2.245 3.105-6.07 3.105-2.935 0-4.555-.86-4.555-2.415 0-1.14.62-1.895 2.275-2.76h2.555m25.425-11.525c0-2.17-.38-3.275-1.38-4.105-1.135-.93-2.83-1.38-5.035-1.38-3.9 0-6.73 1.83-6.73 4.35 0 1.275.795 2.105 2.005 2.105 1.1 0 1.86-.725 1.86-1.76 0-.45-.17-.935-.515-1.415-.21-.24-.245-.31-.245-.485 0-.69 1.38-1.31 3.04-1.31 1.1 0 2.31.345 2.86.865.655.55.9 1.38.9 2.93v1.345c-3.59.62-4.73.9-6.42 1.555-3 1.1-4.415 2.69-4.415 4.895 0 2.485 1.93 4.04 5.005 4.04 2.38 0 4.515-.965 6-2.725.555 1.76 1.415 2.45 3.035 2.45 1.555 0 3.175-1.005 3.175-2.005 0-.24-.135-.41-.345-.41-.135 0-.275.03-.515.135-.485.21-.69.24-.97.24-.965 0-1.31-.62-1.31-2.38v-6.935m-3.24 4.21c0 2.07-.105 2.555-.69 3.45-.865 1.28-2.415 2.14-3.935 2.14-1.585 0-2.725-1.14-2.725-2.69 0-1.45.725-2.485 2.24-3.21 1.07-.48 2.415-.825 5.11-1.275v1.585m12.31-17.765c-1.1 0-2 .895-2 2 0 1.105.9 2 1.97 2 1.135 0 2.035-.895 2.035-2 0-1.105-.9-2-2.005-2m1.625 8.59-6.485.38v1.48h1.755c1.315.035 1.485.245 1.485 1.725v9.87c-.035.515-.07.725-.205.895-.245.31-.9.45-2.38.485h-.245v1.24h8.935v-1.24h-.24c-2.31-.07-2.62-.24-2.62-1.485v-13.35m10.66 0-5.97.38v1.48h1.24c1.315.035 1.485.245 1.485 1.725v9.87c-.035.515-.07.725-.205.895-.245.31-.9.45-2.38.485h-.14v1.24h8.73v-1.24h-.14c-2.31-.07-2.62-.24-2.62-1.485v-5.105c0-1.69.24-3.245.62-4.035.725-1.555 2.275-2.625 3.76-2.625.895 0 1.93.485 2.45 1.21.515.76.76 1.795.76 3.45v7.21c-.035.515-.07.725-.21.895-.24.31-.93.45-2.415.485h-.135v1.24h8.725v-1.24h-.135c-2.28-.07-2.59-.24-2.59-1.485v-6.935c0-2.485-.1-3.105-.725-4.275-.86-1.66-2.585-2.66-4.655-2.66-2.245 0-3.935 1.035-5.45 3.315v-2.795M453.506 776.09l-5.93.38v1.485h1.205c1.31.03 1.485.24 1.485 1.725v13.42c0 4.795-.21 7.415-.62 8.9h1.31l1.69-2.69c1.415 1.86 3.035 2.725 5.175 2.725 4.275 0 7.415-3.66 7.415-8.66 0-4.97-2.895-8.455-7.035-8.455-2.105 0-3.38.725-4.695 2.695v-11.525m4.075 10.59c2.585 0 4.035 2.52 4.035 7.04 0 4.38-1.415 6.83-3.935 6.83-2.725 0-4.345-2.52-4.345-6.76 0-4.625 1.485-7.11 4.245-7.11m24.49 3.725c0-2.17-.38-3.275-1.38-4.105-1.14-.93-2.83-1.38-5.035-1.38-3.9 0-6.73 1.83-6.73 4.35 0 1.275.795 2.105 2 2.105 1.105 0 1.865-.725 1.865-1.76 0-.45-.175-.935-.52-1.415-.205-.24-.24-.31-.24-.485 0-.69 1.38-1.31 3.035-1.31 1.105 0 2.315.345 2.865.865.655.55.895 1.38.895 2.93v1.345c-3.585.62-4.725.9-6.415 1.555-3 1.1-4.415 2.69-4.415 4.895 0 2.485 1.93 4.04 5 4.04 2.38 0 4.52-.965 6.005-2.725.55 1.76 1.415 2.45 3.035 2.45 1.555 0 3.175-1.005 3.175-2.005 0-.24-.14-.41-.345-.41-.14 0-.275.03-.52.135-.48.21-.69.24-.965.24-.965 0-1.31-.62-1.31-2.38v-6.935m-3.245 4.21c0 2.07-.1 2.555-.69 3.45-.86 1.28-2.415 2.14-3.93 2.14-1.59 0-2.725-1.14-2.725-2.69 0-1.45.725-2.485 2.24-3.21 1.07-.48 2.415-.825 5.105-1.275v1.585m13.87-18.525-6.385.38v1.485h1.69c1.28.03 1.45.24 1.45 1.725v19.215c-.035.515-.07.725-.205.895-.24.31-.9.45-2.38.485h-.245v1.24h8.94v-1.24h-.245c-2.31-.07-2.62-.24-2.62-1.485v-22.7m10.865 0-6.38.38v1.485h1.69c1.275.03 1.45.24 1.45 1.725v19.215c-.035.515-.07.725-.21.895-.24.31-.895.45-2.38.485h-.24v1.24h8.935v-1.24h-.24c-2.315-.07-2.625-.24-2.625-1.485v-22.7M365.596 797.135l-3.795-8.865c-.138-.345-.207-.52-.207-.69 0-.655.414-.9 1.587-.9h.725v-1.24h-8.211v1.24h.38c1.173.035 1.622.38 2.346 1.865l5.624 12.73-.586 1.205c-1.242 2.625-2.863 4.455-3.967 4.455-.31 0-.552-.14-.552-.345 0-.07.035-.175.069-.315.104-.31.173-.62.173-.895 0-.895-.724-1.55-1.759-1.55-1.207 0-2.07.895-2.07 2.135 0 1.555 1.311 2.66 3.14 2.66 1.829 0 3.381-.9 4.761-2.76 1.07-1.415 1.76-2.865 3.278-6.625l3.933-9.765c.794-2 1.553-2.76 2.898-2.795h.207v-1.24h-6.9v1.24h.552c1.311 0 1.863.38 1.863 1.28 0 .375-.103.79-.345 1.38l-3.139 7.795m15.867-12.215c-4.243 0-7.521 3.76-7.521 8.59 0 4.73 3.312 8.525 7.452 8.525 4.14 0 7.452-3.795 7.452-8.555 0-4.73-3.312-8.56-7.383-8.56m0 1.485c2.415 0 3.761 2.52 3.761 7.075 0 4.585-1.345 7.07-3.829 7.07-2.484 0-3.829-2.485-3.829-7.04 0-4.69 1.311-7.105 3.899-7.105m22.768 15.355 6.28-.245v-1.48h-.86c-2-.07-2.175-.28-2.175-2.52v-12.075l-6.485.38v1.48h1.76c1.31.035 1.48.245 1.48 1.725v4.245c0 3-.72 6.66-4.515 6.66-1.07 0-1.97-.38-2.415-1.07-.45-.655-.52-1-.52-2.9v-10.52l-6.037.38v1.48h1.311c1.311.035 1.484.245 1.484 1.725v7.455c0 1.76.138 2.55.658 3.345.93 1.415 2.585 2.21 4.655 2.21 2.275 0 3.865-.935 5.38-3.14v2.865m13.695-16.32-6.105.38v1.48h1.415c1.31.035 1.485.245 1.485 1.725v9.87c-.035.515-.07.725-.21.895-.24.31-.93.45-2.415.485h-.135v1.24h9.21v-1.24h-.62c-2.31-.07-2.625-.24-2.625-1.485v-1.86c.035-5.8 2.105-10.215 4.8-10.35-.485.55-.625.895-.625 1.55 0 1.105.795 1.9 1.9 1.9 1.275 0 2.105-.935 2.105-2.315 0-1.69-1.175-2.795-3.005-2.795-2.17 0-4.035 1.725-5.175 4.795v-4.275M271.632 785.44l-5.968.38v1.48h1.242c1.311.035 1.484.245 1.484 1.725v16.875c-.034.48-.069.69-.207.86-.241.31-.897.45-2.38.485h-.138v1.24h8.97v-1.24h-.379c-2.311-.07-2.622-.245-2.622-1.485v-6.52c1.139 2 2.415 2.795 4.554 2.795 4.589 0 6.969-4.52 6.969-8.625 0-3.9-2.38-8.49-6.762-8.49-2.139 0-3.553.9-4.761 2.97v-2.45m4.14 1.345c2.381 0 3.761 2.38 3.761 6.415 0 4.45-1.38 6.97-3.864 6.97-2.484 0-4.071-2.55-4.071-6.52 0-4.31 1.553-6.865 4.175-6.865m15.76-10.695-6.382.38v1.485h1.691c1.277.03 1.449.24 1.449 1.725v19.215c-.034.515-.069.725-.207.895-.241.31-.897.45-2.38.485h-.241v1.24h8.936v-1.24h-.241c-2.311-.07-2.622-.24-2.622-1.485v-22.7m19.424 14.315c0-2.17-.379-3.275-1.38-4.105-1.138-.93-2.829-1.38-5.037-1.38-3.898 0-6.727 1.83-6.727 4.35 0 1.275.794 2.105 2.001 2.105 1.104 0 1.863-.725 1.863-1.76 0-.45-.172-.935-.517-1.415-.207-.24-.241-.31-.241-.485 0-.69 1.38-1.31 3.036-1.31 1.104 0 2.312.345 2.864.865.656.55.897 1.38.897 2.93v1.345c-3.588.62-4.726.9-6.417 1.555-3.001 1.1-4.416 2.69-4.416 4.895 0 2.485 1.932 4.04 5.003 4.04 2.381 0 4.52-.965 6.003-2.725.552 1.76 1.415 2.45 3.036 2.45 1.553 0 3.174-1.005 3.174-2.005 0-.24-.138-.41-.345-.41-.138 0-.276.03-.517.135-.483.21-.69.24-.966.24-.966 0-1.311-.62-1.311-2.38v-6.935m-3.243 4.21c0 2.07-.103 2.555-.69 3.45-.862 1.28-2.415 2.14-3.933 2.14-1.587 0-2.725-1.14-2.725-2.69 0-1.45.725-2.485 2.243-3.21 1.07-.48 2.415-.825 5.106-1.275v1.585m15.796 2.52-3.795-8.865c-.138-.345-.207-.52-.207-.69 0-.655.414-.9 1.587-.9h.725v-1.24h-8.211v1.24h.38c1.173.035 1.622.38 2.346 1.865l5.624 12.73-.586 1.205c-1.242 2.625-2.863 4.455-3.967 4.455-.31 0-.552-.14-.552-.345 0-.07.035-.175.069-.315.104-.31.173-.62.173-.895 0-.895-.724-1.55-1.759-1.55-1.207 0-2.07.895-2.07 2.135 0 1.555 1.311 2.66 3.14 2.66 1.829 0 3.381-.9 4.761-2.76 1.07-1.415 1.76-2.865 3.278-6.625l3.933-9.765c.794-2 1.553-2.76 2.898-2.795h.207v-1.24h-6.9v1.24h.552c1.311 0 1.863.38 1.863 1.28 0 .375-.103.79-.345 1.38l-3.139 7.795M312.203 157.588v-6.831h-1.414c-.345 4.485-1.863 6.762-4.657 6.969v1.346h2.829v8.798c0 2.415.069 3.278.414 4.071.552 1.449 1.932 2.243 3.933 2.243 3.105 0 5.106-2.346 5.106-6.003 0-.207 0-.448-.034-.793h-1.449c-.103 3.105-1 4.692-2.691 4.692-.793 0-1.483-.414-1.725-1-.207-.483-.31-1.345-.31-2.587v-9.418h5.072v-1.483h-5.071m13.59-9.349-6.382.38v1.484h1.656c1.311.035 1.484.242 1.484 1.725v19.251c-.034.483-.069.69-.207.863-.241.311-.897.449-2.38.483h-.138v1.242h8.729v-1.242h-.138c-2.311-.069-2.622-.241-2.622-1.483v-5.106c0-1.69.242-3.243.621-4.036.759-1.552 2.277-2.622 3.761-2.622.897 0 1.932.518 2.415 1.208.552.759.794 1.794.794 3.485v7.211c-.034.483-.069.69-.207.863-.241.311-.931.449-2.415.483h-.138v1.242h8.729v-1.242h-.138c-2.277-.069-2.587-.241-2.587-1.483v-6.934c0-2.484-.103-3.105-.724-4.278-.862-1.69-2.587-2.656-4.657-2.656-2.242 0-3.898 1.001-5.451 3.312v-12.144m30.221 17.664c.035-5.175-2.898-8.832-7.107-8.832-4.416 0-7.728 3.83-7.728 9.005 0 4.865 3.14 8.108 7.797 8.108 3.312 0 5.624-1.621 7.038-4.899l-1.207-.655c-1.414 2.657-2.863 3.692-5.175 3.692-1.759 0-3.036-.724-3.933-2.277-.621-1.035-.897-2.242-.862-4.14h11.178m-11.143-1.483c0-2.415 1.104-5.865 4.002-5.865 2.07 0 3.45 1.829 3.45 4.623 0 .966-.31 1.242-1.414 1.242h-6.037m19.182-6.831-6.106.38v1.484h1.415c1.311.035 1.484.242 1.484 1.725v9.867c-.034.518-.069.725-.207.897-.241.311-.931.449-2.415.483h-.138v1.242h9.212v-1.242h-.621c-2.311-.069-2.622-.241-2.622-1.483v-1.863c.034-5.796 2.105-10.212 4.796-10.35-.483.552-.621.897-.621 1.553 0 1.104.794 1.898 1.898 1.898 1.277 0 2.105-.931 2.105-2.311 0-1.69-1.173-2.794-3.001-2.794-2.173 0-4.036 1.725-5.175 4.796v-4.278m24.321 8.315c.034-5.175-2.898-8.832-7.107-8.832-4.416 0-7.728 3.83-7.728 9.005 0 4.865 3.14 8.108 7.797 8.108 3.312 0 5.624-1.621 7.038-4.899l-1.207-.655c-1.414 2.657-2.863 3.692-5.175 3.692-1.759 0-3.036-.724-3.933-2.277-.621-1.035-.897-2.242-.862-4.14h11.178m-11.143-1.483c0-2.415 1.104-5.865 4.002-5.865 2.07 0 3.45 1.829 3.45 4.623 0 .966-.31 1.242-1.414 1.242h-6.037M803.746 785.44l-5.97.38v1.48h1.245c1.31.035 1.48.245 1.48 1.725v16.875c-.03.48-.065.69-.205.86-.24.31-.895.45-2.38.485h-.14v1.24h8.97v-1.24h-.38c-2.31-.07-2.62-.245-2.62-1.485v-6.52c1.14 2 2.415 2.795 4.555 2.795 4.59 0 6.97-4.52 6.97-8.625 0-3.9-2.38-8.49-6.765-8.49-2.14 0-3.55.9-4.76 2.97v-2.45m4.14 1.345c2.38 0 3.76 2.38 3.76 6.415 0 4.45-1.38 6.97-3.865 6.97-2.48 0-4.07-2.55-4.07-6.52 0-4.31 1.555-6.865 4.175-6.865m15.76-10.695-6.38.38v1.485h1.69c1.275.03 1.45.24 1.45 1.725v19.215c-.035.515-.07.725-.21.895-.24.31-.895.45-2.38.485h-.24v1.24h8.935v-1.24h-.24c-2.315-.07-2.625-.24-2.625-1.485v-22.7m19.425 14.315c0-2.17-.38-3.275-1.38-4.105-1.14-.93-2.83-1.38-5.04-1.38-3.895 0-6.725 1.83-6.725 4.35 0 1.275.795 2.105 2 2.105 1.105 0 1.865-.725 1.865-1.76 0-.45-.175-.935-.52-1.415-.205-.24-.24-.31-.24-.485 0-.69 1.38-1.31 3.035-1.31 1.105 0 2.31.345 2.865.865.655.55.895 1.38.895 2.93v1.345c-3.585.62-4.725.9-6.415 1.555-3.005 1.1-4.415 2.69-4.415 4.895 0 2.485 1.93 4.04 5 4.04 2.38 0 4.52-.965 6.005-2.725.55 1.76 1.415 2.45 3.035 2.45 1.55 0 3.175-1.005 3.175-2.005 0-.24-.14-.41-.345-.41-.14 0-.28.03-.52.135-.48.21-.69.24-.965.24-.965 0-1.31-.62-1.31-2.38v-6.935m-3.245 4.21c0 2.07-.105 2.555-.69 3.45-.86 1.28-2.415 2.14-3.93 2.14-1.59 0-2.73-1.14-2.73-2.69 0-1.45.725-2.485 2.245-3.21 1.07-.48 2.415-.825 5.105-1.275v1.585m15.795 2.52-3.795-8.865c-.135-.345-.205-.52-.205-.69 0-.655.415-.9 1.585-.9h.725v-1.24h-8.21v1.24h.38c1.175.035 1.62.38 2.345 1.865l5.625 12.73-.585 1.205c-1.245 2.625-2.865 4.455-3.97 4.455-.31 0-.55-.14-.55-.345 0-.07.035-.175.065-.315.105-.31.175-.62.175-.895 0-.895-.725-1.55-1.76-1.55-1.205 0-2.07.895-2.07 2.135 0 1.555 1.31 2.66 3.14 2.66 1.83 0 3.38-.9 4.76-2.76 1.07-1.415 1.76-2.865 3.28-6.625l3.93-9.765c.795-2 1.555-2.76 2.9-2.795h.205v-1.24h-6.9v1.24h.555c1.31 0 1.86.38 1.86 1.28 0 .375-.1.79-.345 1.38l-3.14 7.795M183.876 776.125h-1.449l-7.935 20.115c-.931 2.69-1.828 3.515-3.795 3.655h-.138v1.62h9.143v-1.62h-.69c-1.863 0-2.794-.655-2.794-1.965 0-.45.104-.865.311-1.45l1.139-3.035h9.143l1.863 4.62c.207.555.276.76.276.935 0 .55-.862.895-2.139.895h-1.449v1.62h10.695v-1.62h-.483c-1.794-.035-2.104-.24-2.898-2.21l-8.797-21.56m-1.69 5.655 3.899 9.8h-7.728l3.83-9.8m20.456 3.66-5.968.38v1.48h1.242c1.311.035 1.484.245 1.484 1.725v9.87c-.034.515-.069.725-.207.895-.241.31-.897.45-2.38.485h-.138v1.24h8.729v-1.24h-.138c-2.311-.07-2.622-.24-2.622-1.485v-5.105c0-1.69.242-3.245.621-4.035.725-1.555 2.277-2.625 3.761-2.625.897 0 1.932.485 2.45 1.21.518.76.759 1.795.759 3.45v7.21c-.034.515-.069.725-.207.895-.241.31-.931.45-2.415.485h-.138v1.24H216.2v-1.24h-.138c-2.277-.07-2.587-.24-2.587-1.485v-6.935c0-2.485-.103-3.105-.724-4.275-.862-1.66-2.587-2.66-4.657-2.66-2.242 0-3.933 1.035-5.451 3.315v-2.795m27.288 16.32 6.003-.245v-1.48h-.621c-1.966-.105-2.139-.315-2.139-2.52v-21.425l-6.762.38v1.485h2.035c1.311.03 1.484.24 1.484 1.725v7.795c-1.276-1.76-2.76-2.555-4.761-2.555-3.898 0-6.865 3.76-6.865 8.73 0 4.9 2.864 8.385 6.866 8.385 2.174 0 3.657-.935 4.761-3.005v2.73m-4.071-14.975c1.415 0 2.76 1.035 3.381 2.62.449 1.035.656 2.45.656 4.14 0 4.04-1.587 6.625-4.071 6.625-2.449 0-3.898-2.275-3.898-6.105 0-2.07.207-3.625.656-4.76.587-1.555 1.863-2.52 3.278-2.52M98.086 776.09l-5.934.38v1.485h1.208c1.311.03 1.484.24 1.484 1.725v13.42c0 4.795-.207 7.415-.621 8.9h1.311l1.691-2.69c1.415 1.86 3.036 2.725 5.175 2.725 4.278 0 7.418-3.66 7.418-8.66 0-4.97-2.898-8.455-7.038-8.455-2.104 0-3.381.725-4.692 2.695v-11.525m4.071 10.59c2.588 0 4.037 2.52 4.037 7.04 0 4.38-1.414 6.83-3.933 6.83-2.725 0-4.347-2.52-4.347-6.76 0-4.625 1.484-7.11 4.244-7.11m17.593-1.76c-4.243 0-7.521 3.76-7.521 8.59 0 4.73 3.312 8.525 7.452 8.525 4.14 0 7.452-3.795 7.452-8.555 0-4.73-3.312-8.56-7.383-8.56m0 1.485c2.415 0 3.761 2.52 3.761 7.075 0 4.585-1.345 7.07-3.829 7.07-2.484 0-3.829-2.485-3.829-7.04 0-4.69 1.311-7.105 3.899-7.105m17.735 10.73-3.795-8.865c-.138-.345-.207-.52-.207-.69 0-.655.414-.9 1.587-.9h.725v-1.24h-8.211v1.24h.38c1.173.035 1.622.38 2.346 1.865l5.624 12.73-.586 1.205c-1.242 2.625-2.863 4.455-3.967 4.455-.31 0-.552-.14-.552-.345 0-.07.035-.175.069-.315.104-.31.173-.62.173-.895 0-.895-.724-1.55-1.759-1.55-1.207 0-2.07.895-2.07 2.135 0 1.555 1.311 2.66 3.14 2.66 1.829 0 3.381-.9 4.761-2.76 1.07-1.415 1.76-2.865 3.278-6.625l3.933-9.765c.794-2 1.553-2.76 2.898-2.795h.207v-1.24h-6.9v1.24h.552c1.311 0 1.863.38 1.863 1.28 0 .375-.103.79-.345 1.38l-3.139 7.795M1075.576 157.209h-1.205l-1 1.242c-1.245-.966-2.485-1.38-4.21-1.38-3.035 0-5.035 1.967-5.035 5.003 0 3.243 2.105 4.071 4.865 4.727l1.825.414c2.725.656 3.695 1.346 3.695 2.726 0 1.622-1.415 2.76-3.42 2.76-2.93 0-5-1.863-5.83-5.313h-1.38v6.521h1.21l1.205-1.414c1.415 1.139 2.97 1.691 4.73 1.691 3.38 0 5.62-2.104 5.62-5.313 0-1.518-.48-2.691-1.445-3.484-.83-.724-1.52-1-3.625-1.449l-1.725-.379c-1.895-.414-1.895-.414-2.52-.759-.755-.345-1.205-1.069-1.205-1.828 0-1.414 1.31-2.38 3.21-2.38 2.825 0 4.205 2.001 5.035 4.416h1.205v-5.796m9.415-8.97-6.38.38v1.484h1.655c1.31.035 1.485.242 1.485 1.725v19.251c-.035.483-.07.69-.21.863-.24.311-.895.449-2.38.483h-.14v1.242h8.73v-1.242h-.135c-2.315-.069-2.625-.241-2.625-1.483v-5.106c0-1.69.24-3.243.62-4.036.76-1.552 2.28-2.622 3.76-2.622.9 0 1.935.518 2.415 1.208.555.759.795 1.794.795 3.485v7.211c-.035.483-.07.69-.205.863-.245.311-.935.449-2.415.483h-.14v1.242h8.73v-1.242h-.14c-2.275-.069-2.585-.241-2.585-1.483v-6.934c0-2.484-.105-3.105-.725-4.278-.865-1.69-2.59-2.656-4.66-2.656-2.24 0-3.895 1.001-5.45 3.312v-12.144m30.22 17.664c.035-5.175-2.895-8.832-7.105-8.832-4.415 0-7.73 3.83-7.73 9.005 0 4.865 3.14 8.108 7.8 8.108 3.31 0 5.62-1.621 7.035-4.899l-1.205-.655c-1.415 2.657-2.865 3.692-5.175 3.692-1.76 0-3.035-.724-3.935-2.277-.62-1.035-.895-2.242-.86-4.14h11.175m-11.14-1.483c0-2.415 1.1-5.865 4-5.865 2.07 0 3.45 1.829 3.45 4.623 0 .966-.31 1.242-1.415 1.242h-6.035M415.666 168.594c-1.105 2.484-2.275 3.485-4.07 3.485-2.76 0-4.485-2.518-4.485-6.555 0-4.209 1.69-6.969 4.245-6.969 1.035 0 1.93.483 1.93 1.035 0 .104-.035.207-.205.414-.555.656-.69 1.001-.69 1.587 0 1.139.86 1.932 2.07 1.932 1.24 0 2.105-.966 2.105-2.346 0-2.346-2.315-4.105-5.385-4.105-4.485 0-7.695 3.657-7.695 8.832 0 4.899 2.935 8.28 7.215 8.28 3.07 0 4.83-1.414 6.31-5.071l-1.345-.517m17.585-6.037c0-2.173-.38-3.277-1.38-4.105-1.135-.931-2.825-1.38-5.035-1.38-3.9 0-6.73 1.829-6.73 4.347 0 1.277.795 2.105 2.005 2.105 1.1 0 1.86-.724 1.86-1.759 0-.448-.17-.931-.515-1.414-.21-.241-.245-.31-.245-.483 0-.69 1.38-1.311 3.04-1.311 1.1 0 2.31.345 2.86.863.655.552.9 1.38.9 2.933v1.346c-3.59.621-4.73.897-6.42 1.553-3 1.104-4.415 2.691-4.415 4.899 0 2.484 1.935 4.037 5.005 4.037 2.38 0 4.52-.966 6-2.725.555 1.76 1.415 2.45 3.035 2.45 1.555 0 3.175-1 3.175-2.001 0-.241-.135-.414-.345-.414-.135 0-.275.035-.515.138-.485.207-.69.242-.965.242-.97 0-1.315-.621-1.315-2.38v-6.934m-3.24 4.209c0 2.07-.105 2.553-.69 3.45-.865 1.277-2.415 2.139-3.935 2.139-1.585 0-2.725-1.138-2.725-2.691 0-1.449.725-2.484 2.245-3.208 1.065-.483 2.415-.828 5.105-1.276v1.587m13.76-9.177-6.14.38v1.484h1.415c1.31.035 1.485.242 1.485 1.725v9.867c-.035.518-.07.725-.21.897-.24.311-.895.449-2.38.483h-.135v1.242h8.695v-1.242h-.14c-2.275-.069-2.59-.241-2.59-1.518v-6.382c0-3.07 1.695-5.347 3.935-5.347 1.965 0 2.965 1.415 2.965 4.209v7.694c-.03.449-.065.69-.24.863-.205.311-.895.449-2.38.483h-.14v1.242h8.73v-1.242h-.135c-2.28-.069-2.59-.241-2.59-1.483v-6.106c0-3.45 1.555-5.658 3.97-5.658 1.965 0 2.93 1.484 2.93 4.589v7.28c-.035.483-.07.725-.24.897-.21.311-.9.449-2.38.483h-.14v1.242h8.73v-1.242h-.14c-2.275-.069-2.585-.241-2.585-1.518v-7.831c0-2.139-.21-2.863-1.105-4.036-1-1.276-2.415-1.966-4.07-1.966-2.245 0-3.9 1.07-5.385 3.45-.585-2.07-2.45-3.45-4.76-3.45-2.105 0-3.62 1.001-4.97 3.174v-2.656m39.775 8.315c.035-5.175-2.9-8.832-7.11-8.832-4.415 0-7.725 3.83-7.725 9.005 0 4.865 3.14 8.108 7.795 8.108 3.315 0 5.625-1.621 7.04-4.899l-1.21-.655c-1.415 2.657-2.86 3.692-5.175 3.692-1.76 0-3.035-.724-3.93-2.277-.62-1.035-.9-2.242-.865-4.14h11.18m-11.145-1.483c0-2.415 1.105-5.865 4.005-5.865 2.07 0 3.45 1.829 3.45 4.623 0 .966-.315 1.242-1.415 1.242h-6.04M900.191 797.135l-3.795-8.865c-.14-.345-.205-.52-.205-.69 0-.655.41-.9 1.585-.9h.725v-1.24h-8.21v1.24h.38c1.17.035 1.62.38 2.345 1.865l5.62 12.73-.585 1.205c-1.24 2.625-2.865 4.455-3.965 4.455-.31 0-.555-.14-.555-.345 0-.07.035-.175.07-.315.105-.31.175-.62.175-.895 0-.895-.725-1.55-1.76-1.55-1.21 0-2.07.895-2.07 2.135 0 1.555 1.31 2.66 3.14 2.66 1.825 0 3.38-.9 4.76-2.76 1.07-1.415 1.76-2.865 3.275-6.625l3.935-9.765c.795-2 1.55-2.76 2.895-2.795h.21v-1.24h-6.9v1.24h.55c1.31 0 1.865.38 1.865 1.28 0 .375-.105.79-.345 1.38l-3.14 7.795m15.865-12.215c-4.24 0-7.52 3.76-7.52 8.59 0 4.73 3.315 8.525 7.455 8.525 4.14 0 7.45-3.795 7.45-8.555 0-4.73-3.31-8.56-7.385-8.56m0 1.485c2.415 0 3.765 2.52 3.765 7.075 0 4.585-1.35 7.07-3.83 7.07-2.485 0-3.83-2.485-3.83-7.04 0-4.69 1.31-7.105 3.895-7.105m22.77 15.355 6.28-.245v-1.48h-.86c-2-.07-2.175-.28-2.175-2.52v-12.075l-6.485.38v1.48h1.76c1.31.035 1.48.245 1.48 1.725v4.245c0 3-.72 6.66-4.515 6.66-1.07 0-1.97-.38-2.415-1.07-.45-.655-.52-1-.52-2.9v-10.52l-6.035.38v1.48h1.31c1.31.035 1.48.245 1.48 1.725v7.455c0 1.76.14 2.55.66 3.345.93 1.415 2.585 2.21 4.655 2.21 2.275 0 3.865-.935 5.38-3.14v2.865m13.695-16.32-6.105.38v1.48h1.415c1.31.035 1.485.245 1.485 1.725v9.87c-.035.515-.07.725-.21.895-.24.31-.93.45-2.415.485h-.135v1.24h9.21v-1.24h-.62c-2.31-.07-2.625-.24-2.625-1.485v-1.86c.035-5.8 2.105-10.215 4.8-10.35-.485.55-.625.895-.625 1.55 0 1.105.795 1.9 1.9 1.9 1.275 0 2.105-.935 2.105-2.315 0-1.69-1.175-2.795-3.005-2.795-2.17 0-4.035 1.725-5.175 4.795v-4.275M1168.446 446.615l-6.38.38v1.485h1.69c1.275.035 1.45.24 1.45 1.725v19.215c-.035.515-.07.725-.21.895-.24.31-.895.45-2.38.485h-.24v1.24h8.935v-1.24h-.24c-2.315-.07-2.625-.24-2.625-1.485v-22.7m9.315.76c-1.105 0-2 .895-2 2 0 1.105.895 2 1.965 2 1.14 0 2.035-.895 2.035-2 0-1.105-.895-2-2-2m1.625 8.59-6.49.38v1.485h1.76c1.31.03 1.485.24 1.485 1.725v9.865c-.035.515-.07.725-.205.895-.245.31-.9.45-2.385.485h-.24v1.24h8.935v-1.24h-.24c-2.31-.07-2.62-.24-2.62-1.485v-13.35m10.45 0v-6.83h-1.415c-.345 4.485-1.86 6.76-4.655 6.97v1.345h2.83v8.795c0 2.415.065 3.28.41 4.07.555 1.45 1.935 2.245 3.935 2.245 3.105 0 5.105-2.345 5.105-6.005 0-.205 0-.445-.035-.79h-1.445c-.105 3.105-1.005 4.69-2.695 4.69-.79 0-1.48-.415-1.725-1-.205-.485-.31-1.345-.31-2.59v-9.415h5.075v-1.485h-5.075m13.415 0v-6.83h-1.415c-.345 4.485-1.86 6.76-4.655 6.97v1.345h2.825v8.795c0 2.415.07 3.28.415 4.07.555 1.45 1.935 2.245 3.935 2.245 3.105 0 5.105-2.345 5.105-6.005 0-.205 0-.445-.035-.79h-1.45c-.1 3.105-1 4.69-2.69 4.69-.795 0-1.485-.415-1.725-1-.205-.485-.31-1.345-.31-2.59v-9.415h5.07v-1.485h-5.07m13.76-9.35-6.385.38v1.485h1.69c1.28.035 1.45.24 1.45 1.725v19.215c-.035.515-.07.725-.205.895-.24.31-.9.45-2.38.485h-.245v1.24h8.94v-1.24h-.245c-2.31-.07-2.62-.24-2.62-1.485v-22.7m19.87 17.665c.035-5.175-2.895-8.835-7.105-8.835-4.415 0-7.73 3.83-7.73 9.005 0 4.865 3.14 8.11 7.8 8.11 3.31 0 5.62-1.62 7.035-4.9l-1.205-.655c-1.415 2.655-2.865 3.69-5.175 3.69-1.76 0-3.04-.725-3.935-2.275-.62-1.035-.895-2.245-.86-4.14h11.175m-11.145-1.485c0-2.415 1.105-5.865 4.005-5.865 2.07 0 3.45 1.83 3.45 4.625 0 .965-.31 1.24-1.415 1.24h-6.04M1038.961 455.965l-5.97.38v1.485h1.24c1.315.03 1.485.24 1.485 1.725v16.87c-.035.48-.07.69-.205.86-.245.31-.9.45-2.38.485h-.14v1.24h8.97v-1.24h-.38c-2.31-.07-2.62-.245-2.62-1.485v-6.52c1.135 2 2.415 2.795 4.555 2.795 4.585 0 6.965-4.52 6.965-8.625 0-3.9-2.38-8.49-6.76-8.49-2.14 0-3.555.9-4.76 2.97v-2.45m4.14 1.345c2.38 0 3.76 2.38 3.76 6.415 0 4.455-1.38 6.97-3.865 6.97-2.485 0-4.07-2.55-4.07-6.52 0-4.31 1.55-6.865 4.175-6.865m15.55-1.345-6.105.38v1.485h1.415c1.31.03 1.485.24 1.485 1.725v9.865c-.035.515-.07.725-.21.895-.24.31-.93.45-2.415.485h-.135v1.24h9.21v-1.24h-.62c-2.31-.07-2.625-.24-2.625-1.485v-1.86c.035-5.8 2.105-10.215 4.8-10.35-.485.55-.625.895-.625 1.55 0 1.105.795 1.9 1.9 1.9 1.275 0 2.105-.935 2.105-2.315 0-1.69-1.175-2.795-3.005-2.795-2.17 0-4.035 1.725-5.175 4.8v-4.28m24.325 8.315c.03-5.175-2.9-8.835-7.11-8.835-4.415 0-7.725 3.83-7.725 9.005 0 4.865 3.135 8.11 7.795 8.11 3.31 0 5.625-1.62 7.04-4.9l-1.21-.655c-1.415 2.655-2.865 3.69-5.175 3.69-1.76 0-3.035-.725-3.935-2.275-.62-1.035-.895-2.245-.86-4.14h11.18m-11.145-1.485c0-2.415 1.105-5.865 4-5.865 2.07 0 3.45 1.83 3.45 4.625 0 .965-.31 1.24-1.415 1.24h-6.035m18.355-6.83v-6.83h-1.415c-.345 4.485-1.86 6.76-4.655 6.97v1.345h2.83v8.795c0 2.415.065 3.28.41 4.07.555 1.45 1.935 2.245 3.935 2.245 3.105 0 5.105-2.345 5.105-6.005 0-.205 0-.445-.035-.79h-1.45c-.1 3.105-1 4.69-2.69 4.69-.79 0-1.48-.415-1.725-1-.205-.485-.31-1.345-.31-2.59v-9.415h5.07v-1.485h-5.07m13.415 0v-6.83h-1.415c-.345 4.485-1.865 6.76-4.655 6.97v1.345h2.825v8.795c0 2.415.07 3.28.415 4.07.555 1.45 1.935 2.245 3.935 2.245 3.105 0 5.105-2.345 5.105-6.005 0-.205 0-.445-.035-.79h-1.45c-.1 3.105-1 4.69-2.69 4.69-.795 0-1.485-.415-1.725-1-.205-.485-.31-1.345-.31-2.59v-9.415h5.07v-1.485h-5.07m17.175 11.695-3.795-8.865c-.14-.345-.21-.52-.21-.69 0-.655.415-.9 1.59-.9h.72v-1.24h-8.21v1.24h.38c1.175.035 1.62.38 2.345 1.865l5.625 12.73-.585 1.21c-1.245 2.62-2.865 4.45-3.97 4.45-.31 0-.55-.14-.55-.345 0-.07.035-.175.07-.31.1-.315.17-.625.17-.9 0-.895-.725-1.55-1.76-1.55-1.205 0-2.07.895-2.07 2.135 0 1.555 1.31 2.66 3.14 2.66 1.83 0 3.38-.9 4.76-2.76 1.07-1.415 1.76-2.865 3.28-6.625l3.93-9.765c.795-2 1.555-2.76 2.9-2.795h.205v-1.24h-6.9v1.24h.555c1.31 0 1.86.38 1.86 1.28 0 .38-.1.79-.345 1.38l-3.135 7.795M546.486 157.588v-6.831h-1.415c-.345 4.485-1.865 6.762-4.66 6.969v1.346h2.83v8.798c0 2.415.07 3.278.415 4.071.55 1.449 1.93 2.243 3.93 2.243 3.105 0 5.11-2.346 5.11-6.003 0-.207 0-.448-.035-.793h-1.45c-.105 3.105-1 4.692-2.69 4.692-.795 0-1.485-.414-1.725-1-.21-.483-.31-1.345-.31-2.587v-9.418h5.07v-1.483h-5.07m13.59-9.349-6.385.38v1.484h1.655c1.31.035 1.485.242 1.485 1.725v19.251c-.035.483-.07.69-.205.863-.245.311-.9.449-2.385.483h-.135v1.242h8.73v-1.242h-.14c-2.31-.069-2.62-.241-2.62-1.483v-5.106c0-1.69.24-3.243.62-4.036.76-1.552 2.275-2.622 3.76-2.622.895 0 1.93.518 2.415 1.208.55.759.795 1.794.795 3.485v7.211c-.035.483-.07.69-.21.863-.24.311-.93.449-2.415.483h-.135v1.242h8.725v-1.242h-.135c-2.28-.069-2.59-.241-2.59-1.483v-6.934c0-2.484-.105-3.105-.725-4.278-.86-1.69-2.585-2.656-4.655-2.656-2.245 0-3.9 1.001-5.45 3.312v-12.144m30.22 17.664c.035-5.175-2.9-8.832-7.11-8.832-4.415 0-7.725 3.83-7.725 9.005 0 4.865 3.14 8.108 7.795 8.108 3.31 0 5.625-1.621 7.04-4.899l-1.21-.655c-1.415 2.657-2.865 3.692-5.175 3.692-1.76 0-3.035-.724-3.93-2.277-.625-1.035-.9-2.242-.865-4.14h11.18m-11.145-1.483c0-2.415 1.105-5.865 4-5.865 2.07 0 3.45 1.829 3.45 4.623 0 .966-.31 1.242-1.415 1.242h-6.035M909.306 467.66l-3.795-8.865c-.14-.345-.205-.52-.205-.69 0-.655.41-.9 1.585-.9h.725v-1.24h-8.21v1.24h.38c1.17.035 1.62.38 2.345 1.865l5.625 12.73-.59 1.21c-1.24 2.62-2.86 4.45-3.965 4.45-.31 0-.555-.14-.555-.345 0-.07.035-.175.07-.31.105-.315.175-.625.175-.9 0-.895-.725-1.55-1.76-1.55-1.21 0-2.07.895-2.07 2.135 0 1.555 1.31 2.66 3.14 2.66 1.825 0 3.38-.9 4.76-2.76 1.07-1.415 1.76-2.865 3.275-6.625l3.935-9.765c.795-2 1.55-2.76 2.9-2.795h.205v-1.24h-6.9v1.24h.55c1.315 0 1.865.38 1.865 1.28 0 .38-.105.79-.345 1.38l-3.14 7.795m15.87-12.215c-4.245 0-7.525 3.765-7.525 8.595 0 4.725 3.315 8.52 7.455 8.52 4.14 0 7.45-3.795 7.45-8.555 0-4.73-3.31-8.56-7.38-8.56m0 1.485c2.415 0 3.76 2.52 3.76 7.075 0 4.585-1.345 7.07-3.83 7.07-2.485 0-3.83-2.485-3.83-7.035 0-4.695 1.31-7.11 3.9-7.11m22.77 15.355 6.275-.245v-1.48h-.86c-2-.07-2.175-.28-2.175-2.52v-12.075l-6.485.38v1.485h1.76c1.31.03 1.485.24 1.485 1.725v4.24c0 3.005-.725 6.66-4.52 6.66-1.07 0-1.97-.38-2.415-1.07-.45-.655-.52-1-.52-2.9v-10.52l-6.035.38v1.485h1.31c1.31.03 1.485.24 1.485 1.725v7.45c0 1.76.135 2.555.655 3.345.93 1.415 2.585 2.21 4.655 2.21 2.28 0 3.865-.93 5.385-3.14v2.865M988.101 776.09l-5.93.38v1.485h1.205c1.31.03 1.485.24 1.485 1.725v13.42c0 4.795-.21 7.415-.62 8.9h1.31l1.69-2.69c1.415 1.86 3.035 2.725 5.175 2.725 4.275 0 7.415-3.66 7.415-8.66 0-4.97-2.895-8.455-7.035-8.455-2.105 0-3.38.725-4.695 2.695v-11.525m4.075 10.59c2.585 0 4.035 2.52 4.035 7.04 0 4.38-1.415 6.83-3.935 6.83-2.725 0-4.345-2.52-4.345-6.76 0-4.625 1.485-7.11 4.245-7.11m24.49 3.725c0-2.17-.38-3.275-1.38-4.105-1.14-.93-2.83-1.38-5.035-1.38-3.9 0-6.73 1.83-6.73 4.35 0 1.275.795 2.105 2 2.105 1.105 0 1.865-.725 1.865-1.76 0-.45-.175-.935-.52-1.415-.205-.24-.24-.31-.24-.485 0-.69 1.38-1.31 3.035-1.31 1.105 0 2.315.345 2.865.865.655.55.895 1.38.895 2.93v1.345c-3.585.62-4.725.9-6.415 1.555-3 1.1-4.415 2.69-4.415 4.895 0 2.485 1.93 4.04 5 4.04 2.38 0 4.52-.965 6.005-2.725.55 1.76 1.415 2.45 3.035 2.45 1.555 0 3.175-1.005 3.175-2.005 0-.24-.14-.41-.345-.41-.14 0-.275.03-.52.135-.48.21-.69.24-.965.24-.965 0-1.31-.62-1.31-2.38v-6.935m-3.245 4.21c0 2.07-.1 2.555-.69 3.45-.86 1.28-2.415 2.14-3.93 2.14-1.59 0-2.725-1.14-2.725-2.69 0-1.45.725-2.485 2.24-3.21 1.07-.48 2.415-.825 5.105-1.275v1.585m13.87-18.525-6.385.38v1.485h1.69c1.28.03 1.45.24 1.45 1.725v19.215c-.035.515-.07.725-.205.895-.24.31-.9.45-2.38.485h-.245v1.24h8.94v-1.24h-.245c-2.31-.07-2.62-.24-2.62-1.485v-22.7m10.865 0-6.38.38v1.485h1.69c1.275.03 1.45.24 1.45 1.725v19.215c-.035.515-.07.725-.21.895-.24.31-.895.45-2.38.485h-.24v1.24h8.935v-1.24h-.24c-2.315-.07-2.625-.24-2.625-1.485v-22.7M985.836 148.273h-1.45l-7.935 20.114c-.93 2.691-1.825 3.519-3.795 3.657h-.135v1.622h9.14v-1.621h-.69c-1.86 0-2.795-.655-2.795-1.966 0-.448.105-.862.31-1.449l1.14-3.036h9.145l1.86 4.623c.21.552.275.759.275.932 0 .552-.86.897-2.135.897h-1.45v1.622h10.695v-1.621h-.485c-1.795-.034-2.105-.241-2.895-2.208l-8.8-21.562m-1.69 5.658 3.9 9.798h-7.73l3.83-9.798m20.455 3.657-5.97.38v1.484h1.245c1.31.035 1.48.242 1.48 1.725v9.867c-.03.518-.065.725-.205.897-.24.311-.895.449-2.38.483h-.14v1.242h8.73v-1.242h-.14c-2.31-.069-2.62-.241-2.62-1.483v-5.106c0-1.69.24-3.243.62-4.036.725-1.552 2.28-2.622 3.76-2.622.9 0 1.935.483 2.45 1.208.52.759.76 1.794.76 3.45v7.211c-.035.518-.07.725-.205.897-.245.311-.935.449-2.415.483h-.14v1.242h8.73v-1.242h-.14c-2.275-.069-2.585-.241-2.585-1.483v-6.934c0-2.484-.105-3.105-.725-4.278-.865-1.656-2.59-2.656-4.66-2.656-2.24 0-3.93 1.035-5.45 3.312v-2.794m27.29 16.319 6-.241v-1.483h-.62c-1.965-.103-2.14-.31-2.14-2.518v-21.424l-6.76.38v1.484h2.035c1.31.035 1.485.242 1.485 1.725v7.797c-1.28-1.759-2.76-2.553-4.765-2.553-3.895 0-6.865 3.761-6.865 8.729 0 4.899 2.865 8.384 6.865 8.384 2.175 0 3.66-.931 4.765-3.001v2.726m-4.075-14.973c1.415 0 2.76 1.035 3.385 2.622.445 1.035.655 2.45.655 4.14 0 4.037-1.59 6.624-4.07 6.624-2.45 0-3.9-2.277-3.9-6.106 0-2.07.205-3.622.655-4.761.585-1.552 1.865-2.518 3.275-2.518M789.551 446.615l-5.935.38v1.485h1.205c1.315.035 1.485.24 1.485 1.725v13.42c0 4.795-.205 7.415-.62 8.9h1.31l1.69-2.69c1.415 1.86 3.035 2.725 5.175 2.725 4.28 0 7.42-3.66 7.42-8.66 0-4.97-2.9-8.455-7.04-8.455-2.105 0-3.38.725-4.69 2.695v-11.525m4.07 10.59c2.585 0 4.035 2.52 4.035 7.04 0 4.38-1.415 6.83-3.93 6.83-2.725 0-4.35-2.52-4.35-6.76 0-4.625 1.485-7.11 4.245-7.11m24.49 3.73c0-2.175-.375-3.28-1.38-4.11-1.135-.93-2.825-1.38-5.035-1.38-3.9 0-6.725 1.83-6.725 4.35 0 1.275.79 2.105 2 2.105 1.105 0 1.86-.725 1.86-1.76 0-.45-.17-.93-.515-1.415-.21-.24-.24-.31-.24-.485 0-.69 1.38-1.31 3.035-1.31 1.105 0 2.31.345 2.86.865.66.55.9 1.38.9 2.93v1.345c-3.59.62-4.725.9-6.42 1.555-3 1.105-4.415 2.69-4.415 4.9 0 2.48 1.935 4.035 5.005 4.035 2.38 0 4.52-.965 6-2.725.555 1.76 1.415 2.45 3.04 2.45 1.55 0 3.17-1 3.17-2.005 0-.24-.135-.41-.345-.41-.135 0-.275.035-.515.135-.485.21-.69.245-.965.245-.97 0-1.315-.625-1.315-2.385v-6.93m-3.24 4.205c0 2.07-.105 2.555-.69 3.45-.865 1.28-2.415 2.14-3.935 2.14-1.585 0-2.725-1.14-2.725-2.69 0-1.45.725-2.485 2.245-3.21 1.07-.48 2.415-.825 5.105-1.275v1.585m20.18 1.83c-1.105 2.485-2.275 3.485-4.07 3.485-2.76 0-4.485-2.52-4.485-6.555 0-4.21 1.69-6.97 4.24-6.97 1.035 0 1.935.485 1.935 1.035 0 .105-.035.21-.21.415-.55.655-.69 1-.69 1.585 0 1.14.865 1.935 2.07 1.935 1.245 0 2.105-.965 2.105-2.345 0-2.35-2.31-4.11-5.38-4.11-4.485 0-7.695 3.66-7.695 8.835 0 4.9 2.935 8.28 7.21 8.28 3.07 0 4.83-1.415 6.315-5.07l-1.345-.52m8.41-3.275v-17.08l-6.38.38v1.485h1.655c1.31.035 1.485.24 1.485 1.725v19.25c-.035.48-.07.69-.21.86-.24.31-.895.45-2.38.485h-.135v1.24h8.725v-1.24h-.135c-2.31-.07-2.625-.24-2.625-1.485v-3.485l2.105-2 4.105 5.76c.175.28.245.45.245.59 0 .48-.38.62-1.52.62h-.655v1.24h9.11v-1.24c-1.935-.175-2.625-.585-4.04-2.38l-4.895-6.695 1.55-1.515c2.035-1.97 3.485-2.725 5.83-3.005v-1.24h-9.075v1.24h1.07c1.105 0 1.625.21 1.625.655 0 .38-.245.795-.795 1.35l-4.66 4.485M700.301 466.97c-1.105 2.485-2.28 3.485-4.075 3.485-2.76 0-4.485-2.52-4.485-6.555 0-4.21 1.69-6.97 4.245-6.97 1.035 0 1.93.485 1.93 1.035 0 .105-.03.21-.205.415-.55.655-.69 1-.69 1.585 0 1.14.865 1.935 2.07 1.935 1.24 0 2.105-.965 2.105-2.345 0-2.35-2.31-4.11-5.38-4.11-4.485 0-7.695 3.66-7.695 8.835 0 4.9 2.93 8.28 7.21 8.28 3.07 0 4.83-1.415 6.315-5.07l-1.345-.52m10.62-11.525c-4.24 0-7.52 3.765-7.52 8.595 0 4.725 3.31 8.52 7.45 8.52 4.14 0 7.455-3.795 7.455-8.555 0-4.73-3.315-8.56-7.385-8.56m0 1.485c2.415 0 3.76 2.52 3.76 7.075 0 4.585-1.345 7.07-3.83 7.07-2.48 0-3.825-2.485-3.825-7.035 0-4.695 1.31-7.11 3.895-7.11m15.49-.965-6.14.38v1.485h1.415c1.31.03 1.485.24 1.485 1.725v9.865c-.035.515-.07.725-.21.895-.24.31-.895.45-2.38.485h-.135v1.24h8.69v-1.24h-.135c-2.28-.07-2.59-.24-2.59-1.52v-6.38c0-3.07 1.69-5.35 3.935-5.35 1.965 0 2.965 1.415 2.965 4.21v7.695c-.035.45-.065.69-.24.86-.205.31-.895.45-2.38.485h-.14v1.24h8.73v-1.24h-.14c-2.275-.07-2.585-.24-2.585-1.485v-6.105c0-3.45 1.55-5.66 3.965-5.66 1.97 0 2.935 1.485 2.935 4.59v7.28c-.035.485-.07.725-.24.895-.21.31-.9.45-2.38.485h-.14v1.24h8.73v-1.24h-.14c-2.275-.07-2.585-.24-2.585-1.52v-7.83c0-2.14-.21-2.865-1.105-4.035-1-1.28-2.415-1.97-4.07-1.97-2.245 0-3.9 1.07-5.385 3.45-.585-2.07-2.45-3.45-4.76-3.45-2.105 0-3.625 1.005-4.97 3.175v-2.655m39.775 8.315c.035-5.175-2.9-8.835-7.11-8.835-4.415 0-7.725 3.83-7.725 9.005 0 4.865 3.14 8.11 7.795 8.11 3.315 0 5.625-1.62 7.04-4.9l-1.21-.655c-1.415 2.655-2.86 3.69-5.175 3.69-1.76 0-3.035-.725-3.93-2.275-.625-1.035-.9-2.245-.865-4.14h11.18m-11.145-1.485c0-2.415 1.105-5.865 4-5.865 2.07 0 3.45 1.83 3.45 4.625 0 .965-.31 1.24-1.41 1.24h-6.04M1087.791 790.405c0-2.17-.38-3.275-1.38-4.105-1.135-.93-2.83-1.38-5.035-1.38-3.9 0-6.73 1.83-6.73 4.35 0 1.275.795 2.105 2.005 2.105 1.1 0 1.86-.725 1.86-1.76 0-.45-.17-.935-.515-1.415-.21-.24-.245-.31-.245-.485 0-.69 1.38-1.31 3.04-1.31 1.1 0 2.31.345 2.86.865.655.55.9 1.38.9 2.93v1.345c-3.59.62-4.73.9-6.42 1.555-3 1.1-4.415 2.69-4.415 4.895 0 2.485 1.93 4.04 5.005 4.04 2.38 0 4.515-.965 6-2.725.555 1.76 1.415 2.45 3.035 2.45 1.555 0 3.175-1.005 3.175-2.005 0-.24-.135-.41-.345-.41-.135 0-.275.03-.515.135-.485.21-.69.24-.97.24-.965 0-1.31-.62-1.31-2.38v-6.935m-3.24 4.21c0 2.07-.105 2.555-.69 3.45-.865 1.28-2.415 2.14-3.935 2.14-1.585 0-2.725-1.14-2.725-2.69 0-1.45.725-2.485 2.24-3.21 1.07-.48 2.415-.825 5.11-1.275v1.585m13.62 4.35c-1.895-.035-2-.07-2.415-.31-.24-.14-.415-.52-.415-.9 0-1.035.935-1.485 3.245-1.55 3.24-.07 3.76-.14 4.935-.655 2.07-.935 3.205-2.73 3.205-5.005 0-1.38-.31-2.24-1.24-3.38.585-.62.895-.83 1.17-.83.175 0 .28.105.345.485.14.825.69 1.275 1.555 1.275.895 0 1.55-.725 1.55-1.655 0-1.175-.93-2-2.275-2-1.105 0-1.725.345-3.31 1.795-1.45-.97-2.555-1.315-4.28-1.315-4.105 0-6.795 2.28-6.795 5.73 0 2.035 1.105 3.76 2.895 4.62-2.31.52-3.275 1.555-3.275 3.45 0 1.52.69 2.415 2.31 2.97-2.14.79-3.175 1.86-3.175 3.275 0 1.035.69 2 1.795 2.59 1.345.69 3 .965 5.485.965 5.765 0 8.625-1.83 8.625-5.45 0-1.725-.79-3.105-2.035-3.625-.93-.345-2.035-.48-4.38-.48h-3.52m2.035-12.56c2.14 0 3.345 1.485 3.345 4.175 0 2.69-1.31 4.31-3.48 4.31-2.14 0-3.485-1.62-3.485-4.205 0-2.725 1.31-4.28 3.62-4.28m-.31 15.525c2.865 0 3.07 0 3.555.07 1.415.135 2.24.895 2.24 2 0 1.965-2.24 3.105-6.07 3.105-2.935 0-4.555-.86-4.555-2.415 0-1.14.62-1.895 2.275-2.76h2.555m25.425-11.525c0-2.17-.375-3.275-1.38-4.105-1.135-.93-2.825-1.38-5.035-1.38-3.9 0-6.725 1.83-6.725 4.35 0 1.275.79 2.105 2 2.105 1.105 0 1.86-.725 1.86-1.76 0-.45-.17-.935-.515-1.415-.21-.24-.24-.31-.24-.485 0-.69 1.38-1.31 3.035-1.31 1.105 0 2.31.345 2.86.865.66.55.9 1.38.9 2.93v1.345c-3.59.62-4.725.9-6.42 1.555-3 1.1-4.415 2.69-4.415 4.895 0 2.485 1.935 4.04 5.005 4.04 2.38 0 4.52-.965 6-2.725.555 1.76 1.415 2.45 3.04 2.45 1.55 0 3.17-1.005 3.17-2.005 0-.24-.135-.41-.345-.41-.135 0-.275.03-.515.135-.485.21-.69.24-.965.24-.97 0-1.315-.62-1.315-2.38v-6.935m-3.24 4.21c0 2.07-.105 2.555-.69 3.45-.865 1.28-2.415 2.14-3.935 2.14-1.585 0-2.725-1.14-2.725-2.69 0-1.45.725-2.485 2.245-3.21 1.07-.48 2.415-.825 5.105-1.275v1.585m12.315-17.765c-1.105 0-2 .895-2 2 0 1.105.895 2 1.965 2 1.14 0 2.035-.895 2.035-2 0-1.105-.895-2-2-2m1.62 8.59-6.485.38v1.48h1.76c1.31.035 1.48.245 1.48 1.725v9.87c-.03.515-.065.725-.205.895-.24.31-.895.45-2.38.485h-.24v1.24h8.935v-1.24h-.245c-2.31-.07-2.62-.24-2.62-1.485v-13.35m10.66 0-5.97.38v1.48h1.245c1.31.035 1.48.245 1.48 1.725v9.87c-.03.515-.065.725-.205.895-.24.31-.895.45-2.38.485h-.14v1.24h8.73v-1.24h-.14c-2.31-.07-2.62-.24-2.62-1.485v-5.105c0-1.69.24-3.245.62-4.035.725-1.555 2.28-2.625 3.76-2.625.9 0 1.935.485 2.45 1.21.52.76.76 1.795.76 3.45v7.21c-.035.515-.07.725-.205.895-.245.31-.935.45-2.415.485h-.14v1.24h8.73v-1.24h-.14c-2.275-.07-2.585-.24-2.585-1.485v-6.935c0-2.485-.105-3.105-.725-4.275-.865-1.66-2.59-2.66-4.66-2.66-2.24 0-3.93 1.035-5.45 3.315v-2.795m18.905 12.245c-1.21 0-2.175.97-2.175 2.14 0 1.21.965 2.175 2.14 2.175 1.21 0 2.175-.965 2.175-2.175 0-1.17-.965-2.14-2.14-2.14M587.161 446.615l-5.935.38v1.485h1.205c1.315.035 1.485.24 1.485 1.725v13.42c0 4.795-.205 7.415-.62 8.9h1.31l1.69-2.69c1.415 1.86 3.035 2.725 5.175 2.725 4.28 0 7.42-3.66 7.42-8.66 0-4.97-2.9-8.455-7.04-8.455-2.105 0-3.38.725-4.69 2.695v-11.525m4.07 10.59c2.585 0 4.035 2.52 4.035 7.04 0 4.38-1.415 6.83-3.93 6.83-2.73 0-4.35-2.52-4.35-6.76 0-4.625 1.485-7.11 4.245-7.11m24.49 3.73c0-2.175-.38-3.28-1.38-4.11-1.135-.93-2.825-1.38-5.035-1.38-3.9 0-6.73 1.83-6.73 4.35 0 1.275.795 2.105 2.005 2.105 1.1 0 1.86-.725 1.86-1.76 0-.45-.17-.93-.515-1.415-.21-.24-.245-.31-.245-.485 0-.69 1.38-1.31 3.04-1.31 1.1 0 2.31.345 2.86.865.655.55.9 1.38.9 2.93v1.345c-3.59.62-4.73.9-6.42 1.555-3 1.105-4.415 2.69-4.415 4.9 0 2.48 1.935 4.035 5.005 4.035 2.38 0 4.52-.965 6-2.725.555 1.76 1.415 2.45 3.035 2.45 1.555 0 3.175-1 3.175-2.005 0-.24-.135-.41-.345-.41-.135 0-.275.035-.515.135-.485.21-.69.245-.965.245-.97 0-1.315-.625-1.315-2.385v-6.93m-3.24 4.205c0 2.07-.105 2.555-.69 3.45-.865 1.28-2.415 2.14-3.935 2.14-1.585 0-2.725-1.14-2.725-2.69 0-1.45.725-2.485 2.245-3.21 1.065-.48 2.415-.825 5.105-1.275v1.585m20.18 1.83c-1.105 2.485-2.28 3.485-4.07 3.485-2.76 0-4.485-2.52-4.485-6.555 0-4.21 1.69-6.97 4.24-6.97 1.035 0 1.935.485 1.935 1.035 0 .105-.035.21-.21.415-.55.655-.69 1-.69 1.585 0 1.14.865 1.935 2.07 1.935 1.245 0 2.105-.965 2.105-2.345 0-2.35-2.31-4.11-5.38-4.11-4.485 0-7.695 3.66-7.695 8.835 0 4.9 2.935 8.28 7.21 8.28 3.07 0 4.83-1.415 6.315-5.07l-1.345-.52m8.41-3.275v-17.08l-6.38.38v1.485h1.655c1.31.035 1.485.24 1.485 1.725v19.25c-.035.48-.07.69-.21.86-.24.31-.895.45-2.38.485h-.135v1.24h8.725v-1.24h-.135c-2.315-.07-2.625-.24-2.625-1.485v-3.485l2.105-2 4.105 5.76c.175.28.245.45.245.59 0 .48-.38.62-1.52.62h-.655v1.24h9.11v-1.24c-1.935-.175-2.625-.585-4.04-2.38l-4.9-6.695 1.555-1.515c2.035-1.97 3.485-2.725 5.83-3.005v-1.24h-9.075v1.24h1.07c1.105 0 1.625.21 1.625.655 0 .38-.245.795-.795 1.35l-4.66 4.485M441.056 446.89h-1.31l-1.38 2.035c-2.52-1.825-3.795-2.31-6.18-2.31-3.275 0-6.07 1.38-8.38 4.14-2.21 2.62-3.245 5.52-3.245 9.075 0 7.45 4.865 12.73 11.66 12.73 5.52 0 9.04-3.245 9.835-9.04l-1.62-.275c-.935 5.14-3.555 7.695-7.8 7.695-5.105 0-7.52-3.52-7.52-10.975 0-3.93.515-6.52 1.69-8.59 1.07-1.93 3.175-3.14 5.415-3.14 2.415 0 4.555 1.28 5.865 3.485.655 1.14 1.14 2.415 1.97 5.14h1.515l-.515-9.97m11.415 8.555c-4.245 0-7.525 3.765-7.525 8.595 0 4.725 3.315 8.52 7.455 8.52 4.14 0 7.45-3.795 7.45-8.555 0-4.73-3.31-8.56-7.38-8.56m0 1.485c2.415 0 3.76 2.52 3.76 7.075 0 4.585-1.345 7.07-3.83 7.07-2.485 0-3.83-2.485-3.83-7.035 0-4.695 1.31-7.11 3.9-7.11m15.49-.965-6.145.38v1.485h1.415c1.315.03 1.485.24 1.485 1.725v9.865c-.035.515-.07.725-.205.895-.245.31-.9.45-2.38.485h-.14v1.24h8.695v-1.24h-.14c-2.275-.07-2.585-.24-2.585-1.52v-6.38c0-3.07 1.69-5.35 3.93-5.35 1.97 0 2.97 1.415 2.97 4.21v7.695c-.035.45-.07.69-.245.86-.205.31-.895.45-2.38.485h-.135v1.24h8.725v-1.24h-.135c-2.28-.07-2.59-.24-2.59-1.485v-6.105c0-3.45 1.555-5.66 3.97-5.66 1.965 0 2.93 1.485 2.93 4.59v7.28c-.035.485-.07.725-.24.895-.205.31-.895.45-2.38.485h-.14v1.24h8.73v-1.24h-.14c-2.275-.07-2.585-.24-2.585-1.52v-7.83c0-2.14-.21-2.865-1.105-4.035-1-1.28-2.415-1.97-4.07-1.97-2.245 0-3.9 1.07-5.385 3.45-.585-2.07-2.445-3.45-4.76-3.45-2.105 0-3.62 1.005-4.965 3.175v-2.655m39.77 8.315c.035-5.175-2.9-8.835-7.105-8.835-4.42 0-7.73 3.83-7.73 9.005 0 4.865 3.14 8.11 7.795 8.11 3.315 0 5.625-1.62 7.04-4.9l-1.205-.655c-1.415 2.655-2.865 3.69-5.175 3.69-1.76 0-3.04-.725-3.935-2.275-.62-1.035-.895-2.245-.865-4.14h11.18m-11.145-1.485c0-2.415 1.105-5.865 4.005-5.865 2.07 0 3.45 1.83 3.45 4.625 0 .965-.31 1.24-1.415 1.24h-6.04M129.167 148.756H108.501l-.517 9.591h1.484c.483-3.484 1.415-7.969 5.831-7.969 1.139 0 1.622.38 1.622 1.242v17.802c0 1.76 0 1.829-.207 2.139-.276.345-.931.483-2.898.483h-.897v1.622h11.834v-1.621h-.897c-1.932 0-2.587-.138-2.863-.483-.207-.31-.207-.379-.207-2.139v-17.802c0-.862.483-1.242 1.622-1.242 4.416 0 5.313 4.52 5.796 7.97h1.484l-.517-9.591m8.585-.517-6.382.38v1.484h1.656c1.311.035 1.484.242 1.484 1.725v19.251c-.034.483-.069.69-.207.863-.241.311-.897.449-2.38.483h-.138v1.242h8.729v-1.242h-.138c-2.311-.069-2.622-.241-2.622-1.483v-5.106c0-1.69.242-3.243.621-4.036.759-1.552 2.277-2.622 3.761-2.622.897 0 1.932.518 2.415 1.208.552.759.794 1.794.794 3.485v7.211c-.034.483-.069.69-.207.863-.241.311-.931.449-2.415.483h-.138v1.242h8.729v-1.242h-.138c-2.277-.069-2.587-.241-2.587-1.483v-6.934c0-2.484-.103-3.105-.724-4.278-.862-1.69-2.587-2.656-4.657-2.656-2.242 0-3.898 1.001-5.451 3.312v-12.144m30.221 17.664c.035-5.175-2.898-8.832-7.107-8.832-4.416 0-7.728 3.83-7.728 9.005 0 4.865 3.14 8.108 7.797 8.108 3.312 0 5.624-1.621 7.038-4.899l-1.207-.655c-1.414 2.657-2.863 3.692-5.175 3.692-1.759 0-3.036-.724-3.933-2.277-.621-1.035-.897-2.242-.862-4.14h11.178m-11.143-1.483c0-2.415 1.104-5.865 4.002-5.865 2.07 0 3.45 1.829 3.45 4.623 0 .966-.31 1.242-1.414 1.242h-6.037m19.251-6.831-5.968.38v1.484h1.242c1.311.035 1.484.242 1.484 1.725v9.867c-.034.518-.069.725-.207.897-.241.311-.897.449-2.38.483h-.138v1.242h8.729v-1.242h-.138c-2.311-.069-2.622-.241-2.622-1.483v-5.106c0-1.69.242-3.243.621-4.036.725-1.552 2.277-2.622 3.761-2.622.897 0 1.932.483 2.45 1.208.518.759.759 1.794.759 3.45v7.211c-.034.518-.069.725-.207.897-.241.311-.931.449-2.415.483h-.138v1.242h8.729v-1.242H189.5c-2.277-.069-2.587-.241-2.587-1.483v-6.934c0-2.484-.103-3.105-.724-4.278-.862-1.656-2.587-2.656-4.657-2.656-2.242 0-3.933 1.035-5.451 3.312v-2.794M1180.561 162.556c0-2.173-.38-3.277-1.38-4.105-1.14-.931-2.83-1.38-5.035-1.38-3.9 0-6.73 1.829-6.73 4.347 0 1.277.795 2.105 2 2.105 1.105 0 1.865-.724 1.865-1.759 0-.448-.17-.931-.515-1.414-.21-.241-.245-.31-.245-.483 0-.69 1.38-1.311 3.035-1.311 1.105 0 2.315.345 2.865.863.655.552.9 1.38.9 2.933v1.346c-3.59.621-4.73.897-6.42 1.553-3 1.104-4.415 2.691-4.415 4.899 0 2.484 1.93 4.037 5 4.037 2.385 0 4.52-.966 6.005-2.725.55 1.76 1.415 2.45 3.035 2.45 1.555 0 3.175-1 3.175-2.001 0-.241-.14-.414-.345-.414-.14 0-.275.035-.515.138-.485.207-.69.242-.97.242-.965 0-1.31-.621-1.31-2.38v-6.934m-3.24 4.209c0 2.07-.105 2.553-.69 3.45-.865 1.277-2.415 2.139-3.935 2.139-1.585 0-2.725-1.138-2.725-2.691 0-1.449.725-2.484 2.24-3.208 1.07-.483 2.415-.828 5.11-1.276v1.587m13.865-18.526-6.385.38v1.484h1.695c1.275.035 1.445.242 1.445 1.725v19.217c-.035.518-.065.725-.205.897-.24.311-.895.449-2.38.483h-.24v1.242h8.935v-1.242h-.245c-2.31-.069-2.62-.241-2.62-1.483v-22.701m10.865 0-6.38.38v1.484h1.69c1.275.035 1.45.242 1.45 1.725v19.217c-.035.518-.07.725-.21.897-.24.311-.895.449-2.38.483h-.24v1.242h8.935v-1.242h-.24c-2.315-.069-2.625-.241-2.625-1.483v-22.701M634.776 148.998c-1.1 0-2 .897-2 2.001 0 1.104.9 2.001 1.965 2.001 1.14 0 2.04-.897 2.04-2.001 0-1.104-.9-2.001-2.005-2.001m1.625 8.591-6.73.38v1.484h2c1.315.035 1.485.242 1.485 1.725v11.696c0 2.795-.17 4.106-.655 5.106-.345.69-1.14 1.208-1.9 1.208-.48 0-.86-.207-.86-.448 0-.138.035-.207.17-.552.175-.345.245-.586.245-.828 0-.862-.83-1.621-1.795-1.621-1.105 0-1.93.863-1.93 2.07 0 1.691 1.55 2.829 3.86 2.829 1.935 0 3.695-.828 4.695-2.242 1.07-1.518 1.415-3.277 1.415-7.176v-13.627m19.11 8.315c.035-5.175-2.9-8.832-7.105-8.832-4.42 0-7.73 3.83-7.73 9.005 0 4.865 3.14 8.108 7.795 8.108 3.315 0 5.625-1.621 7.04-4.899l-1.205-.655c-1.415 2.657-2.865 3.692-5.175 3.692-1.76 0-3.04-.724-3.935-2.277-.62-1.035-.895-2.242-.865-4.14h11.18m-11.145-1.483c0-2.415 1.105-5.865 4.005-5.865 2.07 0 3.45 1.829 3.45 4.623 0 .966-.31 1.242-1.415 1.242h-6.04m30.43 4.796-3.385-8.866c-.1-.241-.135-.448-.135-.724 0-.621.31-.793 1.45-.793h.825v-1.242h-7.725v1.242h.585c1.105.035 1.55.311 1.83 1.277l.275.897-3.035 8.039-3.35-8.659c-.07-.241-.135-.552-.135-.759 0-.586.38-.793 1.415-.793h.62v-1.242h-7.59v1.242h.62c.965.035 1.415.449 1.795 1.691l5.175 13.662h1.205l4.105-10.902 4.21 10.902h1.07l4.83-12.73c.76-2.035 1.275-2.587 2.555-2.622h.24v-1.242h-6.52v1.242h.585c1.21 0 1.69.345 1.69 1.277 0 .345-.1.794-.275 1.242l-2.93 7.866m10.545-12.73h.76l1.07-6.175c.035-.172.035-.379.035-.552 0-.862-.62-1.483-1.485-1.483-.86 0-1.48.621-1.48 1.484 0 .173 0 .345.03.552l1.07 6.176m17.35.725h-1.21l-1 1.242c-1.24-.966-2.485-1.38-4.21-1.38-3.035 0-5.035 1.967-5.035 5.003 0 3.243 2.105 4.071 4.865 4.727l1.83.414c2.725.656 3.69 1.346 3.69 2.726 0 1.622-1.415 2.76-3.415 2.76-2.935 0-5.005-1.863-5.83-5.313h-1.38v6.521h1.205l1.21-1.414c1.415 1.139 2.965 1.691 4.725 1.691 3.38 0 5.625-2.104 5.625-5.313 0-1.518-.485-2.691-1.45-3.484-.83-.724-1.52-1-3.625-1.449l-1.725-.379c-1.895-.414-1.895-.414-2.515-.759-.76-.345-1.21-1.069-1.21-1.828 0-1.414 1.31-2.38 3.21-2.38 2.83 0 4.21 2.001 5.035 4.416h1.21v-5.796M296.98 469.49c-1.897-.035-2.001-.07-2.415-.31-.241-.14-.414-.52-.414-.9 0-1.035.932-1.48 3.243-1.55 3.243-.07 3.761-.14 4.934-.655 2.07-.935 3.209-2.725 3.209-5.005 0-1.38-.31-2.24-1.242-3.38.587-.62.897-.83 1.173-.83.173 0 .276.105.345.485.138.83.69 1.275 1.553 1.275.897 0 1.553-.725 1.553-1.655 0-1.175-.931-2-2.277-2-1.104 0-1.725.345-3.312 1.795-1.449-.97-2.553-1.315-4.278-1.315-4.105 0-6.796 2.28-6.796 5.73 0 2.035 1.104 3.76 2.898 4.62-2.311.52-3.277 1.555-3.277 3.45 0 1.52.69 2.415 2.312 2.97-2.139.795-3.174 1.86-3.174 3.275 0 1.035.69 2.005 1.794 2.59 1.346.69 3.002.965 5.486.965 5.762 0 8.625-1.83 8.625-5.45 0-1.725-.793-3.105-2.035-3.625-.931-.345-2.035-.48-4.381-.48h-3.519m2.035-12.56c2.139 0 3.347 1.485 3.347 4.175 0 2.69-1.311 4.315-3.484 4.315-2.139 0-3.484-1.625-3.484-4.21 0-2.725 1.311-4.28 3.623-4.28m-.31 15.525c2.864 0 3.071 0 3.554.07 1.415.14 2.243.895 2.243 2 0 1.965-2.242 3.105-6.072 3.105-2.932 0-4.554-.86-4.554-2.415 0-1.14.621-1.895 2.277-2.76h2.553m17.727-16.49-6.106.38v1.485h1.415c1.311.03 1.484.24 1.484 1.725v9.865c-.034.515-.069.725-.207.895-.241.31-.931.45-2.415.485h-.138v1.24h9.212v-1.24h-.621c-2.311-.07-2.622-.24-2.622-1.485v-1.86c.035-5.8 2.105-10.215 4.796-10.35-.483.55-.621.895-.621 1.55 0 1.105.794 1.9 1.898 1.9 1.277 0 2.105-.935 2.105-2.315 0-1.69-1.173-2.795-3.001-2.795-2.173 0-4.036 1.725-5.175 4.8v-4.28m24.321 8.315c.035-5.175-2.898-8.835-7.107-8.835-4.416 0-7.728 3.83-7.728 9.005 0 4.865 3.14 8.11 7.797 8.11 3.312 0 5.624-1.62 7.038-4.9l-1.207-.655c-1.414 2.655-2.863 3.69-5.175 3.69-1.759 0-3.036-.725-3.933-2.275-.621-1.035-.897-2.245-.862-4.14h11.178m-11.143-1.485c0-2.415 1.104-5.865 4.002-5.865 2.07 0 3.45 1.83 3.45 4.625 0 .965-.31 1.24-1.414 1.24h-6.037m28.394 1.485c.035-5.175-2.898-8.835-7.107-8.835-4.416 0-7.728 3.83-7.728 9.005 0 4.865 3.14 8.11 7.797 8.11 3.312 0 5.624-1.62 7.038-4.9l-1.207-.655c-1.414 2.655-2.863 3.69-5.175 3.69-1.759 0-3.036-.725-3.933-2.275-.621-1.035-.897-2.245-.862-4.14h11.178m-11.143-1.485c0-2.415 1.104-5.865 4.002-5.865 2.07 0 3.45 1.83 3.45 4.625 0 .965-.31 1.24-1.414 1.24h-6.037m19.251-6.83-5.968.38v1.485h1.242c1.311.03 1.484.24 1.484 1.725v9.865c-.034.515-.069.725-.207.895-.241.31-.897.45-2.38.485h-.138v1.24h8.729v-1.24h-.138c-2.311-.07-2.622-.24-2.622-1.485v-5.105c0-1.69.242-3.245.621-4.035.725-1.555 2.277-2.625 3.761-2.625.897 0 1.932.485 2.45 1.21.518.76.759 1.795.759 3.45v7.21c-.034.515-.069.725-.207.895-.241.31-.931.45-2.415.485h-.138v1.24h8.729v-1.24h-.138c-2.277-.07-2.587-.24-2.587-1.485v-6.935c0-2.48-.103-3.105-.724-4.275-.862-1.655-2.587-2.66-4.657-2.66-2.242 0-3.933 1.035-5.451 3.315v-2.795m18.905 12.245c-1.207 0-2.173.97-2.173 2.14 0 1.21.966 2.175 2.139 2.175 1.208 0 2.174-.965 2.174-2.175 0-1.17-.966-2.14-2.139-2.14M223.363 447.375c-1.104 0-2.001.895-2.001 2 0 1.105.897 2 1.967 2 1.139 0 2.035-.895 2.035-2 0-1.105-.897-2-2.001-2m1.622 8.59-6.486.38v1.485h1.76c1.311.03 1.484.24 1.484 1.725v9.865c-.034.515-.069.725-.207.895-.241.31-.897.45-2.38.485h-.241v1.24h8.936v-1.24h-.241c-2.311-.07-2.622-.24-2.622-1.485v-13.35m10.661 0-5.968.38v1.485h1.242c1.311.03 1.484.24 1.484 1.725v9.865c-.034.515-.069.725-.207.895-.241.31-.897.45-2.38.485h-.138v1.24h8.729v-1.24h-.138c-2.311-.07-2.622-.24-2.622-1.485v-5.105c0-1.69.242-3.245.621-4.035.725-1.555 2.277-2.625 3.761-2.625.897 0 1.932.485 2.45 1.21.518.76.759 1.795.759 3.45v7.21c-.034.515-.069.725-.207.895-.241.31-.931.45-2.415.485h-.138v1.24h8.729v-1.24h-.138c-2.277-.07-2.587-.24-2.587-1.485v-6.935c0-2.48-.103-3.105-.724-4.275-.862-1.655-2.587-2.66-4.657-2.66-2.242 0-3.933 1.035-5.451 3.315v-2.795M71.431 472.285l6.003-.245v-1.48h-.621c-1.966-.105-2.139-.31-2.139-2.52v-21.425l-6.762.38v1.485h2.035c1.311.035 1.484.24 1.484 1.725v7.795c-1.276-1.76-2.76-2.555-4.761-2.555-3.898 0-6.865 3.765-6.865 8.73 0 4.9 2.864 8.385 6.866 8.385 2.174 0 3.657-.93 4.761-3v2.725m-4.071-14.975c1.415 0 2.76 1.035 3.381 2.62.449 1.035.656 2.45.656 4.14 0 4.04-1.587 6.625-4.071 6.625-2.449 0-3.898-2.275-3.898-6.105 0-2.07.207-3.625.656-4.76.587-1.555 1.863-2.52 3.278-2.52m17.589-1.345-6.106.38v1.485h1.415c1.311.03 1.484.24 1.484 1.725v9.865c-.034.515-.069.725-.207.895-.241.31-.931.45-2.415.485H78.98v1.24h9.212v-1.24h-.621c-2.311-.07-2.622-.24-2.622-1.485v-1.86c.035-5.8 2.105-10.215 4.796-10.35-.483.55-.621.895-.621 1.55 0 1.105.794 1.9 1.898 1.9 1.277 0 2.105-.935 2.105-2.315 0-1.69-1.173-2.795-3.001-2.795-2.173 0-4.036 1.725-5.175 4.8v-4.28m24.321 8.315c.035-5.175-2.898-8.835-7.107-8.835-4.416 0-7.728 3.83-7.728 9.005 0 4.865 3.14 8.11 7.797 8.11 3.312 0 5.624-1.62 7.038-4.9l-1.207-.655c-1.414 2.655-2.863 3.69-5.175 3.69-1.759 0-3.036-.725-3.933-2.275-.621-1.035-.897-2.245-.862-4.14h11.178m-11.143-1.485c0-2.415 1.104-5.865 4.002-5.865 2.07 0 3.45 1.83 3.45 4.625 0 .965-.31 1.24-1.414 1.24H98.126m25.666-7.21h-1.207l-1 1.24c-1.242-.965-2.484-1.38-4.209-1.38-3.036 0-5.037 1.97-5.037 5.005 0 3.245 2.105 4.07 4.865 4.725l1.829.415c2.726.655 3.692 1.345 3.692 2.725 0 1.62-1.414 2.76-3.415 2.76-2.932 0-5.002-1.86-5.83-5.31h-1.38v6.52h1.208l1.208-1.415c1.415 1.135 2.967 1.69 4.727 1.69 3.381 0 5.624-2.105 5.624-5.315 0-1.515-.483-2.69-1.449-3.485-.828-.725-1.518-1-3.622-1.445l-1.725-.38c-1.897-.415-1.897-.415-2.518-.76-.759-.345-1.207-1.07-1.207-1.83 0-1.415 1.311-2.38 3.209-2.38 2.829 0 4.209 2 5.037 4.415h1.208v-5.795m15.828 0h-1.207l-1 1.24c-1.242-.965-2.484-1.38-4.209-1.38-3.036 0-5.037 1.97-5.037 5.005 0 3.245 2.105 4.07 4.865 4.725l1.829.415c2.726.655 3.692 1.345 3.692 2.725 0 1.62-1.414 2.76-3.415 2.76-2.932 0-5.002-1.86-5.83-5.31h-1.38v6.52h1.208l1.208-1.415c1.415 1.135 2.967 1.69 4.727 1.69 3.381 0 5.624-2.105 5.624-5.315 0-1.515-.483-2.69-1.449-3.485-.828-.725-1.518-1-3.622-1.445l-1.725-.38c-1.897-.415-1.897-.415-2.518-.76-.759-.345-1.207-1.07-1.207-1.83 0-1.415 1.311-2.38 3.209-2.38 2.829 0 4.209 2 5.037 4.415h1.208v-5.795m18.557 8.695c.035-5.175-2.898-8.835-7.107-8.835-4.416 0-7.728 3.83-7.728 9.005 0 4.865 3.14 8.11 7.797 8.11 3.312 0 5.624-1.62 7.038-4.9l-1.207-.655c-1.414 2.655-2.863 3.69-5.175 3.69-1.759 0-3.036-.725-3.933-2.275-.621-1.035-.897-2.245-.862-4.14h11.178m-11.143-1.485c0-2.415 1.104-5.865 4.002-5.865 2.07 0 3.45 1.83 3.45 4.625 0 .965-.31 1.24-1.414 1.24h-6.037m25.461 9.49 6.003-.245v-1.48h-.621c-1.966-.105-2.139-.31-2.139-2.52v-21.425l-6.762.38v1.485h2.035c1.311.035 1.484.24 1.484 1.725v7.795c-1.276-1.76-2.76-2.555-4.761-2.555-3.898 0-6.865 3.765-6.865 8.73 0 4.9 2.864 8.385 6.866 8.385 2.174 0 3.657-.93 4.761-3v2.725m-4.071-14.975c1.415 0 2.76 1.035 3.381 2.62.449 1.035.656 2.45.656 4.14 0 4.04-1.587 6.625-4.071 6.625-2.449 0-3.898-2.275-3.898-6.105 0-2.07.207-3.625.656-4.76.587-1.555 1.863-2.52 3.278-2.52M765.201 173.907l6-.241v-1.483h-.62c-1.965-.103-2.14-.31-2.14-2.518v-21.424l-6.76.38v1.484h2.035c1.31.035 1.485.242 1.485 1.725v7.797c-1.275-1.759-2.76-2.553-4.76-2.553-3.9 0-6.865 3.761-6.865 8.729 0 4.899 2.86 8.384 6.865 8.384 2.17 0 3.655-.931 4.76-3.001v2.726m-4.07-14.973c1.415 0 2.76 1.035 3.38 2.622.45 1.035.655 2.45.655 4.14 0 4.037-1.585 6.624-4.07 6.624-2.45 0-3.9-2.277-3.9-6.106 0-2.07.205-3.622.655-4.761.585-1.552 1.865-2.518 3.28-2.518m26.21 3.623c0-2.173-.38-3.277-1.38-4.105-1.14-.931-2.83-1.38-5.035-1.38-3.9 0-6.73 1.829-6.73 4.347 0 1.277.795 2.105 2 2.105 1.105 0 1.865-.724 1.865-1.759 0-.448-.175-.931-.52-1.414-.205-.241-.24-.31-.24-.483 0-.69 1.38-1.311 3.035-1.311 1.105 0 2.315.345 2.865.863.655.552.895 1.38.895 2.933v1.346c-3.585.621-4.725.897-6.415 1.553-3 1.104-4.415 2.691-4.415 4.899 0 2.484 1.93 4.037 5 4.037 2.38 0 4.52-.966 6.005-2.725.55 1.76 1.415 2.45 3.035 2.45 1.555 0 3.175-1 3.175-2.001 0-.241-.14-.414-.345-.414-.14 0-.275.035-.52.138-.48.207-.69.242-.965.242-.965 0-1.31-.621-1.31-2.38v-6.934m-3.245 4.209c0 2.07-.1 2.553-.69 3.45-.86 1.277-2.415 2.139-3.93 2.139-1.59 0-2.725-1.138-2.725-2.691 0-1.449.725-2.484 2.24-3.208 1.07-.483 2.415-.828 5.105-1.276v1.587m21.045 7.142 6.28-.241v-1.483h-.865c-2-.069-2.175-.276-2.175-2.518v-12.075l-6.485.38v1.484h1.76c1.31.035 1.485.242 1.485 1.725v4.244c0 3.002-.725 6.659-4.52 6.659-1.07 0-1.965-.379-2.415-1.069-.45-.655-.52-1-.52-2.898v-10.522l-6.035.38v1.484h1.31c1.31.035 1.485.242 1.485 1.725v7.452c0 1.76.135 2.553.655 3.347.93 1.415 2.585 2.208 4.655 2.208 2.28 0 3.865-.931 5.385-3.139v2.864m13.555-2.794c-1.895-.034-2-.069-2.415-.31-.24-.138-.415-.517-.415-.897 0-1.035.935-1.483 3.245-1.552 3.24-.069 3.76-.138 4.935-.655 2.07-.931 3.205-2.725 3.205-5.002 0-1.38-.31-2.242-1.24-3.381.585-.621.895-.828 1.17-.828.175 0 .28.104.345.483.14.828.69 1.277 1.555 1.277.895 0 1.55-.724 1.55-1.656 0-1.173-.93-2.001-2.275-2.001-1.105 0-1.725.345-3.31 1.794-1.45-.966-2.555-1.311-4.28-1.311-4.105 0-6.795 2.277-6.795 5.727 0 2.035 1.105 3.761 2.895 4.623-2.31.518-3.275 1.553-3.275 3.45 0 1.518.69 2.415 2.31 2.967-2.14.794-3.175 1.863-3.175 3.278 0 1.035.69 2.001 1.795 2.588 1.345.69 3 .966 5.485.966 5.765 0 8.625-1.828 8.625-5.451 0-1.725-.79-3.105-2.035-3.622-.93-.345-2.035-.483-4.38-.483h-3.52m2.035-12.558c2.14 0 3.345 1.484 3.345 4.175 0 2.691-1.31 4.313-3.48 4.313-2.14 0-3.485-1.621-3.485-4.209 0-2.725 1.31-4.278 3.62-4.278m-.31 15.525c2.865 0 3.07 0 3.555.069 1.415.138 2.24.897 2.24 2.001 0 1.967-2.24 3.105-6.07 3.105-2.935 0-4.555-.862-4.555-2.415 0-1.138.62-1.897 2.275-2.76h2.555m16.595-25.84-6.385.38v1.484h1.655c1.31.035 1.485.242 1.485 1.725v19.251c-.035.483-.07.69-.205.863-.245.311-.9.449-2.385.483h-.135v1.242h8.73v-1.242h-.14c-2.31-.069-2.62-.241-2.62-1.483v-5.106c0-1.69.24-3.243.62-4.036.76-1.552 2.275-2.622 3.76-2.622.895 0 1.93.518 2.415 1.208.55.759.795 1.794.795 3.485v7.211c-.035.483-.07.69-.21.863-.24.311-.93.449-2.415.483h-.135v1.242h8.725v-1.242h-.135c-2.28-.069-2.59-.241-2.59-1.483v-6.934c0-2.484-.105-3.105-.725-4.278-.86-1.69-2.585-2.656-4.655-2.656-2.245 0-3.9 1.001-5.45 3.312v-12.144m20.87 9.35v-6.831h-1.415c-.345 4.485-1.865 6.762-4.66 6.969v1.346h2.83v8.798c0 2.415.07 3.278.415 4.071.55 1.449 1.93 2.243 3.935 2.243 3.105 0 5.105-2.346 5.105-6.003 0-.207 0-.448-.035-.793h-1.45c-.105 3.105-1 4.692-2.69 4.692-.795 0-1.485-.414-1.725-1-.21-.483-.31-1.345-.31-2.587v-9.418h5.07v-1.483h-5.07m23.005 8.315c.035-5.175-2.9-8.832-7.105-8.832-4.42 0-7.73 3.83-7.73 9.005 0 4.865 3.14 8.108 7.795 8.108 3.315 0 5.625-1.621 7.04-4.899l-1.21-.655c-1.41 2.657-2.86 3.692-5.175 3.692-1.755 0-3.035-.724-3.93-2.277-.62-1.035-.9-2.242-.865-4.14h11.18m-11.145-1.483c0-2.415 1.105-5.865 4.005-5.865 2.07 0 3.45 1.829 3.45 4.623 0 .966-.31 1.242-1.415 1.242h-6.04m19.185-6.831-6.11.38v1.484h1.415c1.31.035 1.485.242 1.485 1.725v9.867c-.035.518-.07.725-.205.897-.245.311-.935.449-2.415.483h-.14v1.242h9.21v-1.242h-.62c-2.31-.069-2.62-.241-2.62-1.483v-1.863c.035-5.796 2.105-10.212 4.795-10.35-.485.552-.62.897-.62 1.553 0 1.104.79 1.898 1.895 1.898 1.275 0 2.105-.931 2.105-2.311 0-1.69-1.175-2.794-3-2.794-2.175 0-4.04 1.725-5.175 4.796v-4.278" stroke-width=".5"/>
	<path d="M133.642 353.2c0 1.389 1.091 2.48 2.48 2.48 1.389 0 2.48-1.091 2.48-2.48 0-1.389-1.091-2.48-2.48-2.48-1.389 0-2.48 1.091-2.48 2.48M452.446 340.8c0 1.389 1.091 2.48 2.48 2.48 1.389 0 2.48-1.091 2.48-2.48 0-1.389-1.091-2.48-2.48-2.48-1.389 0-2.48 1.091-2.48 2.48M457.771 39.275c0 1.389 1.091 2.48 2.48 2.48 1.389 0 2.48-1.091 2.48-2.48 0-1.389-1.091-2.48-2.48-2.48-1.389 0-2.48 1.091-2.48 2.48" stroke-width=".496"/>
</svg>
