<?xml version="1.0" encoding="utf-8"?>
<!DOCTYPE score-partwise PUBLIC "-//Recordare//DTD MusicXML 4.0 Partwise//EN" "http://www.musicxml.org/dtds/partwise.dtd">
<score-partwise version="4.0">
	<work>
		<work-title>Little Harry Hughes Excerpt 1</work-title>
	</work>
	<identification>
		<encoding>
			<software>MuseScore 4.2.1</software>
			<encoding-date>2024-04-24</encoding-date>
			<supports element="accidental" type="yes"/>
			<supports element="beam" type="yes"/>
			<supports attribute="new-page" element="print" type="no"/>
			<supports attribute="new-system" element="print" type="no"/>
			<supports element="stem" type="yes"/>
		</encoding>
	</identification>
	<defaults>
		<scaling>
			<millimeters>6.99912</millimeters>
			<tenths>40</tenths>
		</scaling>
		<page-layout>
			<page-height>1696.93</page-height>
			<page-width>1200.48</page-width>
			<page-margins type="even">
				<left-margin>85.725</left-margin>
				<right-margin>85.725</right-margin>
				<top-margin>85.725</top-margin>
				<bottom-margin>85.725</bottom-margin>
			</page-margins>
			<page-margins type="odd">
				<left-margin>85.725</left-margin>
				<right-margin>85.725</right-margin>
				<top-margin>85.725</top-margin>
				<bottom-margin>85.725</bottom-margin>
			</page-margins>
		</page-layout>
		<appearance>
			<line-width type="light barline">1.8</line-width>
			<line-width type="heavy barline">5.5</line-width>
			<line-width type="beam">5</line-width>
			<line-width type="bracket">4.5</line-width>
			<line-width type="dashes">1</line-width>
			<line-width type="enclosure">1</line-width>
			<line-width type="ending">1.1</line-width>
			<line-width type="extend">1</line-width>
			<line-width type="leger">1.6</line-width>
			<line-width type="pedal">1.1</line-width>
			<line-width type="octave shift">1.1</line-width>
			<line-width type="slur middle">2.1</line-width>
			<line-width type="slur tip">0.5</line-width>
			<line-width type="staff">1.1</line-width>
			<line-width type="stem">1</line-width>
			<line-width type="tie middle">2.1</line-width>
			<line-width type="tie tip">0.5</line-width>
			<line-width type="tuplet bracket">1</line-width>
			<line-width type="wedge">1.2</line-width>
			<note-size type="cue">70</note-size>
			<note-size type="grace">70</note-size>
			<note-size type="grace-cue">49</note-size>
		</appearance>
		<music-font font-family="Leland"/>
		<word-font font-family="Edwin" font-size="10"/>
		<lyric-font font-family="Edwin" font-size="10"/>
	</defaults>
	<part-list>
		<score-part id="P1">
			<part-name>Baritone</part-name>
			<part-abbreviation>Bar.</part-abbreviation>
			<score-instrument id="P1-I1">
				<instrument-name>Baritone</instrument-name>
				<instrument-sound>voice.baritone</instrument-sound>
			</score-instrument>
			<midi-device id="P1-I1" port="1"/>
			<midi-instrument id="P1-I1">
				<midi-channel>1</midi-channel>
				<midi-program>53</midi-program>
				<volume>78.7402</volume>
				<pan>0</pan>
			</midi-instrument>
		</score-part>
	</part-list>
	<part id="P1">
		<measure number="1" width="580.17">
			<print>
				<system-layout>
					<system-margins>
						<left-margin>0.00</left-margin>
						<right-margin>0.00</right-margin>
					</system-margins>
					<top-system-distance>70.00</top-system-distance>
				</system-layout>
			</print>
			<attributes>
				<divisions>2</divisions>
				<key>
					<fifths>2</fifths>
				</key>
				<time symbol="common">
					<beats>4</beats>
					<beat-type>4</beat-type>
				</time>
				<clef>
					<sign>F</sign>
					<line>4</line>
				</clef>
			</attributes>
			<note default-x="113.30" default-y="-10.00">
				<pitch>
					<step>F</step>
					<alter>1</alter>
					<octave>3</octave>
				</pitch>
				<duration>1</duration>
				<voice>1</voice>
				<type>eighth</type>
				<stem>up</stem>
				<beam number="1">begin</beam>
				<notations>
					<slur number="1" orientation="over" placement="above" type="start"/>
				</notations>
				<lyric default-y="-69.03" number="2" relative-y="-30.00">
					<syllabic>single</syllabic>
					<text font-size="12">Little</text>
				</lyric>
			</note>
			<note default-x="175.31" default-y="-10.00">
				<pitch>
					<step>F</step>
					<alter>1</alter>
					<octave>3</octave>
				</pitch>
				<duration>1</duration>
				<voice>1</voice>
				<type>eighth</type>
				<stem>up</stem>
				<beam number="1">end</beam>
			</note>
			<note default-x="237.32" default-y="-15.00">
				<pitch>
					<step>E</step>
					<octave>3</octave>
				</pitch>
				<duration>1</duration>
				<voice>1</voice>
				<type>eighth</type>
				<stem>up</stem>
				<beam number="1">begin</beam>
				<lyric default-y="-69.03" number="2" relative-y="-30.00">
					<syllabic>single</syllabic>
					<text font-size="12">Harry</text>
				</lyric>
			</note>
			<note default-x="299.32" default-y="-15.00">
				<pitch>
					<step>E</step>
					<octave>3</octave>
				</pitch>
				<duration>1</duration>
				<voice>1</voice>
				<type>eighth</type>
				<stem>up</stem>
				<beam number="1">end</beam>
			</note>
			<note default-x="361.33" default-y="-20.00">
				<pitch>
					<step>D</step>
					<octave>3</octave>
				</pitch>
				<duration>2</duration>
				<voice>1</voice>
				<type>quarter</type>
				<stem>up</stem>
				<lyric default-x="6.50" default-y="-69.03" number="2" relative-x="8.00" relative-y="-30.00">
					<syllabic>single</syllabic>
					<text font-size="12">Hughes</text>
				</lyric>
			</note>
			<note default-x="454.35" default-y="-20.00">
				<pitch>
					<step>D</step>
					<octave>3</octave>
				</pitch>
				<duration>1</duration>
				<voice>1</voice>
				<type>eighth</type>
				<stem>up</stem>
				<beam number="1">begin</beam>
				<lyric default-x="6.50" default-y="-69.03" number="2" relative-y="-30.00">
					<syllabic>single</syllabic>
					<text font-size="12">and</text>
				</lyric>
			</note>
			<note default-x="516.36" default-y="-20.00">
				<pitch>
					<step>D</step>
					<octave>3</octave>
				</pitch>
				<duration>1</duration>
				<voice>1</voice>
				<type>eighth</type>
				<stem>up</stem>
				<beam number="1">end</beam>
				<lyric default-x="6.50" default-y="-69.03" number="2" relative-y="-30.00">
					<syllabic>single</syllabic>
					<text font-size="12">his</text>
				</lyric>
			</note>
		</measure>
		<measure number="2" width="448.87">
			<note default-x="13.00" default-y="-15.00">
				<pitch>
					<step>E</step>
					<octave>3</octave>
				</pitch>
				<duration>1</duration>
				<voice>1</voice>
				<type>eighth</type>
				<stem>up</stem>
				<beam number="1">begin</beam>
				<lyric default-y="-69.03" number="2" relative-y="-30.00">
					<syllabic>single</syllabic>
					<text font-size="12">school</text>
				</lyric>
			</note>
			<note default-x="75.01" default-y="-10.00">
				<pitch>
					<step>F</step>
					<alter>1</alter>
					<octave>3</octave>
				</pitch>
				<duration>1</duration>
				<voice>1</voice>
				<type>eighth</type>
				<stem>up</stem>
				<beam number="1">continue</beam>
			</note>
			<note default-x="137.02" default-y="-20.00">
				<pitch>
					<step>D</step>
					<octave>3</octave>
				</pitch>
				<duration>1</duration>
				<voice>1</voice>
				<type>eighth</type>
				<stem>up</stem>
				<beam number="1">continue</beam>
				<lyric default-y="-69.03" number="2" relative-x="-7.00" relative-y="-30.00">
					<syllabic>single</syllabic>
					<text font-size="12">fellows</text>
				</lyric>
			</note>
			<note default-x="199.03" default-y="-35.00">
				<pitch>
					<step>A</step>
					<octave>2</octave>
				</pitch>
				<duration>1</duration>
				<voice>1</voice>
				<type>eighth</type>
				<stem>up</stem>
				<beam number="1">end</beam>
			</note>
			<note default-x="261.04" default-y="-30.00">
				<pitch>
					<step>B</step>
					<octave>2</octave>
				</pitch>
				<duration>2</duration>
				<voice>1</voice>
				<type>quarter</type>
				<stem>up</stem>
				<notations>
					<slur number="1" type="stop"/>
					<articulations>
						<breath-mark>comma</breath-mark>
					</articulations>
				</notations>
				<lyric default-x="6.50" default-y="-69.03" number="2" relative-y="-30.00">
					<syllabic>single</syllabic>
					<text font-size="12">all</text>
				</lyric>
			</note>
			<note default-x="354.05" default-y="5.00">
				<pitch>
					<step>B</step>
					<octave>3</octave>
				</pitch>
				<duration>2</duration>
				<voice>1</voice>
				<type>quarter</type>
				<stem>down</stem>
				<notations>
					<slur number="1" type="start"/>
				</notations>
				<lyric default-x="6.50" default-y="-69.03" number="2" relative-y="-30.00">
					<syllabic>single</syllabic>
					<text font-size="12">Went</text>
				</lyric>
			</note>
		</measure>
		<measure number="3" width="361.66">
			<note default-x="89.78" default-y="0.00">
				<pitch>
					<step>A</step>
					<octave>3</octave>
				</pitch>
				<duration>1</duration>
				<voice>1</voice>
				<type>eighth</type>
				<stem>down</stem>
				<beam number="1">begin</beam>
				<lyric default-x="6.50" default-y="-69.03" number="2" relative-x="11.00" relative-y="-30.00">
					<syllabic>single</syllabic>
					<text font-size="12">out</text>
				</lyric>
			</note>
			<note default-x="125.79" default-y="5.00">
				<pitch>
					<step>B</step>
					<octave>3</octave>
				</pitch>
				<duration>1</duration>
				<voice>1</voice>
				<type>eighth</type>
				<stem>down</stem>
				<beam number="1">continue</beam>
			</note>
			<note default-x="161.80" default-y="-5.00">
				<pitch>
					<step>G</step>
					<octave>3</octave>
				</pitch>
				<duration>1</duration>
				<voice>1</voice>
				<type>eighth</type>
				<stem>down</stem>
				<beam number="1">continue</beam>
				<lyric default-x="6.50" default-y="-69.03" number="2" relative-x="9.98" relative-y="-30.00">
					<syllabic>single</syllabic>
					<text font-size="12">for</text>
				</lyric>
			</note>
			<note default-x="197.81" default-y="-15.00">
				<pitch>
					<step>E</step>
					<octave>3</octave>
				</pitch>
				<duration>1</duration>
				<voice>1</voice>
				<type>eighth</type>
				<stem>down</stem>
				<beam number="1">end</beam>
			</note>
			<note default-x="233.82" default-y="-5.00">
				<pitch>
					<step>G</step>
					<octave>3</octave>
				</pitch>
				<duration>2</duration>
				<voice>1</voice>
				<type>quarter</type>
				<stem>down</stem>
				<lyric default-x="6.50" default-y="-69.03" number="2" relative-y="-30.00">
					<syllabic>single</syllabic>
					<text font-size="12">to</text>
				</lyric>
			</note>
			<note default-x="287.84" default-y="-15.00">
				<pitch>
					<step>E</step>
					<octave>3</octave>
				</pitch>
				<duration>1</duration>
				<voice>1</voice>
				<type>eighth</type>
				<stem>down</stem>
				<beam number="1">begin</beam>
				<lyric default-x="6.50" default-y="-69.03" number="2" relative-x="16.00" relative-y="-30.00">
					<syllabic>single</syllabic>
					<text font-size="12">play</text>
				</lyric>
			</note>
			<note default-x="323.85" default-y="-20.00">
				<pitch>
					<step>D</step>
					<octave>3</octave>
				</pitch>
				<duration>1</duration>
				<voice>1</voice>
				<type>eighth</type>
				<stem>down</stem>
				<beam number="1">end</beam>
			</note>
		</measure>
		<measure number="4" width="203.86">
			<note default-x="13.00" default-y="-20.00">
				<pitch>
					<step>D</step>
					<octave>3</octave>
				</pitch>
				<duration>4</duration>
				<voice>1</voice>
				<type>half</type>
				<stem>down</stem>
				<notations>
					<slur number="2" type="start"/>
				</notations>
				<lyric default-x="9.00" default-y="-69.03" number="2" relative-x="12.00" relative-y="-30.00">
					<syllabic>single</syllabic>
					<text font-size="12">ball.</text>
				</lyric>
			</note>
			<note default-x="94.02" default-y="15.00">
				<pitch>
					<step>D</step>
					<octave>4</octave>
				</pitch>
				<duration>2</duration>
				<voice>1</voice>
				<type>quarter</type>
				<stem>down</stem>
				<notations>
					<slur number="1" type="stop"/>
					<slur number="2" type="stop"/>
					<articulations>
						<breath-mark>comma</breath-mark>
					</articulations>
				</notations>
			</note>
			<note default-x="148.04" default-y="5.00">
				<pitch>
					<step>B</step>
					<octave>3</octave>
				</pitch>
				<duration>2</duration>
				<voice>1</voice>
				<type>quarter</type>
				<stem>down</stem>
				<notations>
					<slur number="1" type="start"/>
				</notations>
				<lyric default-x="6.50" default-y="-69.03" number="2" relative-y="-30.00">
					<syllabic>single</syllabic>
					<text font-size="12">Went</text>
				</lyric>
			</note>
		</measure>
		<measure number="5" width="269.88">
			<note default-x="13.00" default-y="0.00">
				<pitch>
					<step>A</step>
					<octave>3</octave>
				</pitch>
				<duration>1</duration>
				<voice>1</voice>
				<type>eighth</type>
				<stem>down</stem>
				<beam number="1">begin</beam>
				<lyric default-y="-69.03" number="2" relative-y="-30.00">
					<syllabic>single</syllabic>
					<text font-size="12">out</text>
				</lyric>
			</note>
			<note default-x="47.01" default-y="5.00">
				<pitch>
					<step>B</step>
					<octave>3</octave>
				</pitch>
				<duration>1</duration>
				<voice>1</voice>
				<type>eighth</type>
				<stem>down</stem>
				<beam number="1">continue</beam>
			</note>
			<note default-x="81.02" default-y="-5.00">
				<pitch>
					<step>G</step>
					<octave>3</octave>
				</pitch>
				<duration>1</duration>
				<voice>1</voice>
				<type>eighth</type>
				<stem>down</stem>
				<beam number="1">continue</beam>
				<lyric default-y="-69.03" number="2" relative-y="-30.00">
					<syllabic>single</syllabic>
					<text font-size="12">for</text>
				</lyric>
			</note>
			<note default-x="115.03" default-y="-15.00">
				<pitch>
					<step>E</step>
					<octave>3</octave>
				</pitch>
				<duration>1</duration>
				<voice>1</voice>
				<type>eighth</type>
				<stem>down</stem>
				<beam number="1">end</beam>
			</note>
			<note default-x="149.04" default-y="-5.00">
				<pitch>
					<step>G</step>
					<octave>3</octave>
				</pitch>
				<duration>2</duration>
				<voice>1</voice>
				<type>quarter</type>
				<stem>down</stem>
				<lyric default-x="6.50" default-y="-69.03" number="2" relative-y="-30.00">
					<syllabic>single</syllabic>
					<text font-size="12">to</text>
				</lyric>
			</note>
			<note default-x="200.06" default-y="-15.00">
				<pitch>
					<step>E</step>
					<octave>3</octave>
				</pitch>
				<duration>1</duration>
				<voice>1</voice>
				<type>eighth</type>
				<stem>down</stem>
				<beam number="1">begin</beam>
				<lyric default-y="-69.03" number="2" relative-y="-30.00">
					<syllabic>single</syllabic>
					<text font-size="12">play</text>
				</lyric>
			</note>
			<note default-x="234.07" default-y="-20.00">
				<pitch>
					<step>D</step>
					<octave>3</octave>
				</pitch>
				<duration>1</duration>
				<voice>1</voice>
				<type>eighth</type>
				<stem>down</stem>
				<beam number="1">end</beam>
			</note>
		</measure>
		<measure number="6" width="193.64">
			<note default-x="16.63" default-y="-20.00">
				<pitch>
					<step>D</step>
					<octave>3</octave>
				</pitch>
				<duration>4</duration>
				<voice>1</voice>
				<type>half</type>
				<stem>down</stem>
				<notations>
					<slur number="1" type="stop"/>
					<articulations>
						<breath-mark>comma</breath-mark>
					</articulations>
				</notations>
				<lyric default-x="9.00" default-y="-69.03" number="2" relative-y="-30.00">
					<syllabic>single</syllabic>
					<text font-size="12">ball.</text>
				</lyric>
			</note>
			<note default-x="93.15" default-y="10.00">
				<pitch>
					<step>C</step>
					<octave>4</octave>
				</pitch>
				<duration>3</duration>
				<voice>1</voice>
				<type>quarter</type>
				<dot/>
				<accidental>natural</accidental>
				<stem>down</stem>
				<notations>
					<slur number="1" type="start"/>
					<articulations>
						<accent/>
					</articulations>
				</notations>
				<lyric default-x="6.50" default-y="-69.03" number="2" relative-y="-30.00">
					<syllabic>single</syllabic>
					<text font-size="12">And</text>
				</lyric>
			</note>
			<note default-x="157.83" default-y="5.00">
				<pitch>
					<step>B</step>
					<octave>3</octave>
				</pitch>
				<duration>1</duration>
				<voice>1</voice>
				<type>eighth</type>
				<stem>down</stem>
				<lyric default-x="6.50" default-y="-69.03" number="2" relative-y="-30.00">
					<syllabic>single</syllabic>
					<text font-size="12">the</text>
				</lyric>
			</note>
		</measure>
		<measure number="7" width="395.36">
			<note default-x="89.78" default-y="0.00">
				<pitch>
					<step>A</step>
					<octave>3</octave>
				</pitch>
				<duration>1</duration>
				<voice>1</voice>
				<type>eighth</type>
				<stem>down</stem>
				<beam number="1">begin</beam>
				<lyric default-x="6.50" default-y="-69.03" number="2" relative-x="15.00" relative-y="-30.00">
					<syllabic>single</syllabic>
					<text font-size="12">very</text>
				</lyric>
			</note>
			<note default-x="130.28" default-y="-5.00">
				<pitch>
					<step>G</step>
					<octave>3</octave>
				</pitch>
				<duration>1</duration>
				<voice>1</voice>
				<type>eighth</type>
				<stem>down</stem>
				<beam number="1">continue</beam>
			</note>
			<note default-x="170.79" default-y="-10.00">
				<pitch>
					<step>F</step>
					<alter>1</alter>
					<octave>3</octave>
				</pitch>
				<duration>1</duration>
				<voice>1</voice>
				<type>eighth</type>
				<stem>down</stem>
				<beam number="1">continue</beam>
				<lyric default-x="6.50" default-y="-69.03" number="2" relative-x="12.00" relative-y="-30.00">
					<syllabic>single</syllabic>
					<text font-size="12">first</text>
				</lyric>
			</note>
			<note default-x="211.29" default-y="-15.00">
				<pitch>
					<step>E</step>
					<octave>3</octave>
				</pitch>
				<duration>1</duration>
				<voice>1</voice>
				<type>eighth</type>
				<stem>down</stem>
				<beam number="1">end</beam>
			</note>
			<note default-x="251.79" default-y="-20.00">
				<pitch>
					<step>D</step>
					<octave>3</octave>
				</pitch>
				<duration>2</duration>
				<voice>1</voice>
				<type>quarter</type>
				<stem>down</stem>
				<notations>
					<slur number="1" type="stop"/>
				</notations>
				<lyric default-x="6.50" default-y="-69.03" number="2" relative-y="-30.00">
					<syllabic>single</syllabic>
					<text font-size="12">ball</text>
				</lyric>
			</note>
			<note default-x="312.55" default-y="-20.00">
				<pitch>
					<step>D</step>
					<octave>3</octave>
				</pitch>
				<duration>1</duration>
				<voice>1</voice>
				<type>eighth</type>
				<stem>down</stem>
				<beam number="1">begin</beam>
				<notations>
					<slur number="1" type="start"/>
				</notations>
				<lyric default-x="6.50" default-y="-69.03" number="2" relative-x="18.00" relative-y="-30.00">
					<syllabic>single</syllabic>
					<text font-size="12">little</text>
				</lyric>
			</note>
			<note default-x="353.05" default-y="-20.00">
				<pitch>
					<step>D</step>
					<octave>3</octave>
				</pitch>
				<duration>1</duration>
				<voice>1</voice>
				<type>eighth</type>
				<stem>down</stem>
				<beam number="1">end</beam>
			</note>
		</measure>
		<measure number="8" width="355.03">
			<note default-x="13.00" default-y="-15.00">
				<pitch>
					<step>E</step>
					<octave>3</octave>
				</pitch>
				<duration>1</duration>
				<voice>1</voice>
				<type>eighth</type>
				<stem>up</stem>
				<beam number="1">begin</beam>
				<lyric default-x="6.50" default-y="-69.03" number="2" relative-x="19.00" relative-y="-30.00">
					<syllabic>single</syllabic>
					<text font-size="12">Harry</text>
				</lyric>
			</note>
			<note default-x="61.60" default-y="-10.00">
				<pitch>
					<step>F</step>
					<alter>1</alter>
					<octave>3</octave>
				</pitch>
				<duration>1</duration>
				<voice>1</voice>
				<type>eighth</type>
				<stem>up</stem>
				<beam number="1">continue</beam>
			</note>
			<note default-x="110.21" default-y="-20.00">
				<pitch>
					<step>D</step>
					<octave>3</octave>
				</pitch>
				<duration>1</duration>
				<voice>1</voice>
				<type>eighth</type>
				<stem>up</stem>
				<beam number="1">continue</beam>
				<lyric default-x="6.50" default-y="-69.03" number="2" relative-x="9.00" relative-y="-30.00">
					<syllabic>single</syllabic>
					<text font-size="12">Hughes</text>
				</lyric>
			</note>
			<note default-x="158.81" default-y="-35.00">
				<pitch>
					<step>A</step>
					<octave>2</octave>
				</pitch>
				<duration>1</duration>
				<voice>1</voice>
				<type>eighth</type>
				<stem>up</stem>
				<beam number="1">end</beam>
			</note>
			<note default-x="207.42" default-y="-30.00">
				<pitch>
					<step>B</step>
					<octave>2</octave>
				</pitch>
				<duration>2</duration>
				<voice>1</voice>
				<type>quarter</type>
				<stem>up</stem>
				<notations>
					<slur number="1" type="stop"/>
					<articulations>
						<breath-mark>comma</breath-mark>
					</articulations>
				</notations>
				<lyric default-x="6.50" default-y="-69.03" number="2" relative-y="-30.00">
					<syllabic>single</syllabic>
					<text font-size="12">played</text>
				</lyric>
			</note>
			<note default-x="280.32" default-y="5.00">
				<pitch>
					<step>B</step>
					<octave>3</octave>
				</pitch>
				<duration>2</duration>
				<voice>1</voice>
				<type>quarter</type>
				<stem>down</stem>
				<notations>
					<slur number="1" type="start"/>
				</notations>
				<lyric default-x="6.50" default-y="-69.03" number="2" relative-y="-30.00">
					<syllabic>single</syllabic>
					<text font-size="12">He</text>
				</lyric>
			</note>
		</measure>
		<measure number="9" width="278.65">
			<note default-x="25.72" default-y="0.00">
				<pitch>
					<step>A</step>
					<octave>3</octave>
				</pitch>
				<duration>1</duration>
				<voice>1</voice>
				<type>eighth</type>
				<stem>down</stem>
				<beam number="1">begin</beam>
				<lyric default-x="6.50" default-y="-69.03" number="2" relative-y="-30.00">
					<syllabic>single</syllabic>
					<text font-size="12">drove</text>
				</lyric>
			</note>
			<note default-x="88.50" default-y="5.00">
				<pitch>
					<step>B</step>
					<octave>3</octave>
				</pitch>
				<duration>1</duration>
				<voice>1</voice>
				<type>eighth</type>
				<stem>down</stem>
				<beam number="1">continue</beam>
				<lyric default-x="6.50" default-y="-69.03" number="2" relative-y="-30.00">
					<syllabic>single</syllabic>
					<text font-size="12">it</text>
				</lyric>
			</note>
			<note default-x="151.28" default-y="-5.00">
				<pitch>
					<step>G</step>
					<octave>3</octave>
				</pitch>
				<duration>1</duration>
				<voice>1</voice>
				<type>eighth</type>
				<stem>down</stem>
				<beam number="1">continue</beam>
				<lyric default-x="6.50" default-y="-69.03" number="2" relative-y="-30.00">
					<syllabic>single</syllabic>
					<text font-size="12">o'er</text>
				</lyric>
			</note>
			<note default-x="214.06" default-y="-15.00">
				<pitch>
					<step>E</step>
					<octave>3</octave>
				</pitch>
				<duration>1</duration>
				<voice>1</voice>
				<type>eighth</type>
				<stem>down</stem>
				<beam number="1">end</beam>
				<lyric default-x="6.50" default-y="-69.03" number="2" relative-y="-30.00">
					<syllabic>single</syllabic>
					<text font-size="12">the</text>
				</lyric>
			</note>
		</measure>
		<measure number="10" width="262.91">
			<note default-x="89.78" default-y="-5.00">
				<pitch>
					<step>G</step>
					<octave>3</octave>
				</pitch>
				<duration>2</duration>
				<voice>1</voice>
				<type>quarter</type>
				<stem>down</stem>
				<lyric default-x="6.50" default-y="-69.03" number="2" relative-y="-30.00">
					<syllabic>single</syllabic>
					<text font-size="12">jew's</text>
				</lyric>
			</note>
			<note default-x="163.21" default-y="-15.00">
				<pitch>
					<step>E</step>
					<octave>3</octave>
				</pitch>
				<duration>1</duration>
				<voice>1</voice>
				<type>eighth</type>
				<stem>down</stem>
				<beam number="1">begin</beam>
				<lyric default-y="-69.03" number="2" relative-y="-30.00">
					<syllabic>single</syllabic>
					<text font-size="12">garden</text>
				</lyric>
			</note>
			<note default-x="212.16" default-y="-20.00">
				<pitch>
					<step>D</step>
					<octave>3</octave>
				</pitch>
				<duration>1</duration>
				<voice>1</voice>
				<type>eighth</type>
				<stem>down</stem>
				<beam number="1">end</beam>
			</note>
		</measure>
		<measure number="11" width="261.52">
			<note default-x="13.00" default-y="-20.00">
				<pitch>
					<step>D</step>
					<octave>3</octave>
				</pitch>
				<duration>4</duration>
				<voice>1</voice>
				<type>half</type>
				<stem>down</stem>
				<notations>
					<slur number="2" type="start"/>
				</notations>
				<lyric default-x="0.36" default-y="-69.03" number="2" relative-y="-30.00">
					<syllabic>single</syllabic>
					<text font-size="12">wall.</text>
				</lyric>
			</note>
			<note default-x="118.74" default-y="15.00">
				<pitch>
					<step>D</step>
					<octave>4</octave>
				</pitch>
				<duration>2</duration>
				<voice>1</voice>
				<type>quarter</type>
				<stem>down</stem>
				<notations>
					<slur number="1" type="stop"/>
					<slur number="2" type="stop"/>
				</notations>
			</note>
			<note default-x="189.23" default-y="5.00">
				<pitch>
					<step>B</step>
					<octave>3</octave>
				</pitch>
				<duration>2</duration>
				<voice>1</voice>
				<type>quarter</type>
				<stem>down</stem>
				<notations>
					<slur number="1" type="start"/>
				</notations>
				<lyric default-x="6.50" default-y="-69.03" number="2" relative-y="-30.00">
					<syllabic>single</syllabic>
					<text font-size="12">He</text>
				</lyric>
			</note>
		</measure>
		<measure number="12" width="356.13">
			<note default-x="25.72" default-y="0.00">
				<pitch>
					<step>A</step>
					<octave>3</octave>
				</pitch>
				<duration>1</duration>
				<voice>1</voice>
				<type>eighth</type>
				<stem>down</stem>
				<beam number="1">begin</beam>
				<lyric default-x="6.50" default-y="-69.03" number="2" relative-y="-30.00">
					<syllabic>single</syllabic>
					<text font-size="12">drove</text>
				</lyric>
			</note>
			<note default-x="68.80" default-y="5.00">
				<pitch>
					<step>B</step>
					<octave>3</octave>
				</pitch>
				<duration>1</duration>
				<voice>1</voice>
				<type>eighth</type>
				<stem>down</stem>
				<beam number="1">continue</beam>
				<lyric default-x="6.50" default-y="-69.03" number="2" relative-y="-30.00">
					<syllabic>single</syllabic>
					<text font-size="12">it</text>
				</lyric>
			</note>
			<note default-x="111.88" default-y="-5.00">
				<pitch>
					<step>G</step>
					<octave>3</octave>
				</pitch>
				<duration>1</duration>
				<voice>1</voice>
				<type>eighth</type>
				<stem>down</stem>
				<beam number="1">continue</beam>
				<lyric default-x="6.50" default-y="-69.03" number="2" relative-y="-30.00">
					<syllabic>single</syllabic>
					<text font-size="12">o'er</text>
				</lyric>
			</note>
			<note default-x="154.96" default-y="-15.00">
				<pitch>
					<step>E</step>
					<octave>3</octave>
				</pitch>
				<duration>1</duration>
				<voice>1</voice>
				<type>eighth</type>
				<stem>down</stem>
				<beam number="1">end</beam>
				<lyric default-x="6.50" default-y="-69.03" number="2" relative-y="-30.00">
					<syllabic>single</syllabic>
					<text font-size="12">the</text>
				</lyric>
			</note>
			<note default-x="203.55" default-y="-5.00">
				<pitch>
					<step>G</step>
					<octave>3</octave>
				</pitch>
				<duration>2</duration>
				<voice>1</voice>
				<type>quarter</type>
				<stem>down</stem>
				<lyric default-x="6.50" default-y="-69.03" number="2" relative-y="-30.00">
					<syllabic>single</syllabic>
					<text font-size="12">jew's</text>
				</lyric>
			</note>
			<note default-x="268.17" default-y="-15.00">
				<pitch>
					<step>E</step>
					<octave>3</octave>
				</pitch>
				<duration>1</duration>
				<voice>1</voice>
				<type>eighth</type>
				<stem>down</stem>
				<beam number="1">begin</beam>
				<lyric default-y="-69.03" number="2" relative-y="-30.00">
					<syllabic>single</syllabic>
					<text font-size="12">garden</text>
				</lyric>
			</note>
			<note default-x="311.25" default-y="-20.00">
				<pitch>
					<step>D</step>
					<octave>3</octave>
				</pitch>
				<duration>1</duration>
				<voice>1</voice>
				<type>eighth</type>
				<stem>down</stem>
				<beam number="1">end</beam>
			</note>
		</measure>
		<measure number="13" width="148.47">
			<note default-x="18.90" default-y="-20.00">
				<pitch>
					<step>D</step>
					<octave>3</octave>
				</pitch>
				<duration>4</duration>
				<voice>1</voice>
				<type>half</type>
				<stem>down</stem>
				<notations>
					<slur number="1" type="stop"/>
				</notations>
				<lyric default-x="9.33" default-y="-69.03" number="2" relative-y="-30.00">
					<syllabic>single</syllabic>
					<text font-size="12">wall.</text>
				</lyric>
			</note>
		</measure>
		<measure number="14" width="258.99">
			<note default-x="89.78" default-y="10.00">
				<pitch>
					<step>C</step>
					<alter>1</alter>
					<octave>4</octave>
				</pitch>
				<duration>3</duration>
				<voice>1</voice>
				<type>quarter</type>
				<dot/>
				<stem>down</stem>
				<notations>
					<slur number="1" type="start"/>
					<slur number="2" type="start"/>
					<articulations>
						<accent/>
					</articulations>
				</notations>
				<lyric default-x="6.50" default-y="-69.03" number="2" relative-y="-30.00">
					<syllabic>single</syllabic>
					<text font-size="12">And</text>
				</lyric>
			</note>
			<note default-x="199.49" default-y="5.00">
				<pitch>
					<step>B</step>
					<octave>3</octave>
				</pitch>
				<duration>1</duration>
				<voice>1</voice>
				<type>eighth</type>
				<stem>down</stem>
				<lyric default-x="6.50" default-y="-69.03" number="2" relative-y="-30.00">
					<syllabic>single</syllabic>
					<text font-size="12">the</text>
				</lyric>
			</note>
		</measure>
		<measure number="15" width="392.70">
			<note default-x="19.99" default-y="0.00">
				<pitch>
					<step>A</step>
					<octave>3</octave>
				</pitch>
				<duration>1</duration>
				<voice>1</voice>
				<type>eighth</type>
				<stem>down</stem>
				<beam number="1">begin</beam>
				<lyric default-x="6.50" default-y="-69.03" number="2" relative-y="-30.00">
					<syllabic>single</syllabic>
					<text font-size="12">very</text>
				</lyric>
			</note>
			<note default-x="69.44" default-y="-5.00">
				<pitch>
					<step>G</step>
					<octave>3</octave>
				</pitch>
				<duration>1</duration>
				<voice>1</voice>
				<type>eighth</type>
				<stem>down</stem>
				<beam number="1">continue</beam>
			</note>
			<note default-x="118.90" default-y="-10.00">
				<pitch>
					<step>F</step>
					<alter>1</alter>
					<octave>3</octave>
				</pitch>
				<duration>1</duration>
				<voice>1</voice>
				<type>eighth</type>
				<stem>down</stem>
				<beam number="1">continue</beam>
				<lyric default-x="6.50" default-y="-69.03" number="2" relative-y="-30.00">
					<syllabic>single</syllabic>
					<text font-size="12">second</text>
				</lyric>
			</note>
			<note default-x="168.35" default-y="-15.00">
				<pitch>
					<step>E</step>
					<octave>3</octave>
				</pitch>
				<duration>1</duration>
				<voice>1</voice>
				<type>eighth</type>
				<stem>down</stem>
				<beam number="1">end</beam>
			</note>
			<note default-x="217.81" default-y="-20.00">
				<pitch>
					<step>D</step>
					<octave>3</octave>
				</pitch>
				<duration>2</duration>
				<voice>1</voice>
				<type>quarter</type>
				<stem>down</stem>
				<notations>
					<slur number="1" type="stop"/>
					<slur number="2" type="stop"/>
				</notations>
				<lyric default-x="6.50" default-y="-69.03" number="2" relative-y="-30.00">
					<syllabic>single</syllabic>
					<text font-size="12">ball</text>
				</lyric>
			</note>
			<note default-x="291.99" default-y="-20.00">
				<pitch>
					<step>D</step>
					<octave>3</octave>
				</pitch>
				<duration>1</duration>
				<voice>1</voice>
				<type>eighth</type>
				<stem>down</stem>
				<beam number="1">begin</beam>
				<notations>
					<slur number="1" type="start"/>
				</notations>
				<lyric default-x="6.50" default-y="-69.03" number="2" relative-x="18.00" relative-y="-30.00">
					<syllabic>single</syllabic>
					<text font-size="12">little</text>
				</lyric>
			</note>
			<note default-x="341.45" default-y="-20.00">
				<pitch>
					<step>D</step>
					<octave>3</octave>
				</pitch>
				<duration>1</duration>
				<voice>1</voice>
				<type>eighth</type>
				<stem>down</stem>
				<beam number="1">end</beam>
			</note>
		</measure>
		<measure number="16" width="377.34">
			<note default-x="29.36" default-y="-15.00">
				<pitch>
					<step>E</step>
					<octave>3</octave>
				</pitch>
				<duration>1</duration>
				<voice>1</voice>
				<type>eighth</type>
				<stem>up</stem>
				<beam number="1">begin</beam>
				<lyric default-x="6.50" default-y="-69.03" number="2" relative-y="-30.00">
					<syllabic>single</syllabic>
					<text font-size="12">Harry</text>
				</lyric>
			</note>
			<note default-x="78.81" default-y="-10.00">
				<pitch>
					<step>F</step>
					<alter>1</alter>
					<octave>3</octave>
				</pitch>
				<duration>1</duration>
				<voice>1</voice>
				<type>eighth</type>
				<stem>up</stem>
				<beam number="1">continue</beam>
			</note>
			<note default-x="128.27" default-y="-20.00">
				<pitch>
					<step>D</step>
					<octave>3</octave>
				</pitch>
				<duration>1</duration>
				<voice>1</voice>
				<type>eighth</type>
				<stem>up</stem>
				<beam number="1">continue</beam>
				<lyric default-x="6.50" default-y="-69.03" number="2" relative-y="-30.00">
					<syllabic>single</syllabic>
					<text font-size="12">Hughes</text>
				</lyric>
			</note>
			<note default-x="177.72" default-y="-35.00">
				<pitch>
					<step>A</step>
					<octave>2</octave>
				</pitch>
				<duration>1</duration>
				<voice>1</voice>
				<type>eighth</type>
				<stem>up</stem>
				<beam number="1">end</beam>
			</note>
			<note default-x="227.18" default-y="-30.00">
				<pitch>
					<step>B</step>
					<octave>2</octave>
				</pitch>
				<duration>2</duration>
				<voice>1</voice>
				<type>quarter</type>
				<stem>up</stem>
				<notations>
					<slur number="1" type="stop"/>
				</notations>
				<lyric default-x="6.50" default-y="-69.03" number="2" relative-y="-30.00">
					<syllabic>single</syllabic>
					<text font-size="12">played</text>
				</lyric>
			</note>
			<note default-x="301.36" default-y="5.00">
				<pitch>
					<step>B</step>
					<octave>3</octave>
				</pitch>
				<duration>2</duration>
				<voice>1</voice>
				<type>quarter</type>
				<stem>down</stem>
				<notations>
					<slur number="1" type="start"/>
				</notations>
				<lyric default-x="6.50" default-y="-69.03" number="2" relative-x="10.00" relative-y="-30.00">
					<syllabic>single</syllabic>
					<text font-size="12">He</text>
				</lyric>
			</note>
		</measure>
		<measure number="17" width="433.91">
			<note default-x="89.78" default-y="0.00">
				<pitch>
					<step>A</step>
					<octave>3</octave>
				</pitch>
				<duration>1</duration>
				<voice>1</voice>
				<type>eighth</type>
				<stem>down</stem>
				<beam number="1">begin</beam>
				<lyric default-x="6.50" default-y="-69.03" number="2" relative-y="-30.00">
					<syllabic>single</syllabic>
					<text font-size="12">broke</text>
				</lyric>
			</note>
			<note default-x="135.42" default-y="5.00">
				<pitch>
					<step>B</step>
					<octave>3</octave>
				</pitch>
				<duration>1</duration>
				<voice>1</voice>
				<type>eighth</type>
				<stem>down</stem>
				<beam number="1">continue</beam>
				<lyric default-y="-69.03" number="2" relative-y="-30.00">
					<syllabic>single</syllabic>
					<text font-size="12">the</text>
				</lyric>
			</note>
			<note default-x="181.07" default-y="-5.00">
				<pitch>
					<step>G</step>
					<octave>3</octave>
				</pitch>
				<duration>1</duration>
				<voice>1</voice>
				<type>eighth</type>
				<stem>down</stem>
				<beam number="1">continue</beam>
				<lyric default-y="-69.03" number="2" relative-y="-30.00">
					<syllabic>single</syllabic>
					<text font-size="12">jew's</text>
				</lyric>
			</note>
			<note default-x="226.71" default-y="-15.00">
				<pitch>
					<step>E</step>
					<octave>3</octave>
				</pitch>
				<duration>1</duration>
				<voice>1</voice>
				<type>eighth</type>
				<stem>down</stem>
				<beam number="1">end</beam>
			</note>
			<note default-x="272.36" default-y="-5.00">
				<pitch>
					<step>G</step>
					<octave>3</octave>
				</pitch>
				<duration>2</duration>
				<voice>1</voice>
				<type>quarter</type>
				<stem>down</stem>
				<lyric default-y="-69.03" number="2" relative-y="-30.00">
					<syllabic>single</syllabic>
					<text font-size="12">windows</text>
				</lyric>
			</note>
			<note default-x="340.82" default-y="-15.00">
				<pitch>
					<step>E</step>
					<octave>3</octave>
				</pitch>
				<duration>1</duration>
				<voice>1</voice>
				<type>eighth</type>
				<stem>down</stem>
				<beam number="1">begin</beam>
			</note>
			<note default-x="386.47" default-y="-20.00">
				<pitch>
					<step>D</step>
					<octave>3</octave>
				</pitch>
				<duration>1</duration>
				<voice>1</voice>
				<type>eighth</type>
				<stem>down</stem>
				<beam number="1">end</beam>
			</note>
		</measure>
		<measure number="18" width="153.53">
			<note default-x="13.00" default-y="-20.00">
				<pitch>
					<step>D</step>
					<octave>3</octave>
				</pitch>
				<duration>4</duration>
				<voice>1</voice>
				<type>half</type>
				<stem>down</stem>
				<notations>
					<slur number="2" type="start"/>
				</notations>
				<lyric default-x="9.43" default-y="-69.03" number="2" relative-y="-30.00">
					<syllabic>single</syllabic>
					<text font-size="12">all.</text>
				</lyric>
			</note>
			<note default-x="72.46" default-y="15.00">
				<pitch>
					<step>D</step>
					<octave>4</octave>
				</pitch>
				<duration>2</duration>
				<voice>1</voice>
				<type>quarter</type>
				<stem>down</stem>
				<notations>
					<slur number="1" type="stop"/>
					<slur number="2" type="stop"/>
				</notations>
			</note>
			<note default-x="112.10" default-y="5.00">
				<pitch>
					<step>B</step>
					<octave>3</octave>
				</pitch>
				<duration>2</duration>
				<voice>1</voice>
				<type>quarter</type>
				<stem>down</stem>
				<notations>
					<slur number="1" type="start"/>
				</notations>
				<lyric default-x="6.50" default-y="-69.03" number="2" relative-y="-30.00">
					<syllabic>single</syllabic>
					<text font-size="12">He</text>
				</lyric>
			</note>
		</measure>
		<measure number="19" width="352.72">
			<note default-x="26.61" default-y="0.00">
				<pitch>
					<step>A</step>
					<octave>3</octave>
				</pitch>
				<duration>1</duration>
				<voice>1</voice>
				<type>eighth</type>
				<stem>down</stem>
				<beam number="1">begin</beam>
				<lyric default-x="6.50" default-y="-69.03" number="2" relative-y="-30.00">
					<syllabic>single</syllabic>
					<text font-size="12">broke</text>
				</lyric>
			</note>
			<note default-x="69.85" default-y="5.00">
				<pitch>
					<step>B</step>
					<octave>3</octave>
				</pitch>
				<duration>1</duration>
				<voice>1</voice>
				<type>eighth</type>
				<stem>down</stem>
				<beam number="1">continue</beam>
				<lyric default-y="-69.03" number="2" relative-y="-30.00">
					<syllabic>single</syllabic>
					<text font-size="12">the</text>
				</lyric>
			</note>
			<note default-x="113.09" default-y="-5.00">
				<pitch>
					<step>G</step>
					<octave>3</octave>
				</pitch>
				<duration>1</duration>
				<voice>1</voice>
				<type>eighth</type>
				<stem>down</stem>
				<beam number="1">continue</beam>
				<lyric default-y="-69.03" number="2" relative-y="-30.00">
					<syllabic>single</syllabic>
					<text font-size="12">jew's</text>
				</lyric>
			</note>
			<note default-x="156.33" default-y="-15.00">
				<pitch>
					<step>E</step>
					<octave>3</octave>
				</pitch>
				<duration>1</duration>
				<voice>1</voice>
				<type>eighth</type>
				<stem>down</stem>
				<beam number="1">end</beam>
			</note>
			<note default-x="199.58" default-y="-5.00">
				<pitch>
					<step>G</step>
					<octave>3</octave>
				</pitch>
				<duration>2</duration>
				<voice>1</voice>
				<type>quarter</type>
				<stem>down</stem>
				<lyric default-y="-69.03" number="2" relative-y="-30.00">
					<syllabic>single</syllabic>
					<text font-size="12">windows</text>
				</lyric>
			</note>
			<note default-x="264.44" default-y="-15.00">
				<pitch>
					<step>E</step>
					<octave>3</octave>
				</pitch>
				<duration>1</duration>
				<voice>1</voice>
				<type>eighth</type>
				<stem>down</stem>
				<beam number="1">begin</beam>
			</note>
			<note default-x="307.68" default-y="-20.00">
				<pitch>
					<step>D</step>
					<octave>3</octave>
				</pitch>
				<duration>1</duration>
				<voice>1</voice>
				<type>eighth</type>
				<stem>down</stem>
				<beam number="1">end</beam>
			</note>
		</measure>
		<measure number="20" width="88.86">
			<note default-x="13.00" default-y="-20.00">
				<pitch>
					<step>D</step>
					<octave>3</octave>
				</pitch>
				<duration>4</duration>
				<voice>1</voice>
				<type>half</type>
				<stem>down</stem>
				<notations>
					<slur number="1" type="stop"/>
				</notations>
				<lyric default-x="9.43" default-y="-69.03" number="2" relative-y="-30.00">
					<syllabic>single</syllabic>
					<text font-size="12">all.</text>
				</lyric>
			</note>
			<note default-x="45.43" default-y="-20.00">
				<rest/>
				<duration>4</duration>
				<voice>1</voice>
				<type>half</type>
			</note>
			<barline location="right">
				<bar-style>light-heavy</bar-style>
			</barline>
		</measure>
	</part>
</score-partwise>
